G75*
G71*
%OFA0B0*%
%FSLAX23Y23*%
%IPPOS*%
%LPD*%
%ADD10C,0.1*%
%LPD*%D10*
X0Y0D02*
X0Y100D01*
X0Y200D01*
X0Y300D01*
X0Y400D01*
X0Y500D01*
X0Y600D01*
X0Y700D01*
X0Y800D01*
X0Y900D01*
X0Y1000D01*
X0Y1100D01*
X0Y1200D01*
X0Y1300D01*
X0Y1400D01*
X0Y1500D01*
X0Y1600D01*
X0Y1700D01*
X0Y1800D01*
X0Y1900D01*
X0Y2000D01*
X0Y2100D01*
X0Y2200D01*
X0Y2300D01*
X0Y2400D01*
X0Y2500D01*
X0Y2600D01*
X0Y2700D01*
X0Y2800D01*
X0Y2900D01*
X0Y3000D01*
X0Y3100D01*
X0Y3200D01*
X0Y3300D01*
X0Y3400D01*
X0Y3500D01*
X0Y3600D01*
X0Y3700D01*
X0Y3800D01*
X0Y3900D01*
X0Y4000D01*
X0Y4100D01*
X0Y4200D01*
X0Y4300D01*
X0Y4400D01*
X0Y4500D01*
X0Y4600D01*
X0Y4700D01*
X0Y4800D01*
X0Y4900D01*
X0Y5000D01*
X0Y5100D01*
X0Y5200D01*
X0Y5300D01*
X0Y5400D01*
X0Y5500D01*
X0Y5600D01*
X0Y5700D01*
X0Y5800D01*
X0Y5900D01*
X0Y6000D01*
X0Y6100D01*
X0Y6200D01*
X0Y6300D01*
X0Y6400D01*
X0Y6500D01*
X0Y6600D01*
X0Y6700D01*
X0Y6800D01*
X0Y6900D01*
X0Y7000D01*
X0Y7100D01*
X0Y7200D01*
X0Y7300D01*
X0Y7400D01*
X0Y7500D01*
X0Y7600D01*
X0Y7700D01*
X0Y7800D01*
X0Y7900D01*
X0Y8000D01*
X0Y8100D01*
X0Y8200D01*
X0Y8300D01*
X0Y8400D01*
X0Y8500D01*
X0Y8600D01*
X0Y8700D01*
X0Y8800D01*
X0Y8900D01*
X0Y9000D01*
X0Y9100D01*
X0Y9200D01*
X0Y9300D01*
X0Y9400D01*
X0Y9500D01*
X0Y9600D01*
X0Y9700D01*
X0Y9800D01*
X0Y9900D01*
X0Y10000D01*
X0Y10100D01*
X0Y10200D01*
X0Y10300D01*
X0Y10400D01*
X0Y10500D01*
X0Y10600D01*
X0Y10700D01*
X0Y10800D01*
X0Y10900D01*
X0Y11000D01*
X0Y11100D01*
X0Y11200D01*
X0Y11300D01*
X0Y11400D01*
X0Y11500D01*
X0Y11600D01*
X0Y11700D01*
X0Y11800D01*
X0Y11900D01*
X0Y12000D01*
X0Y12100D01*
X0Y12200D01*
X0Y12300D01*
X0Y12400D01*
X0Y12500D01*
X0Y12600D01*
X0Y12700D01*
X0Y12800D01*
X0Y12900D01*
X0Y13000D01*
X0Y13100D01*
X0Y13200D01*
X0Y13300D01*
X0Y13400D01*
X0Y13500D01*
X0Y13600D01*
X0Y13700D01*
X0Y13800D01*
X0Y13900D01*
X0Y14000D01*
X0Y14100D01*
X0Y14200D01*
X0Y14300D01*
X0Y14400D01*
X0Y14500D01*
X0Y14600D01*
X0Y14700D01*
X0Y14800D01*
X0Y14900D01*
X0Y15000D01*
X0Y15100D01*
X0Y15200D01*
X0Y15300D01*
X0Y15400D01*
X0Y15500D01*
X0Y15600D01*
X0Y15700D01*
X0Y15800D01*
X0Y15900D01*
X0Y16000D01*
X0Y16100D01*
X0Y16200D01*
X0Y16300D01*
X0Y16400D01*
X0Y16500D01*
X0Y16600D01*
X0Y16700D01*
X0Y16800D01*
X0Y16900D01*
X0Y17000D01*
X0Y17100D01*
X0Y17200D01*
X0Y17300D01*
X0Y17400D01*
X0Y17500D01*
X0Y17600D01*
X0Y17700D01*
X0Y17800D01*
X0Y17900D01*
X0Y18000D01*
X0Y18100D01*
X0Y18200D01*
X0Y18300D01*
X0Y18400D01*
X0Y18500D01*
X0Y18600D01*
X0Y18700D01*
X0Y18800D01*
X0Y18900D01*
X0Y19000D01*
X0Y19100D01*
X0Y19200D01*
X0Y19300D01*
X0Y19400D01*
X0Y19500D01*
X0Y19600D01*
X0Y19700D01*
X0Y19800D01*
X0Y19900D01*
X0Y20000D01*
X0Y20100D01*
X0Y20200D01*
X0Y20300D01*
X0Y20400D01*
X0Y20500D01*
X0Y20600D01*
X0Y20700D01*
X0Y20800D01*
X0Y20900D01*
X0Y21000D01*
X0Y21100D01*
X0Y21200D01*
X0Y21300D01*
X0Y21400D01*
X0Y21500D01*
X0Y21600D01*
X0Y21700D01*
X0Y21800D01*
X0Y21900D01*
X0Y22000D01*
X0Y22100D01*
X0Y22200D01*
X0Y22300D01*
X0Y22400D01*
X0Y22500D01*
X0Y22600D01*
X0Y22700D01*
X0Y22800D01*
X0Y22900D01*
X0Y23000D01*
X0Y23100D01*
X0Y23200D01*
X0Y23300D01*
X0Y23400D01*
X0Y23500D01*
X0Y23600D01*
X0Y23700D01*
X0Y23800D01*
X0Y23900D01*
X0Y24000D01*
X0Y24100D01*
X0Y24200D01*
X0Y24300D01*
X0Y24400D01*
X0Y24500D01*
X0Y24600D01*
X0Y24700D01*
X0Y24800D01*
X0Y24900D01*
X0Y25000D01*
X0Y25100D01*
X0Y25200D01*
X0Y25300D01*
X0Y25400D01*
X0Y25500D01*
X0Y25600D01*
X0Y25700D01*
X0Y25800D01*
X0Y25900D01*
X0Y26000D01*
X0Y26100D01*
X0Y26200D01*
X0Y26300D01*
X0Y26400D01*
X0Y26500D01*
X0Y26600D01*
X0Y26700D01*
X0Y26800D01*
X0Y26900D01*
X0Y27000D01*
X0Y27100D01*
X0Y27200D01*
X0Y27300D01*
X0Y27400D01*
X0Y27500D01*
X0Y27600D01*
X0Y27700D01*
X0Y27800D01*
X0Y27900D01*
X0Y28000D01*
X0Y28100D01*
X0Y28200D01*
X0Y28300D01*
X0Y28400D01*
X0Y28500D01*
X0Y28600D01*
X0Y28700D01*
X0Y28800D01*
X0Y28900D01*
X0Y29000D01*
X0Y29100D01*
X0Y29200D01*
X0Y29300D01*
X0Y29400D01*
X0Y29500D01*
X0Y29600D01*
X0Y29700D01*
X0Y29800D01*
X0Y29900D01*
X0Y30000D01*
X0Y30100D01*
X0Y30200D01*
X0Y30300D01*
X0Y30400D01*
X0Y30500D01*
X0Y30600D01*
X0Y30700D01*
X0Y30800D01*
X0Y30900D01*
X0Y31000D01*
X0Y31100D01*
X0Y31200D01*
X0Y31300D01*
X0Y31400D01*
X0Y31500D01*
X0Y31600D01*
X0Y31700D01*
X0Y31800D01*
X0Y31900D01*
X0Y32000D01*
X0Y32100D01*
X0Y32200D01*
X0Y32300D01*
X0Y32400D01*
X0Y32500D01*
X0Y32600D01*
X0Y32700D01*
X0Y32800D01*
X0Y32900D01*
X0Y33000D01*
X0Y33100D01*
X0Y33200D01*
X0Y33300D01*
X0Y33400D01*
X0Y33500D01*
X0Y33600D01*
X0Y33700D01*
X0Y33800D01*
X0Y33900D01*
X0Y34000D01*
X0Y34100D01*
X0Y34200D01*
X0Y34300D01*
X0Y34400D01*
X0Y34500D01*
X0Y34600D01*
X0Y34700D01*
X0Y34800D01*
X0Y34900D01*
X0Y35000D01*
X0Y35100D01*
X0Y35200D01*
X0Y35300D01*
X0Y35400D01*
X0Y35500D01*
X0Y35600D01*
X0Y35700D01*
X0Y35800D01*
X0Y35900D01*
X0Y36000D01*
X0Y36100D01*
X0Y36200D01*
X0Y36300D01*
X0Y36400D01*
X0Y36500D01*
X0Y36600D01*
X0Y36700D01*
X0Y36800D01*
X0Y36900D01*
X0Y37000D01*
X0Y37100D01*
X0Y37200D01*
X0Y37300D01*
X0Y37400D01*
X0Y37500D01*
X0Y37600D01*
X0Y37700D01*
X0Y37800D01*
X0Y37900D01*
X0Y38000D01*
X0Y38100D01*
X0Y38200D01*
X0Y38300D01*
X0Y38400D01*
X0Y38500D01*
X0Y38600D01*
X0Y38700D01*
X0Y38800D01*
X0Y38900D01*
X0Y39000D01*
X0Y39100D01*
X0Y39200D01*
X0Y39300D01*
X0Y39400D01*
X0Y39500D01*
X0Y39600D01*
X0Y39700D01*
X0Y39800D01*
X0Y39900D01*
X0Y40000D01*
X0Y40100D01*
X0Y40200D01*
X0Y40300D01*
X0Y40400D01*
X0Y40500D01*
X0Y40600D01*
X0Y40700D01*
X0Y40800D01*
X0Y40900D01*
X0Y41000D01*
X0Y41100D01*
X0Y41200D01*
X0Y41300D01*
X0Y41400D01*
X0Y41500D01*
X0Y41600D01*
X0Y41700D01*
X0Y41800D01*
X0Y41900D01*
X0Y42000D01*
X0Y42100D01*
X0Y42200D01*
X0Y42300D01*
X0Y42400D01*
X0Y42500D01*
X0Y42600D01*
X0Y42700D01*
X0Y42800D01*
X0Y42900D01*
X0Y43000D01*
X0Y43100D01*
X0Y43200D01*
X0Y43300D01*
X0Y43400D01*
X0Y43500D01*
X0Y43600D01*
X0Y43700D01*
X0Y43800D01*
X0Y43900D01*
X0Y44000D01*
X0Y44100D01*
X0Y44200D01*
X0Y44300D01*
X0Y44400D01*
X0Y44500D01*
X0Y44600D01*
X0Y44700D01*
X0Y44800D01*
X0Y44900D01*
X0Y45000D01*
X0Y45100D01*
X0Y45200D01*
X0Y45300D01*
X0Y45400D01*
X0Y45500D01*
X0Y45600D01*
X0Y45700D01*
X0Y45800D01*
X0Y45900D01*
X0Y46000D01*
X0Y46100D01*
X0Y46200D01*
X0Y46300D01*
X0Y46400D01*
X0Y46500D01*
X0Y46600D01*
X0Y46700D01*
X0Y46800D01*
X0Y46900D01*
X0Y47000D01*
X0Y47100D01*
X0Y47200D01*
X0Y47300D01*
X0Y47400D01*
X0Y47500D01*
X0Y47600D01*
X0Y47700D01*
X0Y47800D01*
X0Y47900D01*
X0Y48000D01*
X0Y48100D01*
X0Y48200D01*
X0Y48300D01*
X0Y48400D01*
X0Y48500D01*
X0Y48600D01*
X0Y48700D01*
X0Y48800D01*
X0Y48900D01*
X0Y49000D01*
X0Y49100D01*
X0Y49200D01*
X0Y49300D01*
X0Y49400D01*
X0Y49500D01*
X0Y49600D01*
X0Y49700D01*
X0Y49800D01*
X0Y49900D01*
X0Y50000D01*
X0Y50100D01*
X0Y50200D01*
X0Y50300D01*
X0Y50400D01*
X0Y50500D01*
X0Y50600D01*
X0Y50700D01*
X0Y50800D01*
X100Y50800D01*
X200Y50800D01*
X300Y50800D01*
X400Y50800D01*
X500Y50800D01*
X600Y50800D01*
X699Y50800D01*
X799Y50800D01*
X899Y50800D01*
X999Y50800D01*
X1099Y50800D01*
X1199Y50800D01*
X1299Y50800D01*
X1399Y50800D01*
X1499Y50800D01*
X1599Y50800D01*
X1699Y50800D01*
X1799Y50800D01*
X1899Y50800D01*
X1999Y50800D01*
X2098Y50800D01*
X2198Y50800D01*
X2298Y50800D01*
X2398Y50800D01*
X2498Y50800D01*
X2598Y50800D01*
X2698Y50800D01*
X2798Y50800D01*
X2898Y50800D01*
X2998Y50800D01*
X3098Y50800D01*
X3198Y50800D01*
X3298Y50800D01*
X3397Y50800D01*
X3497Y50800D01*
X3597Y50800D01*
X3697Y50800D01*
X3797Y50800D01*
X3897Y50800D01*
X3997Y50800D01*
X4097Y50800D01*
X4197Y50800D01*
X4297Y50800D01*
X4397Y50800D01*
X4497Y50800D01*
X4597Y50800D01*
X4696Y50800D01*
X4796Y50800D01*
X4896Y50800D01*
X4996Y50800D01*
X5096Y50800D01*
X5196Y50800D01*
X5296Y50800D01*
X5396Y50800D01*
X5496Y50800D01*
X5596Y50800D01*
X5696Y50800D01*
X5796Y50800D01*
X5896Y50800D01*
X5995Y50800D01*
X6095Y50800D01*
X6195Y50800D01*
X6295Y50800D01*
X6395Y50800D01*
X6495Y50800D01*
X6595Y50800D01*
X6695Y50800D01*
X6795Y50800D01*
X6895Y50800D01*
X6995Y50800D01*
X7095Y50800D01*
X7195Y50800D01*
X7295Y50800D01*
X7394Y50800D01*
X7494Y50800D01*
X7594Y50800D01*
X7694Y50800D01*
X7794Y50800D01*
X7894Y50800D01*
X7994Y50800D01*
X8094Y50800D01*
X8194Y50800D01*
X8294Y50800D01*
X8394Y50800D01*
X8494Y50800D01*
X8594Y50800D01*
X8693Y50800D01*
X8793Y50800D01*
X8893Y50800D01*
X8993Y50800D01*
X9093Y50800D01*
X9193Y50800D01*
X9293Y50800D01*
X9393Y50800D01*
X9493Y50800D01*
X9593Y50800D01*
X9693Y50800D01*
X9793Y50800D01*
X9893Y50800D01*
X9992Y50800D01*
X10092Y50800D01*
X10192Y50800D01*
X10292Y50800D01*
X10392Y50800D01*
X10492Y50800D01*
X10592Y50800D01*
X10692Y50800D01*
X10792Y50800D01*
X10892Y50800D01*
X10992Y50800D01*
X11092Y50800D01*
X11192Y50800D01*
X11292Y50800D01*
X11391Y50800D01*
X11491Y50800D01*
X11591Y50800D01*
X11691Y50800D01*
X11791Y50800D01*
X11891Y50800D01*
X11991Y50800D01*
X12091Y50800D01*
X12191Y50800D01*
X12291Y50800D01*
X12391Y50800D01*
X12491Y50800D01*
X12591Y50800D01*
X12690Y50800D01*
X12790Y50800D01*
X12890Y50800D01*
X12990Y50800D01*
X13090Y50800D01*
X13190Y50800D01*
X13290Y50800D01*
X13390Y50800D01*
X13490Y50800D01*
X13590Y50800D01*
X13690Y50800D01*
X13790Y50800D01*
X13890Y50800D01*
X13989Y50800D01*
X14089Y50800D01*
X14189Y50800D01*
X14289Y50800D01*
X14389Y50800D01*
X14489Y50800D01*
X14589Y50800D01*
X14689Y50800D01*
X14789Y50800D01*
X14889Y50800D01*
X14989Y50800D01*
X15089Y50800D01*
X15189Y50800D01*
X15289Y50800D01*
X15388Y50800D01*
X15488Y50800D01*
X15588Y50800D01*
X15688Y50800D01*
X15788Y50800D01*
X15888Y50800D01*
X15988Y50800D01*
X16088Y50800D01*
X16188Y50800D01*
X16288Y50800D01*
X16388Y50800D01*
X16488Y50800D01*
X16588Y50800D01*
X16687Y50800D01*
X16787Y50800D01*
X16887Y50800D01*
X16987Y50800D01*
X17087Y50800D01*
X17187Y50800D01*
X17287Y50800D01*
X17387Y50800D01*
X17487Y50800D01*
X17587Y50800D01*
X17687Y50800D01*
X17787Y50800D01*
X17887Y50800D01*
X17987Y50800D01*
X18086Y50800D01*
X18186Y50800D01*
X18286Y50800D01*
X18386Y50800D01*
X18486Y50800D01*
X18586Y50800D01*
X18686Y50800D01*
X18786Y50800D01*
X18886Y50800D01*
X18986Y50800D01*
X19086Y50800D01*
X19186Y50800D01*
X19286Y50800D01*
X19385Y50800D01*
X19485Y50800D01*
X19585Y50800D01*
X19685Y50800D01*
X19785Y50800D01*
X19885Y50800D01*
X19985Y50800D01*
X20085Y50800D01*
X20185Y50800D01*
X20285Y50800D01*
X20385Y50800D01*
X20485Y50800D01*
X20585Y50800D01*
X20684Y50800D01*
X20784Y50800D01*
X20884Y50800D01*
X20984Y50800D01*
X21084Y50800D01*
X21184Y50800D01*
X21284Y50800D01*
X21384Y50800D01*
X21484Y50800D01*
X21584Y50800D01*
X21684Y50800D01*
X21784Y50800D01*
X21884Y50800D01*
X21984Y50800D01*
X22083Y50800D01*
X22183Y50800D01*
X22283Y50800D01*
X22383Y50800D01*
X22483Y50800D01*
X22583Y50800D01*
X22683Y50800D01*
X22783Y50800D01*
X22883Y50800D01*
X22983Y50800D01*
X23083Y50800D01*
X23183Y50800D01*
X23283Y50800D01*
X23382Y50800D01*
X23482Y50800D01*
X23582Y50800D01*
X23682Y50800D01*
X23782Y50800D01*
X23882Y50800D01*
X23982Y50800D01*
X24082Y50800D01*
X24182Y50800D01*
X24282Y50800D01*
X24382Y50800D01*
X24482Y50800D01*
X24582Y50800D01*
X24682Y50800D01*
X24781Y50800D01*
X24881Y50800D01*
X24981Y50800D01*
X25081Y50800D01*
X25181Y50800D01*
X25281Y50800D01*
X25381Y50800D01*
X25481Y50800D01*
X25581Y50800D01*
X25681Y50800D01*
X25781Y50800D01*
X25881Y50800D01*
X25981Y50800D01*
X26080Y50800D01*
X26180Y50800D01*
X26280Y50800D01*
X26380Y50800D01*
X26480Y50800D01*
X26580Y50800D01*
X26680Y50800D01*
X26780Y50800D01*
X26880Y50800D01*
X26980Y50800D01*
X27080Y50800D01*
X27180Y50800D01*
X27280Y50800D01*
X27379Y50800D01*
X27479Y50800D01*
X27579Y50800D01*
X27679Y50800D01*
X27779Y50800D01*
X27879Y50800D01*
X27979Y50800D01*
X28079Y50800D01*
X28179Y50800D01*
X28279Y50800D01*
X28379Y50800D01*
X28479Y50800D01*
X28579Y50800D01*
X28679Y50800D01*
X28778Y50800D01*
X28878Y50800D01*
X28978Y50800D01*
X29078Y50800D01*
X29178Y50800D01*
X29278Y50800D01*
X29378Y50800D01*
X29478Y50800D01*
X29578Y50800D01*
X29678Y50800D01*
X29778Y50800D01*
X29878Y50800D01*
X29978Y50800D01*
X30077Y50800D01*
X30177Y50800D01*
X30277Y50800D01*
X30377Y50800D01*
X30477Y50800D01*
X30577Y50800D01*
X30677Y50800D01*
X30777Y50800D01*
X30877Y50800D01*
X30977Y50800D01*
X31077Y50800D01*
X31177Y50800D01*
X31277Y50800D01*
X31377Y50800D01*
X31476Y50800D01*
X31576Y50800D01*
X31676Y50800D01*
X31776Y50800D01*
X31876Y50800D01*
X31976Y50800D01*
X32076Y50800D01*
X32176Y50800D01*
X32276Y50800D01*
X32376Y50800D01*
X32476Y50800D01*
X32576Y50800D01*
X32676Y50800D01*
X32775Y50800D01*
X32875Y50800D01*
X32975Y50800D01*
X33075Y50800D01*
X33175Y50800D01*
X33275Y50800D01*
X33375Y50800D01*
X33475Y50800D01*
X33575Y50800D01*
X33675Y50800D01*
X33775Y50800D01*
X33875Y50800D01*
X33975Y50800D01*
X34075Y50800D01*
X34174Y50800D01*
X34274Y50800D01*
X34374Y50800D01*
X34474Y50800D01*
X34574Y50800D01*
X34674Y50800D01*
X34774Y50800D01*
X34874Y50800D01*
X34974Y50800D01*
X35074Y50800D01*
X35174Y50800D01*
X35274Y50800D01*
X35374Y50800D01*
X35473Y50800D01*
X35573Y50800D01*
X35673Y50800D01*
X35773Y50800D01*
X35873Y50800D01*
X35973Y50800D01*
X36073Y50800D01*
X36173Y50800D01*
X36273Y50800D01*
X36373Y50800D01*
X36473Y50800D01*
X36573Y50800D01*
X36673Y50800D01*
X36773Y50800D01*
X36872Y50800D01*
X36972Y50800D01*
X37072Y50800D01*
X37172Y50800D01*
X37272Y50800D01*
X37372Y50800D01*
X37472Y50800D01*
X37572Y50800D01*
X37672Y50800D01*
X37772Y50800D01*
X37772Y50700D01*
X37773Y50600D01*
X37774Y50501D01*
X37774Y50401D01*
X37775Y50301D01*
X37776Y50201D01*
X37776Y50101D01*
X37777Y50002D01*
X37778Y49902D01*
X37778Y49802D01*
X37779Y49702D01*
X37780Y49602D01*
X37780Y49503D01*
X37781Y49403D01*
X37782Y49303D01*
X37782Y49203D01*
X37783Y49103D01*
X37783Y49004D01*
X37784Y48904D01*
X37785Y48804D01*
X37785Y48704D01*
X37786Y48604D01*
X37787Y48505D01*
X37787Y48405D01*
X37788Y48305D01*
X37789Y48205D01*
X37789Y48105D01*
X37790Y48006D01*
X37791Y47906D01*
X37791Y47806D01*
X37792Y47706D01*
X37792Y47606D01*
X37793Y47507D01*
X37794Y47407D01*
X37794Y47307D01*
X37795Y47207D01*
X37796Y47107D01*
X37796Y47007D01*
X37797Y46908D01*
X37798Y46808D01*
X37798Y46708D01*
X37799Y46608D01*
X37800Y46508D01*
X37800Y46409D01*
X37801Y46309D01*
X37801Y46209D01*
X37802Y46109D01*
X37803Y46009D01*
X37803Y45910D01*
X37804Y45810D01*
X37805Y45710D01*
X37805Y45610D01*
X37806Y45510D01*
X37807Y45411D01*
X37807Y45311D01*
X37808Y45211D01*
X37809Y45111D01*
X37809Y45011D01*
X37810Y44912D01*
X37811Y44812D01*
X37811Y44712D01*
X37812Y44612D01*
X37812Y44512D01*
X37813Y44413D01*
X37814Y44313D01*
X37814Y44213D01*
X37815Y44113D01*
X37816Y44013D01*
X37816Y43914D01*
X37817Y43814D01*
X37818Y43714D01*
X37818Y43614D01*
X37819Y43514D01*
X37820Y43415D01*
X37820Y43315D01*
X37821Y43215D01*
X37821Y43115D01*
X37822Y43015D01*
X37823Y42916D01*
X37823Y42816D01*
X37824Y42716D01*
X37825Y42616D01*
X37825Y42516D01*
X37826Y42417D01*
X37827Y42317D01*
X37827Y42217D01*
X37828Y42117D01*
X37829Y42017D01*
X37829Y41918D01*
X37830Y41818D01*
X37831Y41718D01*
X37831Y41618D01*
X37832Y41518D01*
X37832Y41419D01*
X37833Y41319D01*
X37834Y41219D01*
X37834Y41119D01*
X37835Y41019D01*
X37836Y40920D01*
X37836Y40820D01*
X37837Y40720D01*
X37838Y40620D01*
X37838Y40520D01*
X37839Y40420D01*
X37840Y40321D01*
X37840Y40221D01*
X37841Y40121D01*
X37841Y40021D01*
X37842Y39921D01*
X37843Y39822D01*
X37843Y39722D01*
X37844Y39622D01*
X37845Y39522D01*
X37845Y39422D01*
X37846Y39323D01*
X37847Y39223D01*
X37847Y39123D01*
X37848Y39023D01*
X37849Y38923D01*
X37849Y38824D01*
X37850Y38724D01*
X37850Y38624D01*
X37851Y38524D01*
X37852Y38424D01*
X37852Y38325D01*
X37853Y38225D01*
X37854Y38125D01*
X37854Y38025D01*
X37855Y37925D01*
X37856Y37826D01*
X37856Y37726D01*
X37857Y37626D01*
X37858Y37526D01*
X37858Y37426D01*
X37859Y37327D01*
X37860Y37227D01*
X37860Y37127D01*
X37861Y37027D01*
X37861Y36927D01*
X37862Y36828D01*
X37863Y36728D01*
X37863Y36628D01*
X37864Y36528D01*
X37865Y36428D01*
X37865Y36329D01*
X37866Y36229D01*
X37867Y36129D01*
X37867Y36029D01*
X37868Y35929D01*
X37869Y35830D01*
X37869Y35730D01*
X37870Y35630D01*
X37870Y35530D01*
X37871Y35430D01*
X37872Y35331D01*
X37872Y35231D01*
X37873Y35131D01*
X37874Y35031D01*
X37874Y34931D01*
X37875Y34832D01*
X37876Y34732D01*
X37876Y34632D01*
X37877Y34532D01*
X37878Y34432D01*
X37878Y34332D01*
X37879Y34233D01*
X37880Y34133D01*
X37880Y34033D01*
X37881Y33933D01*
X37881Y33833D01*
X37882Y33734D01*
X37883Y33634D01*
X37883Y33534D01*
X37884Y33434D01*
X37885Y33334D01*
X37885Y33235D01*
X37886Y33135D01*
X37887Y33035D01*
X37887Y32935D01*
X37888Y32835D01*
X37889Y32736D01*
X37889Y32636D01*
X37890Y32536D01*
X37890Y32436D01*
X37891Y32336D01*
X37892Y32237D01*
X37892Y32137D01*
X37893Y32037D01*
X37894Y31937D01*
X37894Y31837D01*
X37895Y31738D01*
X37896Y31638D01*
X37896Y31538D01*
X37897Y31438D01*
X37898Y31338D01*
X37898Y31239D01*
X37899Y31139D01*
X37899Y31039D01*
X37900Y30939D01*
X37901Y30839D01*
X37901Y30740D01*
X37902Y30640D01*
X37903Y30540D01*
X37903Y30440D01*
X37904Y30340D01*
X37905Y30241D01*
X37905Y30141D01*
X37906Y30041D01*
X37907Y29941D01*
X37907Y29841D01*
X37908Y29742D01*
X37909Y29642D01*
X37909Y29542D01*
X37910Y29442D01*
X37910Y29342D01*
X37911Y29243D01*
X37912Y29143D01*
X37912Y29043D01*
X37913Y28943D01*
X37914Y28843D01*
X37914Y28744D01*
X37915Y28644D01*
X37916Y28544D01*
X37916Y28444D01*
X37917Y28344D01*
X37918Y28245D01*
X37918Y28145D01*
X37919Y28045D01*
X37919Y27945D01*
X37920Y27845D01*
X37921Y27745D01*
X37921Y27646D01*
X37922Y27546D01*
X37923Y27446D01*
X37923Y27346D01*
X37924Y27246D01*
X37925Y27147D01*
X37925Y27047D01*
X37926Y26947D01*
X37927Y26847D01*
X37927Y26747D01*
X37928Y26648D01*
X37929Y26548D01*
X37929Y26448D01*
X37930Y26348D01*
X37930Y26248D01*
X37931Y26149D01*
X37932Y26049D01*
X37932Y25949D01*
X37933Y25849D01*
X37934Y25749D01*
X37934Y25650D01*
X37935Y25550D01*
X37936Y25450D01*
X37936Y25350D01*
X37937Y25250D01*
X37938Y25151D01*
X37938Y25051D01*
X37939Y24951D01*
X37939Y24851D01*
X37940Y24751D01*
X37941Y24652D01*
X37941Y24552D01*
X37942Y24452D01*
X37943Y24352D01*
X37943Y24252D01*
X37944Y24153D01*
X37945Y24053D01*
X37945Y23953D01*
X37946Y23853D01*
X37947Y23753D01*
X37947Y23654D01*
X37948Y23554D01*
X37948Y23454D01*
X37949Y23354D01*
X37950Y23254D01*
X37950Y23155D01*
X37951Y23055D01*
X37952Y22955D01*
X37952Y22855D01*
X37953Y22755D01*
X37954Y22656D01*
X37954Y22556D01*
X37955Y22456D01*
X37956Y22356D01*
X37956Y22256D01*
X37957Y22157D01*
X37958Y22057D01*
X37958Y21957D01*
X37959Y21857D01*
X37959Y21757D01*
X37960Y21657D01*
X37961Y21558D01*
X37961Y21458D01*
X37962Y21358D01*
X37963Y21258D01*
X37963Y21158D01*
X37964Y21059D01*
X37965Y20959D01*
X37965Y20859D01*
X37966Y20759D01*
X37967Y20659D01*
X37967Y20560D01*
X37968Y20460D01*
X37968Y20360D01*
X37969Y20260D01*
X37970Y20160D01*
X37970Y20061D01*
X37971Y19961D01*
X37972Y19861D01*
X37972Y19761D01*
X37973Y19661D01*
X37974Y19562D01*
X37974Y19462D01*
X37975Y19362D01*
X37976Y19262D01*
X37976Y19162D01*
X37977Y19063D01*
X37978Y18963D01*
X37978Y18863D01*
X37979Y18763D01*
X37979Y18663D01*
X37980Y18564D01*
X37981Y18464D01*
X37981Y18364D01*
X37982Y18264D01*
X37983Y18164D01*
X37983Y18065D01*
X37984Y17965D01*
X37985Y17865D01*
X37985Y17765D01*
X37986Y17665D01*
X37987Y17566D01*
X37987Y17466D01*
X37988Y17366D01*
X37988Y17266D01*
X37989Y17166D01*
X37990Y17067D01*
X37990Y16967D01*
X37991Y16867D01*
X37992Y16767D01*
X37992Y16667D01*
X37993Y16568D01*
X37994Y16468D01*
X37994Y16368D01*
X37995Y16268D01*
X37996Y16168D01*
X37996Y16068D01*
X37997Y15969D01*
X37997Y15869D01*
X37998Y15769D01*
X37999Y15669D01*
X37999Y15569D01*
X38000Y15470D01*
X38001Y15370D01*
X38001Y15270D01*
X38002Y15170D01*
X38003Y15070D01*
X38003Y14971D01*
X38004Y14871D01*
X38005Y14771D01*
X38005Y14671D01*
X38006Y14571D01*
X38007Y14472D01*
X38007Y14372D01*
X38008Y14272D01*
X38008Y14172D01*
X38009Y14072D01*
X38010Y13973D01*
X38010Y13873D01*
X38011Y13773D01*
X38012Y13673D01*
X38012Y13573D01*
X38013Y13474D01*
X38014Y13374D01*
X38014Y13274D01*
X38015Y13174D01*
X38016Y13074D01*
X38016Y12975D01*
X38017Y12875D01*
X38017Y12775D01*
X38018Y12675D01*
X38019Y12575D01*
X38019Y12476D01*
X38020Y12376D01*
X38021Y12276D01*
X38021Y12176D01*
X38022Y12076D01*
X38023Y11977D01*
X38023Y11877D01*
X38024Y11777D01*
X38025Y11677D01*
X38025Y11577D01*
X38026Y11478D01*
X38027Y11378D01*
X38027Y11278D01*
X38028Y11178D01*
X38028Y11078D01*
X38029Y10979D01*
X38030Y10879D01*
X38030Y10779D01*
X38031Y10679D01*
X38032Y10579D01*
X38032Y10479D01*
X38033Y10380D01*
X38034Y10280D01*
X38034Y10180D01*
X38035Y10080D01*
X38036Y9980D01*
X38036Y9881D01*
X38037Y9781D01*
X38037Y9681D01*
X38038Y9581D01*
X38039Y9481D01*
X38039Y9382D01*
X38040Y9282D01*
X38041Y9182D01*
X38041Y9082D01*
X38042Y8982D01*
X38043Y8883D01*
X38043Y8783D01*
X38044Y8683D01*
X38045Y8583D01*
X38045Y8483D01*
X38046Y8384D01*
X38046Y8284D01*
X38047Y8184D01*
X38048Y8084D01*
X38048Y7984D01*
X38049Y7885D01*
X38050Y7785D01*
X38050Y7685D01*
X38051Y7585D01*
X38052Y7485D01*
X38052Y7386D01*
X38053Y7286D01*
X38054Y7186D01*
X38054Y7086D01*
X38055Y6986D01*
X38056Y6887D01*
X38056Y6787D01*
X38057Y6687D01*
X38057Y6587D01*
X38058Y6487D01*
X38059Y6388D01*
X38059Y6288D01*
X38060Y6188D01*
X38061Y6088D01*
X38061Y5988D01*
X38062Y5889D01*
X38063Y5789D01*
X38063Y5689D01*
X38064Y5589D01*
X38065Y5489D01*
X38065Y5389D01*
X38066Y5290D01*
X38066Y5190D01*
X38067Y5090D01*
X38068Y4990D01*
X38068Y4890D01*
X38069Y4791D01*
X38070Y4691D01*
X38070Y4591D01*
X38071Y4491D01*
X38072Y4391D01*
X38072Y4292D01*
X38073Y4192D01*
X38074Y4092D01*
X38074Y3992D01*
X38075Y3892D01*
X38076Y3793D01*
X38076Y3693D01*
X38077Y3593D01*
X38077Y3493D01*
X38078Y3393D01*
X38079Y3294D01*
X38079Y3194D01*
X38080Y3094D01*
X38081Y2994D01*
X38081Y2894D01*
X38082Y2795D01*
X38083Y2695D01*
X38083Y2595D01*
X38084Y2495D01*
X38085Y2395D01*
X38085Y2296D01*
X38086Y2196D01*
X38086Y2096D01*
X38087Y1996D01*
X38088Y1896D01*
X38088Y1797D01*
X38089Y1697D01*
X38090Y1597D01*
X38090Y1497D01*
X38091Y1397D01*
X38092Y1298D01*
X38092Y1198D01*
X38093Y1098D01*
X38094Y998D01*
X38094Y898D01*
X38095Y798D01*
X38095Y699D01*
X38096Y599D01*
X38097Y499D01*
X38097Y399D01*
X38098Y299D01*
X38099Y200D01*
X38099Y100D01*
X38100Y0D01*
X38000Y0D01*
X37900Y0D01*
X37800Y0D01*
X37700Y0D01*
X37600Y0D01*
X37500Y0D01*
X37400Y0D01*
X37300Y0D01*
X37200Y0D01*
X37100Y0D01*
X37000Y0D01*
X36900Y0D01*
X36800Y0D01*
X36700Y0D01*
X36600Y0D01*
X36500Y0D01*
X36400Y0D01*
X36300Y0D01*
X36200Y0D01*
X36100Y0D01*
X36000Y0D01*
X35900Y0D01*
X35800Y0D01*
X35700Y0D01*
X35600Y0D01*
X35500Y0D01*
X35400Y0D01*
X35300Y0D01*
X35200Y0D01*
X35100Y0D01*
X35000Y0D01*
X34900Y0D01*
X34800Y0D01*
X34700Y0D01*
X34600Y0D01*
X34500Y0D01*
X34400Y0D01*
X34300Y0D01*
X34200Y0D01*
X34100Y0D01*
X34000Y0D01*
X33900Y0D01*
X33800Y0D01*
X33700Y0D01*
X33600Y0D01*
X33500Y0D01*
X33400Y0D01*
X33300Y0D01*
X33200Y0D01*
X33100Y0D01*
X33000Y0D01*
X32900Y0D01*
X32800Y0D01*
X32700Y0D01*
X32600Y0D01*
X32500Y0D01*
X32400Y0D01*
X32300Y0D01*
X32200Y0D01*
X32100Y0D01*
X32000Y0D01*
X31900Y0D01*
X31800Y0D01*
X31700Y0D01*
X31600Y0D01*
X31500Y0D01*
X31400Y0D01*
X31300Y0D01*
X31200Y0D01*
X31100Y0D01*
X31000Y0D01*
X30900Y0D01*
X30800Y0D01*
X30700Y0D01*
X30600Y0D01*
X30500Y0D01*
X30400Y0D01*
X30300Y0D01*
X30200Y0D01*
X30100Y0D01*
X30000Y0D01*
X29900Y0D01*
X29800Y0D01*
X29700Y0D01*
X29600Y0D01*
X29500Y0D01*
X29400Y0D01*
X29300Y0D01*
X29200Y0D01*
X29100Y0D01*
X29000Y0D01*
X28900Y0D01*
X28800Y0D01*
X28700Y0D01*
X28600Y0D01*
X28500Y0D01*
X28400Y0D01*
X28300Y0D01*
X28200Y0D01*
X28100Y0D01*
X28000Y0D01*
X27900Y0D01*
X27800Y0D01*
X27700Y0D01*
X27600Y0D01*
X27500Y0D01*
X27400Y0D01*
X27300Y0D01*
X27200Y0D01*
X27100Y0D01*
X27000Y0D01*
X26900Y0D01*
X26800Y0D01*
X26700Y0D01*
X26600Y0D01*
X26500Y0D01*
X26400Y0D01*
X26300Y0D01*
X26200Y0D01*
X26100Y0D01*
X26000Y0D01*
X25900Y0D01*
X25800Y0D01*
X25700Y0D01*
X25600Y0D01*
X25500Y0D01*
X25400Y0D01*
X25300Y0D01*
X25200Y0D01*
X25100Y0D01*
X25000Y0D01*
X24900Y0D01*
X24800Y0D01*
X24700Y0D01*
X24600Y0D01*
X24500Y0D01*
X24400Y0D01*
X24300Y0D01*
X24200Y0D01*
X24100Y0D01*
X24000Y0D01*
X23900Y0D01*
X23800Y0D01*
X23700Y0D01*
X23600Y0D01*
X23500Y0D01*
X23400Y0D01*
X23300Y0D01*
X23200Y0D01*
X23100Y0D01*
X23000Y0D01*
X22900Y0D01*
X22800Y0D01*
X22700Y0D01*
X22600Y0D01*
X22500Y0D01*
X22400Y0D01*
X22300Y0D01*
X22200Y0D01*
X22100Y0D01*
X22000Y0D01*
X21900Y0D01*
X21800Y0D01*
X21700Y0D01*
X21600Y0D01*
X21500Y0D01*
X21400Y0D01*
X21300Y0D01*
X21200Y0D01*
X21100Y0D01*
X21000Y0D01*
X20900Y0D01*
X20800Y0D01*
X20700Y0D01*
X20600Y0D01*
X20500Y0D01*
X20400Y0D01*
X20300Y0D01*
X20200Y0D01*
X20100Y0D01*
X20000Y0D01*
X19900Y0D01*
X19800Y0D01*
X19700Y0D01*
X19600Y0D01*
X19500Y0D01*
X19400Y0D01*
X19300Y0D01*
X19200Y0D01*
X19100Y0D01*
X19000Y0D01*
X18900Y0D01*
X18800Y0D01*
X18700Y0D01*
X18600Y0D01*
X18500Y0D01*
X18400Y0D01*
X18300Y0D01*
X18200Y0D01*
X18100Y0D01*
X18000Y0D01*
X17900Y0D01*
X17800Y0D01*
X17700Y0D01*
X17600Y0D01*
X17500Y0D01*
X17400Y0D01*
X17300Y0D01*
X17200Y0D01*
X17100Y0D01*
X17000Y0D01*
X16900Y0D01*
X16800Y0D01*
X16700Y0D01*
X16600Y0D01*
X16500Y0D01*
X16400Y0D01*
X16300Y0D01*
X16200Y0D01*
X16100Y0D01*
X16000Y0D01*
X15900Y0D01*
X15800Y0D01*
X15700Y0D01*
X15600Y0D01*
X15500Y0D01*
X15400Y0D01*
X15300Y0D01*
X15200Y0D01*
X15100Y0D01*
X15000Y0D01*
X14900Y0D01*
X14800Y0D01*
X14700Y0D01*
X14600Y0D01*
X14500Y0D01*
X14400Y0D01*
X14300Y0D01*
X14200Y0D01*
X14100Y0D01*
X14000Y0D01*
X13900Y0D01*
X13800Y0D01*
X13700Y0D01*
X13600Y0D01*
X13500Y0D01*
X13400Y0D01*
X13300Y0D01*
X13200Y0D01*
X13100Y0D01*
X13000Y0D01*
X12900Y0D01*
X12800Y0D01*
X12700Y0D01*
X12600Y0D01*
X12500Y0D01*
X12400Y0D01*
X12300Y0D01*
X12200Y0D01*
X12100Y0D01*
X12000Y0D01*
X11900Y0D01*
X11800Y0D01*
X11700Y0D01*
X11600Y0D01*
X11500Y0D01*
X11400Y0D01*
X11300Y0D01*
X11200Y0D01*
X11100Y0D01*
X11000Y0D01*
X10900Y0D01*
X10800Y0D01*
X10700Y0D01*
X10600Y0D01*
X10500Y0D01*
X10400Y0D01*
X10300Y0D01*
X10200Y0D01*
X10100Y0D01*
X10000Y0D01*
X9900Y0D01*
X9800Y0D01*
X9700Y0D01*
X9600Y0D01*
X9500Y0D01*
X9400Y0D01*
X9300Y0D01*
X9200Y0D01*
X9100Y0D01*
X9000Y0D01*
X8900Y0D01*
X8800Y0D01*
X8700Y0D01*
X8600Y0D01*
X8500Y0D01*
X8400Y0D01*
X8300Y0D01*
X8200Y0D01*
X8100Y0D01*
X8000Y0D01*
X7900Y0D01*
X7800Y0D01*
X7700Y0D01*
X7600Y0D01*
X7500Y0D01*
X7400Y0D01*
X7300Y0D01*
X7200Y0D01*
X7100Y0D01*
X7000Y0D01*
X6900Y0D01*
X6800Y0D01*
X6700Y0D01*
X6600Y0D01*
X6500Y0D01*
X6400Y0D01*
X6300Y0D01*
X6200Y0D01*
X6100Y0D01*
X6000Y0D01*
X5900Y0D01*
X5800Y0D01*
X5700Y0D01*
X5600Y0D01*
X5500Y0D01*
X5400Y0D01*
X5300Y0D01*
X5200Y0D01*
X5100Y0D01*
X5000Y0D01*
X4900Y0D01*
X4800Y0D01*
X4700Y0D01*
X4600Y0D01*
X4500Y0D01*
X4400Y0D01*
X4300Y0D01*
X4200Y0D01*
X4100Y0D01*
X4000Y0D01*
X3900Y0D01*
X3800Y0D01*
X3700Y0D01*
X3600Y0D01*
X3500Y0D01*
X3400Y0D01*
X3300Y0D01*
X3200Y0D01*
X3100Y0D01*
X3000Y0D01*
X2900Y0D01*
X2800Y0D01*
X2700Y0D01*
X2600Y0D01*
X2500Y0D01*
X2400Y0D01*
X2300Y0D01*
X2200Y0D01*
X2100Y0D01*
X2000Y0D01*
X1900Y0D01*
X1800Y0D01*
X1700Y0D01*
X1600Y0D01*
X1500Y0D01*
X1400Y0D01*
X1300Y0D01*
X1200Y0D01*
X1100Y0D01*
X1000Y0D01*
X900Y0D01*
X800Y0D01*
X700Y0D01*
X600Y0D01*
X500Y0D01*
X400Y0D01*
X300Y0D01*
X200Y0D01*
X100Y0D01*
X0Y0D01*
X0Y0D01*
G36*
X20997Y44773D02*
X17745Y44773D01*
X18307Y45468D01*
X17886Y45720D01*
X17097Y44696D01*
X17097Y44158D01*
X20997Y44158D01*
X20997Y44773D01*
G37*
G36*
X20997Y42983D02*
X20518Y42983D01*
X19185Y41677D01*
X18994Y41508D01*
X18792Y41357D01*
X18690Y41292D01*
X18585Y41235D01*
X18480Y41188D01*
X18374Y41153D01*
X18267Y41130D01*
X18161Y41122D01*
X18086Y41127D01*
X18016Y41139D01*
X17950Y41157D01*
X17888Y41184D01*
X17832Y41216D01*
X17779Y41254D01*
X17732Y41298D01*
X17689Y41346D01*
X17651Y41399D01*
X17617Y41457D01*
X17589Y41517D01*
X17565Y41581D01*
X17547Y41649D01*
X17534Y41717D01*
X17526Y41788D01*
X17523Y41860D01*
X17528Y41990D01*
X17544Y42115D01*
X17583Y42299D01*
X17618Y42418D01*
X17708Y42650D01*
X17787Y42819D01*
X17284Y42848D01*
X17186Y42594D01*
X17108Y42331D01*
X17079Y42196D01*
X17056Y42061D01*
X17043Y41923D01*
X17038Y41784D01*
X17042Y41656D01*
X17053Y41532D01*
X17071Y41410D01*
X17098Y41293D01*
X17133Y41181D01*
X17176Y41074D01*
X17228Y40974D01*
X17288Y40880D01*
X17357Y40796D01*
X17436Y40719D01*
X17523Y40653D01*
X17620Y40597D01*
X17727Y40551D01*
X17844Y40519D01*
X17971Y40498D01*
X18108Y40491D01*
X18239Y40499D01*
X18367Y40523D01*
X18494Y40562D01*
X18618Y40613D01*
X18739Y40675D01*
X18859Y40747D01*
X19090Y40915D01*
X20524Y42234D01*
X20524Y40427D01*
X20997Y40427D01*
X20997Y42983D01*
X20997Y42983D01*
G37*
G36*
X20407Y39485D02*
X20449Y39370D01*
X20486Y39252D01*
X20540Y39008D01*
X20572Y38765D01*
X20582Y38532D01*
X20580Y38435D01*
X20572Y38342D01*
X20558Y38251D01*
X20539Y38164D01*
X20514Y38079D01*
X20483Y38000D01*
X20447Y37925D01*
X20403Y37856D01*
X20355Y37793D01*
X20299Y37736D01*
X20237Y37687D01*
X20168Y37645D01*
X20092Y37611D01*
X20009Y37587D01*
X19919Y37572D01*
X19822Y37566D01*
X19733Y37572D01*
X19651Y37587D01*
X19578Y37612D01*
X19513Y37646D01*
X19453Y37688D01*
X19401Y37737D01*
X19356Y37794D01*
X19317Y37856D01*
X19283Y37924D01*
X19255Y37996D01*
X19232Y38074D01*
X19214Y38154D01*
X19201Y38237D01*
X19186Y38409D01*
X19184Y39011D01*
X18746Y39011D01*
X18744Y38472D01*
X18728Y38283D01*
X18713Y38195D01*
X18693Y38112D01*
X18669Y38033D01*
X18638Y37961D01*
X18603Y37895D01*
X18561Y37835D01*
X18513Y37781D01*
X18459Y37736D01*
X18397Y37697D01*
X18330Y37665D01*
X18253Y37644D01*
X18171Y37629D01*
X18079Y37625D01*
X17999Y37630D01*
X17927Y37645D01*
X17860Y37668D01*
X17801Y37700D01*
X17748Y37739D01*
X17700Y37786D01*
X17659Y37839D01*
X17623Y37897D01*
X17592Y37960D01*
X17566Y38028D01*
X17545Y38099D01*
X17528Y38173D01*
X17515Y38249D01*
X17501Y38406D01*
X17503Y38592D01*
X17528Y38817D01*
X17576Y39047D01*
X17645Y39272D01*
X17687Y39380D01*
X17207Y39415D01*
X17134Y39167D01*
X17081Y38915D01*
X17049Y38658D01*
X17038Y38397D01*
X17050Y38140D01*
X17065Y38014D01*
X17087Y37890D01*
X17116Y37770D01*
X17153Y37654D01*
X17198Y37544D01*
X17251Y37441D01*
X17313Y37347D01*
X17384Y37261D01*
X17465Y37186D01*
X17556Y37121D01*
X17657Y37070D01*
X17769Y37031D01*
X17892Y37007D01*
X18026Y36999D01*
X18118Y37003D01*
X18204Y37014D01*
X18286Y37032D01*
X18364Y37057D01*
X18437Y37090D01*
X18506Y37127D01*
X18571Y37172D01*
X18631Y37221D01*
X18686Y37277D01*
X18737Y37337D01*
X18784Y37403D01*
X18826Y37473D01*
X18864Y37548D01*
X18898Y37626D01*
X18926Y37709D01*
X18951Y37795D01*
X18965Y37706D01*
X18987Y37620D01*
X19013Y37536D01*
X19045Y37456D01*
X19082Y37380D01*
X19125Y37308D01*
X19174Y37241D01*
X19227Y37179D01*
X19285Y37123D01*
X19348Y37073D01*
X19417Y37029D01*
X19490Y36992D01*
X19568Y36963D01*
X19650Y36941D01*
X19737Y36928D01*
X19828Y36923D01*
X19985Y36932D01*
X20131Y36958D01*
X20265Y37002D01*
X20388Y37059D01*
X20501Y37131D01*
X20601Y37216D01*
X20691Y37313D01*
X20771Y37420D01*
X20841Y37536D01*
X20901Y37661D01*
X20951Y37794D01*
X20992Y37933D01*
X21022Y38076D01*
X21045Y38223D01*
X21057Y38373D01*
X21057Y38721D01*
X21036Y38972D01*
X20994Y39216D01*
X20965Y39337D01*
X20910Y39520D01*
X20407Y39485D01*
X20407Y39485D01*
X20407Y39485D01*
G37*
G36*
X18759Y32668D02*
X18542Y32694D01*
X18341Y32736D01*
X18154Y32794D01*
X17984Y32869D01*
X17829Y32959D01*
X17689Y33064D01*
X17563Y33185D01*
X17454Y33321D01*
X17358Y33470D01*
X17277Y33634D01*
X17213Y33812D01*
X17161Y34002D01*
X17125Y34207D01*
X17104Y34424D01*
X17097Y35853D01*
X18978Y35853D01*
X18978Y35215D01*
X17570Y35215D01*
X17576Y34551D01*
X17594Y34395D01*
X17625Y34249D01*
X17666Y34113D01*
X17719Y33988D01*
X17784Y33874D01*
X17859Y33770D01*
X17945Y33678D01*
X18042Y33596D01*
X18148Y33525D01*
X18265Y33464D01*
X18392Y33414D01*
X18528Y33376D01*
X18674Y33348D01*
X18828Y33331D01*
X18991Y33326D01*
X19179Y33332D01*
X19354Y33352D01*
X19517Y33384D01*
X19668Y33429D01*
X19805Y33487D01*
X19931Y33557D01*
X20044Y33639D01*
X20146Y33733D01*
X20235Y33839D01*
X20312Y33956D01*
X20376Y34084D01*
X20429Y34225D01*
X20471Y34376D01*
X20501Y34538D01*
X20518Y34710D01*
X20524Y35215D01*
X18978Y35215D01*
X18978Y35853D01*
X20997Y35853D01*
X20990Y34593D01*
X20966Y34367D01*
X20929Y34151D01*
X20875Y33948D01*
X20805Y33756D01*
X20721Y33577D01*
X20620Y33412D01*
X20503Y33262D01*
X20371Y33126D01*
X20223Y33007D01*
X20058Y32903D01*
X19877Y32818D01*
X19680Y32749D01*
X19467Y32700D01*
X19238Y32669D01*
X18991Y32659D01*
X18759Y32668D01*
G37*
G36*
X17472Y31195D02*
X17425Y31202D01*
X17381Y31214D01*
X17338Y31229D01*
X17297Y31249D01*
X17259Y31272D01*
X17223Y31299D01*
X17189Y31330D01*
X17159Y31363D01*
X17132Y31399D01*
X17108Y31438D01*
X17089Y31479D01*
X17073Y31521D01*
X17062Y31566D01*
X17054Y31613D01*
X17053Y31661D01*
X17054Y31709D01*
X17062Y31755D01*
X17073Y31800D01*
X17089Y31843D01*
X17108Y31884D01*
X17132Y31923D01*
X17159Y31959D01*
X17189Y31992D01*
X17223Y32023D01*
X17259Y32049D01*
X17297Y32073D01*
X17338Y32093D01*
X17381Y32109D01*
X17425Y32120D01*
X17472Y32127D01*
X17519Y32130D01*
X17519Y32053D01*
X17479Y32051D01*
X17439Y32045D01*
X17402Y32036D01*
X17365Y32023D01*
X17331Y32006D01*
X17297Y31987D01*
X17267Y31964D01*
X17238Y31939D01*
X17212Y31911D01*
X17189Y31881D01*
X17169Y31849D01*
X17152Y31815D01*
X17138Y31778D01*
X17128Y31740D01*
X17123Y31701D01*
X17120Y31661D01*
X17123Y31620D01*
X17128Y31582D01*
X17139Y31544D01*
X17152Y31508D01*
X17169Y31474D01*
X17189Y31441D01*
X17213Y31411D01*
X17239Y31383D01*
X17267Y31358D01*
X17298Y31335D01*
X17331Y31316D01*
X17366Y31299D01*
X17402Y31287D01*
X17440Y31277D01*
X17479Y31271D01*
X17519Y31269D01*
X17560Y31271D01*
X17599Y31277D01*
X17637Y31287D01*
X17674Y31299D01*
X17709Y31316D01*
X17742Y31335D01*
X17773Y31358D01*
X17802Y31383D01*
X17828Y31411D01*
X17851Y31441D01*
X17872Y31474D01*
X17889Y31508D01*
X17903Y31544D01*
X17913Y31582D01*
X17919Y31620D01*
X17921Y31661D01*
X17921Y31682D01*
X17919Y31701D01*
X17913Y31740D01*
X17903Y31778D01*
X17889Y31815D01*
X17872Y31849D01*
X17851Y31881D01*
X17828Y31911D01*
X17803Y31939D01*
X17773Y31964D01*
X17742Y31987D01*
X17708Y32006D01*
X17673Y32023D01*
X17637Y32036D01*
X17599Y32045D01*
X17560Y32051D01*
X17519Y32053D01*
X17519Y32130D01*
X17555Y32128D01*
X17590Y32124D01*
X17626Y32118D01*
X17659Y32109D01*
X17691Y32097D01*
X17723Y32084D01*
X17753Y32067D01*
X17782Y32049D01*
X17809Y32030D01*
X17835Y32008D01*
X17859Y31985D01*
X17882Y31960D01*
X17903Y31933D01*
X17921Y31905D01*
X17938Y31875D01*
X17952Y31843D01*
X17968Y31800D01*
X17980Y31754D01*
X17987Y31709D01*
X17989Y31661D01*
X17986Y31613D01*
X17979Y31566D01*
X17968Y31521D01*
X17952Y31479D01*
X17932Y31438D01*
X17909Y31399D01*
X17882Y31363D01*
X17851Y31330D01*
X17818Y31299D01*
X17781Y31272D01*
X17742Y31249D01*
X17702Y31229D01*
X17659Y31214D01*
X17614Y31202D01*
X17567Y31195D01*
X17519Y31193D01*
X17472Y31195D01*
G37*
G36*
X17592Y31527D02*
X17579Y31534D01*
X17567Y31541D01*
X17556Y31549D01*
X17547Y31558D01*
X17539Y31569D01*
X17532Y31581D01*
X17527Y31595D01*
X17523Y31611D01*
X17517Y31584D01*
X17508Y31559D01*
X17495Y31536D01*
X17479Y31516D01*
X17461Y31499D01*
X17439Y31485D01*
X17416Y31477D01*
X17391Y31474D01*
X17355Y31478D01*
X17325Y31489D01*
X17301Y31506D01*
X17281Y31530D01*
X17266Y31557D01*
X17256Y31588D01*
X17250Y31622D01*
X17248Y31658D01*
X17248Y31824D01*
X17399Y31824D01*
X17399Y31754D01*
X17310Y31754D01*
X17311Y31666D01*
X17313Y31640D01*
X17317Y31616D01*
X17324Y31594D01*
X17335Y31575D01*
X17349Y31561D01*
X17368Y31552D01*
X17392Y31549D01*
X17417Y31552D01*
X17438Y31561D01*
X17454Y31575D01*
X17465Y31593D01*
X17474Y31615D01*
X17481Y31639D01*
X17483Y31664D01*
X17484Y31754D01*
X17399Y31754D01*
X17399Y31824D01*
X17794Y31824D01*
X17794Y31754D01*
X17547Y31754D01*
X17548Y31681D01*
X17551Y31661D01*
X17555Y31645D01*
X17563Y31630D01*
X17572Y31620D01*
X17585Y31609D01*
X17600Y31600D01*
X17794Y31511D01*
X17794Y31435D01*
X17592Y31527D01*
X17592Y31527D01*
G37*
G36*
X20892Y26112D02*
X20935Y26220D01*
X20970Y26335D01*
X21000Y26455D01*
X21040Y26703D01*
X21059Y26949D01*
X21062Y27066D01*
X21053Y27294D01*
X21027Y27510D01*
X20984Y27717D01*
X20923Y27912D01*
X20847Y28094D01*
X20755Y28264D01*
X20648Y28421D01*
X20525Y28563D01*
X20388Y28691D01*
X20236Y28804D01*
X20071Y28901D01*
X19892Y28982D01*
X19700Y29046D01*
X19496Y29093D01*
X19279Y29121D01*
X19050Y29130D01*
X18831Y29121D01*
X18620Y29091D01*
X18421Y29042D01*
X18232Y28976D01*
X18055Y28892D01*
X17889Y28792D01*
X17736Y28676D01*
X17597Y28546D01*
X17471Y28401D01*
X17360Y28243D01*
X17264Y28073D01*
X17185Y27892D01*
X17121Y27699D01*
X17075Y27497D01*
X17047Y27285D01*
X17038Y27066D01*
X17047Y26832D01*
X17074Y26587D01*
X17119Y26345D01*
X17150Y26231D01*
X17184Y26124D01*
X17698Y26159D01*
X17660Y26253D01*
X17626Y26353D01*
X17599Y26457D01*
X17557Y26674D01*
X17537Y26891D01*
X17535Y26996D01*
X17543Y27162D01*
X17564Y27321D01*
X17600Y27470D01*
X17649Y27610D01*
X17711Y27741D01*
X17785Y27861D01*
X17869Y27972D01*
X17966Y28072D01*
X18072Y28162D01*
X18188Y28240D01*
X18312Y28307D01*
X18445Y28363D01*
X18586Y28406D01*
X18735Y28438D01*
X18889Y28458D01*
X19050Y28464D01*
X19215Y28458D01*
X19373Y28440D01*
X19525Y28409D01*
X19667Y28367D01*
X19801Y28314D01*
X19925Y28248D01*
X20040Y28172D01*
X20145Y28084D01*
X20240Y27986D01*
X20322Y27877D01*
X20394Y27758D01*
X20455Y27627D01*
X20502Y27487D01*
X20537Y27337D01*
X20557Y27178D01*
X20564Y27008D01*
X20555Y26784D01*
X20526Y26565D01*
X20502Y26457D01*
X20474Y26351D01*
X20417Y26198D01*
X20395Y26148D01*
X20892Y26112D01*
X20892Y26112D01*
G37*
G36*
X20997Y25264D02*
X17097Y25264D01*
X17097Y24627D01*
X20997Y24627D01*
X20997Y25264D01*
X20997Y25264D01*
G37*
G36*
X19577Y21357D02*
X19472Y21404D01*
X19378Y21458D01*
X19334Y21487D01*
X19292Y21518D01*
X19254Y21551D01*
X19218Y21585D01*
X19184Y21621D01*
X19155Y21660D01*
X19128Y21699D01*
X19104Y21742D01*
X19084Y21786D01*
X19067Y21832D01*
X19053Y21880D01*
X19044Y21930D01*
X19026Y21840D01*
X19003Y21751D01*
X18973Y21666D01*
X18937Y21583D01*
X18896Y21506D01*
X18848Y21432D01*
X18796Y21363D01*
X18737Y21299D01*
X18674Y21241D01*
X18606Y21189D01*
X18533Y21144D01*
X18456Y21106D01*
X18374Y21077D01*
X18288Y21054D01*
X18197Y21041D01*
X18102Y21036D01*
X17955Y21044D01*
X17823Y21068D01*
X17703Y21106D01*
X17598Y21159D01*
X17503Y21223D01*
X17421Y21300D01*
X17350Y21386D01*
X17290Y21482D01*
X17239Y21584D01*
X17197Y21695D01*
X17163Y21811D01*
X17138Y21931D01*
X17106Y22183D01*
X17097Y23597D01*
X18170Y23597D01*
X18170Y22972D01*
X17558Y22972D01*
X17563Y22379D01*
X17580Y22218D01*
X17594Y22143D01*
X17613Y22071D01*
X17636Y22004D01*
X17665Y21942D01*
X17700Y21886D01*
X17742Y21836D01*
X17789Y21792D01*
X17845Y21754D01*
X17908Y21724D01*
X17979Y21703D01*
X18059Y21689D01*
X18149Y21685D01*
X18238Y21690D01*
X18320Y21706D01*
X18395Y21731D01*
X18462Y21764D01*
X18522Y21805D01*
X18576Y21854D01*
X18624Y21909D01*
X18666Y21969D01*
X18701Y22035D01*
X18732Y22105D01*
X18757Y22179D01*
X18777Y22255D01*
X18791Y22333D01*
X18802Y22413D01*
X18810Y22972D01*
X18170Y22972D01*
X18170Y23597D01*
X20997Y23597D01*
X20997Y22972D01*
X19278Y22972D01*
X19283Y22516D01*
X19291Y22455D01*
X19301Y22398D01*
X19316Y22346D01*
X19334Y22298D01*
X19356Y22254D01*
X19383Y22213D01*
X19415Y22175D01*
X19451Y22139D01*
X19492Y22106D01*
X19540Y22073D01*
X19592Y22043D01*
X19715Y21983D01*
X20997Y21474D01*
X20997Y20778D01*
X19577Y21357D01*
X19577Y21357D01*
G37*
G36*
X20892Y17327D02*
X20935Y17435D01*
X20970Y17550D01*
X21000Y17670D01*
X21040Y17918D01*
X21059Y18164D01*
X21062Y18281D01*
X21053Y18509D01*
X21027Y18725D01*
X20984Y18932D01*
X20923Y19127D01*
X20847Y19309D01*
X20755Y19479D01*
X20648Y19636D01*
X20525Y19779D01*
X20388Y19906D01*
X20236Y20019D01*
X20071Y20117D01*
X19892Y20197D01*
X19700Y20262D01*
X19496Y20308D01*
X19279Y20336D01*
X19050Y20345D01*
X18831Y20336D01*
X18620Y20306D01*
X18421Y20257D01*
X18232Y20191D01*
X18055Y20107D01*
X17889Y20007D01*
X17736Y19891D01*
X17597Y19761D01*
X17471Y19616D01*
X17360Y19458D01*
X17264Y19288D01*
X17185Y19107D01*
X17121Y18914D01*
X17075Y18713D01*
X17047Y18500D01*
X17038Y18281D01*
X17047Y18047D01*
X17074Y17801D01*
X17119Y17560D01*
X17150Y17446D01*
X17184Y17339D01*
X17698Y17374D01*
X17660Y17468D01*
X17626Y17568D01*
X17599Y17672D01*
X17557Y17889D01*
X17537Y18106D01*
X17535Y18211D01*
X17543Y18378D01*
X17564Y18536D01*
X17600Y18685D01*
X17649Y18825D01*
X17711Y18956D01*
X17785Y19076D01*
X17869Y19187D01*
X17966Y19287D01*
X18072Y19377D01*
X18188Y19455D01*
X18312Y19522D01*
X18445Y19578D01*
X18586Y19621D01*
X18735Y19653D01*
X18889Y19673D01*
X19050Y19679D01*
X19215Y19673D01*
X19373Y19655D01*
X19525Y19624D01*
X19667Y19582D01*
X19801Y19529D01*
X19925Y19463D01*
X20040Y19386D01*
X20145Y19299D01*
X20240Y19201D01*
X20322Y19092D01*
X20394Y18973D01*
X20455Y18842D01*
X20502Y18702D01*
X20537Y18552D01*
X20557Y18392D01*
X20564Y18167D01*
X20550Y17944D01*
X20515Y17726D01*
X20489Y17619D01*
X20456Y17515D01*
X20395Y17362D01*
X20892Y17327D01*
X20892Y17327D01*
G37*
G36*
X19582Y15889D02*
X19686Y15885D01*
X19787Y15876D01*
X19883Y15858D01*
X19975Y15833D01*
X20062Y15803D01*
X20143Y15764D01*
X20217Y15719D01*
X20286Y15667D01*
X20349Y15607D01*
X20403Y15541D01*
X20451Y15466D01*
X20491Y15385D01*
X20522Y15297D01*
X20546Y15202D01*
X20560Y15098D01*
X20564Y14989D01*
X20560Y14878D01*
X20546Y14774D01*
X20523Y14678D01*
X20492Y14590D01*
X20452Y14508D01*
X20405Y14434D01*
X20350Y14367D01*
X20288Y14307D01*
X20220Y14254D01*
X20145Y14208D01*
X20064Y14169D01*
X19977Y14138D01*
X19885Y14113D01*
X19789Y14095D01*
X19687Y14085D01*
X17097Y14082D01*
X17097Y13444D01*
X19749Y13451D01*
X19910Y13474D01*
X20063Y13509D01*
X20205Y13558D01*
X20338Y13619D01*
X20460Y13694D01*
X20572Y13780D01*
X20672Y13877D01*
X20761Y13985D01*
X20840Y14103D01*
X20907Y14230D01*
X20962Y14367D01*
X21005Y14512D01*
X21037Y14666D01*
X21056Y14827D01*
X21062Y14994D01*
X21056Y15161D01*
X21038Y15321D01*
X21008Y15474D01*
X20966Y15618D01*
X20913Y15754D01*
X20847Y15880D01*
X20770Y15996D01*
X20683Y16102D01*
X20584Y16198D01*
X20474Y16282D01*
X20354Y16355D01*
X20223Y16415D01*
X20081Y16463D01*
X19928Y16498D01*
X19766Y16520D01*
X17097Y16527D01*
X17097Y15889D01*
X19582Y15889D01*
X19582Y15889D01*
G37*
G36*
X20997Y12374D02*
X17097Y12374D01*
X17097Y11736D01*
X20997Y11736D01*
X20997Y12374D01*
X20997Y12374D01*
G37*
G36*
X20997Y9841D02*
X17623Y9841D01*
X17623Y11029D01*
X17097Y11029D01*
X17097Y8011D01*
X17623Y8011D01*
X17623Y9204D01*
X20997Y9204D01*
X20997Y9841D01*
G37*
G36*
X20360Y7403D02*
X20415Y7288D01*
X20461Y7176D01*
X20500Y7064D01*
X20530Y6949D01*
X20554Y6832D01*
X20570Y6713D01*
X20582Y6461D01*
X20580Y6391D01*
X20573Y6320D01*
X20563Y6252D01*
X20547Y6186D01*
X20528Y6121D01*
X20502Y6060D01*
X20472Y6000D01*
X20436Y5946D01*
X20395Y5896D01*
X20348Y5850D01*
X20295Y5810D01*
X20237Y5776D01*
X20172Y5749D01*
X20101Y5729D01*
X20023Y5716D01*
X19939Y5711D01*
X19872Y5715D01*
X19810Y5726D01*
X19752Y5743D01*
X19697Y5766D01*
X19647Y5795D01*
X19599Y5829D01*
X19555Y5868D01*
X19514Y5912D01*
X19474Y5961D01*
X19400Y6068D01*
X19055Y6759D01*
X18978Y6894D01*
X18890Y7019D01*
X18842Y7076D01*
X18790Y7130D01*
X18736Y7180D01*
X18676Y7225D01*
X18613Y7265D01*
X18545Y7300D01*
X18472Y7330D01*
X18394Y7353D01*
X18311Y7370D01*
X18221Y7381D01*
X18126Y7385D01*
X17986Y7377D01*
X17858Y7355D01*
X17739Y7319D01*
X17630Y7270D01*
X17531Y7210D01*
X17442Y7140D01*
X17363Y7060D01*
X17293Y6973D01*
X17231Y6877D01*
X17178Y6777D01*
X17134Y6670D01*
X17099Y6561D01*
X17072Y6448D01*
X17053Y6333D01*
X17042Y6219D01*
X17043Y5926D01*
X17062Y5698D01*
X17096Y5480D01*
X17160Y5220D01*
X17675Y5255D01*
X17636Y5352D01*
X17604Y5452D01*
X17577Y5554D01*
X17538Y5762D01*
X17519Y5969D01*
X17519Y6131D01*
X17525Y6193D01*
X17533Y6255D01*
X17546Y6317D01*
X17563Y6376D01*
X17585Y6435D01*
X17611Y6490D01*
X17642Y6543D01*
X17678Y6591D01*
X17719Y6634D01*
X17766Y6674D01*
X17819Y6707D01*
X17877Y6733D01*
X17942Y6754D01*
X18013Y6767D01*
X18091Y6770D01*
X18149Y6768D01*
X18203Y6759D01*
X18253Y6745D01*
X18301Y6726D01*
X18344Y6702D01*
X18386Y6674D01*
X18423Y6642D01*
X18459Y6606D01*
X18494Y6567D01*
X18526Y6525D01*
X18584Y6433D01*
X18922Y5737D01*
X19012Y5581D01*
X19059Y5509D01*
X19111Y5441D01*
X19166Y5378D01*
X19225Y5319D01*
X19288Y5266D01*
X19356Y5219D01*
X19431Y5178D01*
X19511Y5144D01*
X19598Y5117D01*
X19692Y5097D01*
X19794Y5084D01*
X19904Y5080D01*
X20048Y5087D01*
X20182Y5108D01*
X20306Y5141D01*
X20420Y5186D01*
X20525Y5243D01*
X20619Y5310D01*
X20705Y5388D01*
X20781Y5475D01*
X20848Y5571D01*
X20905Y5675D01*
X20953Y5786D01*
X20993Y5904D01*
X21023Y6029D01*
X21045Y6159D01*
X21057Y6293D01*
X21061Y6489D01*
X21047Y6731D01*
X21014Y6984D01*
X20959Y7242D01*
X20904Y7431D01*
X20360Y7403D01*
X20360Y7403D01*
G37*
M02*
