%
M48
METRIC,TZ,000.000
ICI,OFF
T1C0.813
T2C0.8
T3C1.016
T4C1.02
T5C0.813
T6C2.54
%
T1
X6025Y1301
T1
X8565Y1301
T1
X11105Y1301
T1
X13645Y1301
T1
X16185Y1301
T1
X18725Y1301
T1
X23805Y1301
T1
X26345Y1301
T1
X28885Y1301
T1
X31425Y1301
T1
X33965Y1301
T1
X36505Y1301
T1
X18725Y49494
T1
X21265Y49494
T1
X23805Y49494
T1
X26345Y49494
T1
X28885Y49494
T1
X31425Y49494
T1
X33965Y49494
T1
X36505Y49494
T2
X10948Y37020
T2
X10948Y33020
T3
X27940Y37971
T3
X27940Y40511
T3
X27940Y43051
T3
X27940Y12571
T3
X27940Y15111
T3
X27940Y17651
T4
X27940Y25674
T4
X27940Y28214
T4
X27940Y30754
T5
X21265Y40640
T5
X13645Y40640
T5
X21265Y28214
T5
X13645Y28214
T5
X21265Y15388
T5
X13645Y15388
T5
X11105Y17651
T5
X11105Y25271
T6
X21265Y1665
M30
