G75*
G71*
%OFA0B0*%
%FSLAX23Y23*%
%IPPOS*%
%LPD*%
%ADD10C,0.1*%
%ADD11C,0.111*%
%ADD12C,0.05*%
%ADD13C,0.203*%
%ADD14C,0.61*%
%ADD15C,0.152*%
%ADD16C,0*%
%ADD17C,0.588*%
%ADD18C,0.176*%
%ADD19C,0.235*%
%ADD20C,0.25*%
%ADD21C,0.118*%
%LPD*%D10*
X0Y0D02*
X0Y100D01*
X0Y200D01*
X0Y300D01*
X0Y400D01*
X0Y500D01*
X0Y600D01*
X0Y700D01*
X0Y800D01*
X0Y900D01*
X0Y1000D01*
X0Y1100D01*
X0Y1200D01*
X0Y1300D01*
X0Y1400D01*
X0Y1500D01*
X0Y1600D01*
X0Y1700D01*
X0Y1800D01*
X0Y1900D01*
X0Y2000D01*
X0Y2100D01*
X0Y2200D01*
X0Y2300D01*
X0Y2400D01*
X0Y2500D01*
X0Y2600D01*
X0Y2700D01*
X0Y2800D01*
X0Y2900D01*
X0Y3000D01*
X0Y3100D01*
X0Y3200D01*
X0Y3300D01*
X0Y3400D01*
X0Y3500D01*
X0Y3600D01*
X0Y3700D01*
X0Y3800D01*
X0Y3900D01*
X0Y4000D01*
X0Y4100D01*
X0Y4200D01*
X0Y4300D01*
X0Y4400D01*
X0Y4500D01*
X0Y4600D01*
X0Y4700D01*
X0Y4800D01*
X0Y4900D01*
X0Y5000D01*
X0Y5100D01*
X0Y5200D01*
X0Y5300D01*
X0Y5400D01*
X0Y5500D01*
X0Y5600D01*
X0Y5700D01*
X0Y5800D01*
X0Y5900D01*
X0Y6000D01*
X0Y6100D01*
X0Y6200D01*
X0Y6300D01*
X0Y6400D01*
X0Y6500D01*
X0Y6600D01*
X0Y6700D01*
X0Y6800D01*
X0Y6900D01*
X0Y7000D01*
X0Y7100D01*
X0Y7200D01*
X0Y7300D01*
X0Y7400D01*
X0Y7500D01*
X0Y7600D01*
X0Y7700D01*
X0Y7800D01*
X0Y7900D01*
X0Y8000D01*
X0Y8100D01*
X0Y8200D01*
X0Y8300D01*
X0Y8400D01*
X0Y8500D01*
X0Y8600D01*
X0Y8700D01*
X0Y8800D01*
X0Y8900D01*
X0Y9000D01*
X0Y9100D01*
X0Y9200D01*
X0Y9300D01*
X0Y9400D01*
X0Y9500D01*
X0Y9600D01*
X0Y9700D01*
X0Y9800D01*
X0Y9900D01*
X0Y10000D01*
X0Y10100D01*
X0Y10200D01*
X0Y10300D01*
X0Y10400D01*
X0Y10500D01*
X0Y10600D01*
X0Y10700D01*
X0Y10800D01*
X0Y10900D01*
X0Y11000D01*
X0Y11100D01*
X0Y11200D01*
X0Y11300D01*
X0Y11400D01*
X0Y11500D01*
X0Y11600D01*
X0Y11700D01*
X0Y11800D01*
X0Y11900D01*
X0Y12000D01*
X0Y12100D01*
X0Y12200D01*
X0Y12300D01*
X0Y12400D01*
X0Y12500D01*
X0Y12600D01*
X0Y12700D01*
X0Y12800D01*
X0Y12900D01*
X0Y13000D01*
X0Y13100D01*
X0Y13200D01*
X0Y13300D01*
X0Y13400D01*
X0Y13500D01*
X0Y13600D01*
X0Y13700D01*
X0Y13800D01*
X0Y13900D01*
X0Y14000D01*
X0Y14100D01*
X0Y14200D01*
X0Y14300D01*
X0Y14400D01*
X0Y14500D01*
X0Y14600D01*
X0Y14700D01*
X0Y14800D01*
X0Y14900D01*
X0Y15000D01*
X0Y15100D01*
X0Y15200D01*
X0Y15300D01*
X0Y15400D01*
X0Y15500D01*
X0Y15600D01*
X0Y15700D01*
X0Y15800D01*
X0Y15900D01*
X0Y16000D01*
X0Y16100D01*
X0Y16200D01*
X0Y16300D01*
X0Y16400D01*
X0Y16500D01*
X0Y16600D01*
X0Y16700D01*
X0Y16800D01*
X0Y16900D01*
X0Y17000D01*
X0Y17100D01*
X0Y17200D01*
X0Y17300D01*
X0Y17400D01*
X0Y17500D01*
X0Y17600D01*
X0Y17700D01*
X0Y17800D01*
X0Y17900D01*
X0Y18000D01*
X0Y18100D01*
X0Y18200D01*
X0Y18300D01*
X0Y18400D01*
X0Y18500D01*
X0Y18600D01*
X0Y18700D01*
X0Y18800D01*
X0Y18900D01*
X0Y19000D01*
X0Y19100D01*
X0Y19200D01*
X0Y19300D01*
X0Y19400D01*
X0Y19500D01*
X0Y19600D01*
X0Y19700D01*
X0Y19800D01*
X0Y19900D01*
X0Y20000D01*
X0Y20100D01*
X0Y20200D01*
X0Y20300D01*
X0Y20400D01*
X0Y20500D01*
X0Y20600D01*
X0Y20700D01*
X0Y20800D01*
X0Y20900D01*
X0Y21000D01*
X0Y21100D01*
X0Y21200D01*
X0Y21300D01*
X0Y21400D01*
X0Y21500D01*
X0Y21600D01*
X0Y21700D01*
X0Y21800D01*
X0Y21900D01*
X0Y22000D01*
X0Y22100D01*
X0Y22200D01*
X0Y22300D01*
X0Y22400D01*
X0Y22500D01*
X0Y22600D01*
X0Y22700D01*
X0Y22800D01*
X0Y22900D01*
X0Y23000D01*
X0Y23100D01*
X0Y23200D01*
X0Y23300D01*
X0Y23400D01*
X0Y23500D01*
X0Y23600D01*
X0Y23700D01*
X0Y23800D01*
X0Y23900D01*
X0Y24000D01*
X0Y24100D01*
X0Y24200D01*
X0Y24300D01*
X0Y24400D01*
X0Y24500D01*
X0Y24600D01*
X0Y24700D01*
X0Y24800D01*
X0Y24900D01*
X0Y25000D01*
X0Y25100D01*
X0Y25200D01*
X0Y25300D01*
X0Y25400D01*
X0Y25500D01*
X0Y25600D01*
X0Y25700D01*
X0Y25800D01*
X0Y25900D01*
X0Y26000D01*
X0Y26100D01*
X0Y26200D01*
X0Y26300D01*
X0Y26400D01*
X0Y26500D01*
X0Y26600D01*
X0Y26700D01*
X0Y26800D01*
X0Y26900D01*
X0Y27000D01*
X0Y27100D01*
X0Y27200D01*
X0Y27300D01*
X0Y27400D01*
X0Y27500D01*
X0Y27600D01*
X0Y27700D01*
X0Y27800D01*
X0Y27900D01*
X0Y28000D01*
X0Y28100D01*
X0Y28200D01*
X0Y28300D01*
X0Y28400D01*
X0Y28500D01*
X0Y28600D01*
X0Y28700D01*
X0Y28800D01*
X0Y28900D01*
X0Y29000D01*
X0Y29100D01*
X0Y29200D01*
X0Y29300D01*
X0Y29400D01*
X0Y29500D01*
X0Y29600D01*
X0Y29700D01*
X0Y29800D01*
X0Y29900D01*
X0Y30000D01*
X0Y30100D01*
X0Y30200D01*
X0Y30300D01*
X0Y30400D01*
X0Y30500D01*
X0Y30600D01*
X0Y30700D01*
X0Y30800D01*
X0Y30900D01*
X0Y31000D01*
X0Y31100D01*
X0Y31200D01*
X0Y31300D01*
X0Y31400D01*
X0Y31500D01*
X0Y31600D01*
X0Y31700D01*
X0Y31800D01*
X0Y31900D01*
X0Y32000D01*
X0Y32100D01*
X0Y32200D01*
X0Y32300D01*
X0Y32400D01*
X0Y32500D01*
X0Y32600D01*
X0Y32700D01*
X0Y32800D01*
X0Y32900D01*
X0Y33000D01*
X0Y33100D01*
X0Y33200D01*
X0Y33300D01*
X0Y33400D01*
X0Y33500D01*
X0Y33600D01*
X0Y33700D01*
X0Y33800D01*
X0Y33900D01*
X0Y34000D01*
X0Y34100D01*
X0Y34200D01*
X0Y34300D01*
X0Y34400D01*
X0Y34500D01*
X0Y34600D01*
X0Y34700D01*
X0Y34800D01*
X0Y34900D01*
X0Y35000D01*
X0Y35100D01*
X0Y35200D01*
X0Y35300D01*
X0Y35400D01*
X0Y35500D01*
X0Y35600D01*
X0Y35700D01*
X0Y35800D01*
X0Y35900D01*
X0Y36000D01*
X0Y36100D01*
X0Y36200D01*
X0Y36300D01*
X0Y36400D01*
X0Y36500D01*
X0Y36600D01*
X0Y36700D01*
X0Y36800D01*
X0Y36900D01*
X0Y37000D01*
X0Y37100D01*
X0Y37200D01*
X0Y37300D01*
X0Y37400D01*
X0Y37500D01*
X0Y37600D01*
X0Y37700D01*
X0Y37800D01*
X0Y37900D01*
X0Y38000D01*
X0Y38100D01*
X0Y38200D01*
X0Y38300D01*
X0Y38400D01*
X0Y38500D01*
X0Y38600D01*
X0Y38700D01*
X0Y38800D01*
X0Y38900D01*
X0Y39000D01*
X0Y39100D01*
X0Y39200D01*
X0Y39300D01*
X0Y39400D01*
X0Y39500D01*
X0Y39600D01*
X0Y39700D01*
X0Y39800D01*
X0Y39900D01*
X0Y40000D01*
X0Y40100D01*
X0Y40200D01*
X0Y40300D01*
X0Y40400D01*
X0Y40500D01*
X0Y40600D01*
X0Y40700D01*
X0Y40800D01*
X0Y40900D01*
X0Y41000D01*
X0Y41100D01*
X0Y41200D01*
X0Y41300D01*
X0Y41400D01*
X0Y41500D01*
X0Y41600D01*
X0Y41700D01*
X0Y41800D01*
X0Y41900D01*
X0Y42000D01*
X0Y42100D01*
X0Y42200D01*
X0Y42300D01*
X0Y42400D01*
X0Y42500D01*
X0Y42600D01*
X0Y42700D01*
X0Y42800D01*
X0Y42900D01*
X0Y43000D01*
X0Y43100D01*
X0Y43200D01*
X0Y43300D01*
X0Y43400D01*
X0Y43500D01*
X0Y43600D01*
X0Y43700D01*
X0Y43800D01*
X0Y43900D01*
X0Y44000D01*
X0Y44100D01*
X0Y44200D01*
X0Y44300D01*
X0Y44400D01*
X0Y44500D01*
X0Y44600D01*
X0Y44700D01*
X0Y44800D01*
X0Y44900D01*
X0Y45000D01*
X0Y45100D01*
X0Y45200D01*
X0Y45300D01*
X0Y45400D01*
X0Y45500D01*
X0Y45600D01*
X0Y45700D01*
X0Y45800D01*
X0Y45900D01*
X0Y46000D01*
X0Y46100D01*
X0Y46200D01*
X0Y46300D01*
X0Y46400D01*
X0Y46500D01*
X0Y46600D01*
X0Y46700D01*
X0Y46800D01*
X0Y46900D01*
X0Y47000D01*
X0Y47100D01*
X0Y47200D01*
X0Y47300D01*
X0Y47400D01*
X0Y47500D01*
X0Y47600D01*
X0Y47700D01*
X0Y47800D01*
X0Y47900D01*
X0Y48000D01*
X0Y48100D01*
X0Y48200D01*
X0Y48300D01*
X0Y48400D01*
X0Y48500D01*
X0Y48600D01*
X0Y48700D01*
X0Y48800D01*
X0Y48900D01*
X0Y49000D01*
X0Y49100D01*
X0Y49200D01*
X0Y49300D01*
X0Y49400D01*
X0Y49500D01*
X0Y49600D01*
X0Y49700D01*
X0Y49800D01*
X0Y49900D01*
X0Y50000D01*
X0Y50100D01*
X0Y50200D01*
X0Y50300D01*
X0Y50400D01*
X0Y50500D01*
X0Y50600D01*
X0Y50700D01*
X0Y50800D01*
X100Y50800D01*
X200Y50800D01*
X300Y50800D01*
X400Y50800D01*
X500Y50800D01*
X600Y50800D01*
X699Y50800D01*
X799Y50800D01*
X899Y50800D01*
X999Y50800D01*
X1099Y50800D01*
X1199Y50800D01*
X1299Y50800D01*
X1399Y50800D01*
X1499Y50800D01*
X1599Y50800D01*
X1699Y50800D01*
X1799Y50800D01*
X1899Y50800D01*
X1999Y50800D01*
X2098Y50800D01*
X2198Y50800D01*
X2298Y50800D01*
X2398Y50800D01*
X2498Y50800D01*
X2598Y50800D01*
X2698Y50800D01*
X2798Y50800D01*
X2898Y50800D01*
X2998Y50800D01*
X3098Y50800D01*
X3198Y50800D01*
X3298Y50800D01*
X3397Y50800D01*
X3497Y50800D01*
X3597Y50800D01*
X3697Y50800D01*
X3797Y50800D01*
X3897Y50800D01*
X3997Y50800D01*
X4097Y50800D01*
X4197Y50800D01*
X4297Y50800D01*
X4397Y50800D01*
X4497Y50800D01*
X4597Y50800D01*
X4696Y50800D01*
X4796Y50800D01*
X4896Y50800D01*
X4996Y50800D01*
X5096Y50800D01*
X5196Y50800D01*
X5296Y50800D01*
X5396Y50800D01*
X5496Y50800D01*
X5596Y50800D01*
X5696Y50800D01*
X5796Y50800D01*
X5896Y50800D01*
X5995Y50800D01*
X6095Y50800D01*
X6195Y50800D01*
X6295Y50800D01*
X6395Y50800D01*
X6495Y50800D01*
X6595Y50800D01*
X6695Y50800D01*
X6795Y50800D01*
X6895Y50800D01*
X6995Y50800D01*
X7095Y50800D01*
X7195Y50800D01*
X7295Y50800D01*
X7394Y50800D01*
X7494Y50800D01*
X7594Y50800D01*
X7694Y50800D01*
X7794Y50800D01*
X7894Y50800D01*
X7994Y50800D01*
X8094Y50800D01*
X8194Y50800D01*
X8294Y50800D01*
X8394Y50800D01*
X8494Y50800D01*
X8594Y50800D01*
X8693Y50800D01*
X8793Y50800D01*
X8893Y50800D01*
X8993Y50800D01*
X9093Y50800D01*
X9193Y50800D01*
X9293Y50800D01*
X9393Y50800D01*
X9493Y50800D01*
X9593Y50800D01*
X9693Y50800D01*
X9793Y50800D01*
X9893Y50800D01*
X9992Y50800D01*
X10092Y50800D01*
X10192Y50800D01*
X10292Y50800D01*
X10392Y50800D01*
X10492Y50800D01*
X10592Y50800D01*
X10692Y50800D01*
X10792Y50800D01*
X10892Y50800D01*
X10992Y50800D01*
X11092Y50800D01*
X11192Y50800D01*
X11292Y50800D01*
X11391Y50800D01*
X11491Y50800D01*
X11591Y50800D01*
X11691Y50800D01*
X11791Y50800D01*
X11891Y50800D01*
X11991Y50800D01*
X12091Y50800D01*
X12191Y50800D01*
X12291Y50800D01*
X12391Y50800D01*
X12491Y50800D01*
X12591Y50800D01*
X12690Y50800D01*
X12790Y50800D01*
X12890Y50800D01*
X12990Y50800D01*
X13090Y50800D01*
X13190Y50800D01*
X13290Y50800D01*
X13390Y50800D01*
X13490Y50800D01*
X13590Y50800D01*
X13690Y50800D01*
X13790Y50800D01*
X13890Y50800D01*
X13989Y50800D01*
X14089Y50800D01*
X14189Y50800D01*
X14289Y50800D01*
X14389Y50800D01*
X14489Y50800D01*
X14589Y50800D01*
X14689Y50800D01*
X14789Y50800D01*
X14889Y50800D01*
X14989Y50800D01*
X15089Y50800D01*
X15189Y50800D01*
X15289Y50800D01*
X15388Y50800D01*
X15488Y50800D01*
X15588Y50800D01*
X15688Y50800D01*
X15788Y50800D01*
X15888Y50800D01*
X15988Y50800D01*
X16088Y50800D01*
X16188Y50800D01*
X16288Y50800D01*
X16388Y50800D01*
X16488Y50800D01*
X16588Y50800D01*
X16687Y50800D01*
X16787Y50800D01*
X16887Y50800D01*
X16987Y50800D01*
X17087Y50800D01*
X17187Y50800D01*
X17287Y50800D01*
X17387Y50800D01*
X17487Y50800D01*
X17587Y50800D01*
X17687Y50800D01*
X17787Y50800D01*
X17887Y50800D01*
X17987Y50800D01*
X18086Y50800D01*
X18186Y50800D01*
X18286Y50800D01*
X18386Y50800D01*
X18486Y50800D01*
X18586Y50800D01*
X18686Y50800D01*
X18786Y50800D01*
X18886Y50800D01*
X18986Y50800D01*
X19086Y50800D01*
X19186Y50800D01*
X19286Y50800D01*
X19385Y50800D01*
X19485Y50800D01*
X19585Y50800D01*
X19685Y50800D01*
X19785Y50800D01*
X19885Y50800D01*
X19985Y50800D01*
X20085Y50800D01*
X20185Y50800D01*
X20285Y50800D01*
X20385Y50800D01*
X20485Y50800D01*
X20585Y50800D01*
X20684Y50800D01*
X20784Y50800D01*
X20884Y50800D01*
X20984Y50800D01*
X21084Y50800D01*
X21184Y50800D01*
X21284Y50800D01*
X21384Y50800D01*
X21484Y50800D01*
X21584Y50800D01*
X21684Y50800D01*
X21784Y50800D01*
X21884Y50800D01*
X21984Y50800D01*
X22083Y50800D01*
X22183Y50800D01*
X22283Y50800D01*
X22383Y50800D01*
X22483Y50800D01*
X22583Y50800D01*
X22683Y50800D01*
X22783Y50800D01*
X22883Y50800D01*
X22983Y50800D01*
X23083Y50800D01*
X23183Y50800D01*
X23283Y50800D01*
X23382Y50800D01*
X23482Y50800D01*
X23582Y50800D01*
X23682Y50800D01*
X23782Y50800D01*
X23882Y50800D01*
X23982Y50800D01*
X24082Y50800D01*
X24182Y50800D01*
X24282Y50800D01*
X24382Y50800D01*
X24482Y50800D01*
X24582Y50800D01*
X24682Y50800D01*
X24781Y50800D01*
X24881Y50800D01*
X24981Y50800D01*
X25081Y50800D01*
X25181Y50800D01*
X25281Y50800D01*
X25381Y50800D01*
X25481Y50800D01*
X25581Y50800D01*
X25681Y50800D01*
X25781Y50800D01*
X25881Y50800D01*
X25981Y50800D01*
X26080Y50800D01*
X26180Y50800D01*
X26280Y50800D01*
X26380Y50800D01*
X26480Y50800D01*
X26580Y50800D01*
X26680Y50800D01*
X26780Y50800D01*
X26880Y50800D01*
X26980Y50800D01*
X27080Y50800D01*
X27180Y50800D01*
X27280Y50800D01*
X27379Y50800D01*
X27479Y50800D01*
X27579Y50800D01*
X27679Y50800D01*
X27779Y50800D01*
X27879Y50800D01*
X27979Y50800D01*
X28079Y50800D01*
X28179Y50800D01*
X28279Y50800D01*
X28379Y50800D01*
X28479Y50800D01*
X28579Y50800D01*
X28679Y50800D01*
X28778Y50800D01*
X28878Y50800D01*
X28978Y50800D01*
X29078Y50800D01*
X29178Y50800D01*
X29278Y50800D01*
X29378Y50800D01*
X29478Y50800D01*
X29578Y50800D01*
X29678Y50800D01*
X29778Y50800D01*
X29878Y50800D01*
X29978Y50800D01*
X30077Y50800D01*
X30177Y50800D01*
X30277Y50800D01*
X30377Y50800D01*
X30477Y50800D01*
X30577Y50800D01*
X30677Y50800D01*
X30777Y50800D01*
X30877Y50800D01*
X30977Y50800D01*
X31077Y50800D01*
X31177Y50800D01*
X31277Y50800D01*
X31377Y50800D01*
X31476Y50800D01*
X31576Y50800D01*
X31676Y50800D01*
X31776Y50800D01*
X31876Y50800D01*
X31976Y50800D01*
X32076Y50800D01*
X32176Y50800D01*
X32276Y50800D01*
X32376Y50800D01*
X32476Y50800D01*
X32576Y50800D01*
X32676Y50800D01*
X32775Y50800D01*
X32875Y50800D01*
X32975Y50800D01*
X33075Y50800D01*
X33175Y50800D01*
X33275Y50800D01*
X33375Y50800D01*
X33475Y50800D01*
X33575Y50800D01*
X33675Y50800D01*
X33775Y50800D01*
X33875Y50800D01*
X33975Y50800D01*
X34075Y50800D01*
X34174Y50800D01*
X34274Y50800D01*
X34374Y50800D01*
X34474Y50800D01*
X34574Y50800D01*
X34674Y50800D01*
X34774Y50800D01*
X34874Y50800D01*
X34974Y50800D01*
X35074Y50800D01*
X35174Y50800D01*
X35274Y50800D01*
X35374Y50800D01*
X35473Y50800D01*
X35573Y50800D01*
X35673Y50800D01*
X35773Y50800D01*
X35873Y50800D01*
X35973Y50800D01*
X36073Y50800D01*
X36173Y50800D01*
X36273Y50800D01*
X36373Y50800D01*
X36473Y50800D01*
X36573Y50800D01*
X36673Y50800D01*
X36773Y50800D01*
X36872Y50800D01*
X36972Y50800D01*
X37072Y50800D01*
X37172Y50800D01*
X37272Y50800D01*
X37372Y50800D01*
X37472Y50800D01*
X37572Y50800D01*
X37672Y50800D01*
X37772Y50800D01*
X37772Y50700D01*
X37773Y50600D01*
X37774Y50501D01*
X37774Y50401D01*
X37775Y50301D01*
X37776Y50201D01*
X37776Y50101D01*
X37777Y50002D01*
X37778Y49902D01*
X37778Y49802D01*
X37779Y49702D01*
X37780Y49602D01*
X37780Y49503D01*
X37781Y49403D01*
X37782Y49303D01*
X37782Y49203D01*
X37783Y49103D01*
X37783Y49004D01*
X37784Y48904D01*
X37785Y48804D01*
X37785Y48704D01*
X37786Y48604D01*
X37787Y48505D01*
X37787Y48405D01*
X37788Y48305D01*
X37789Y48205D01*
X37789Y48105D01*
X37790Y48006D01*
X37791Y47906D01*
X37791Y47806D01*
X37792Y47706D01*
X37792Y47606D01*
X37793Y47507D01*
X37794Y47407D01*
X37794Y47307D01*
X37795Y47207D01*
X37796Y47107D01*
X37796Y47007D01*
X37797Y46908D01*
X37798Y46808D01*
X37798Y46708D01*
X37799Y46608D01*
X37800Y46508D01*
X37800Y46409D01*
X37801Y46309D01*
X37801Y46209D01*
X37802Y46109D01*
X37803Y46009D01*
X37803Y45910D01*
X37804Y45810D01*
X37805Y45710D01*
X37805Y45610D01*
X37806Y45510D01*
X37807Y45411D01*
X37807Y45311D01*
X37808Y45211D01*
X37809Y45111D01*
X37809Y45011D01*
X37810Y44912D01*
X37811Y44812D01*
X37811Y44712D01*
X37812Y44612D01*
X37812Y44512D01*
X37813Y44413D01*
X37814Y44313D01*
X37814Y44213D01*
X37815Y44113D01*
X37816Y44013D01*
X37816Y43914D01*
X37817Y43814D01*
X37818Y43714D01*
X37818Y43614D01*
X37819Y43514D01*
X37820Y43415D01*
X37820Y43315D01*
X37821Y43215D01*
X37821Y43115D01*
X37822Y43015D01*
X37823Y42916D01*
X37823Y42816D01*
X37824Y42716D01*
X37825Y42616D01*
X37825Y42516D01*
X37826Y42417D01*
X37827Y42317D01*
X37827Y42217D01*
X37828Y42117D01*
X37829Y42017D01*
X37829Y41918D01*
X37830Y41818D01*
X37831Y41718D01*
X37831Y41618D01*
X37832Y41518D01*
X37832Y41419D01*
X37833Y41319D01*
X37834Y41219D01*
X37834Y41119D01*
X37835Y41019D01*
X37836Y40920D01*
X37836Y40820D01*
X37837Y40720D01*
X37838Y40620D01*
X37838Y40520D01*
X37839Y40420D01*
X37840Y40321D01*
X37840Y40221D01*
X37841Y40121D01*
X37841Y40021D01*
X37842Y39921D01*
X37843Y39822D01*
X37843Y39722D01*
X37844Y39622D01*
X37845Y39522D01*
X37845Y39422D01*
X37846Y39323D01*
X37847Y39223D01*
X37847Y39123D01*
X37848Y39023D01*
X37849Y38923D01*
X37849Y38824D01*
X37850Y38724D01*
X37850Y38624D01*
X37851Y38524D01*
X37852Y38424D01*
X37852Y38325D01*
X37853Y38225D01*
X37854Y38125D01*
X37854Y38025D01*
X37855Y37925D01*
X37856Y37826D01*
X37856Y37726D01*
X37857Y37626D01*
X37858Y37526D01*
X37858Y37426D01*
X37859Y37327D01*
X37860Y37227D01*
X37860Y37127D01*
X37861Y37027D01*
X37861Y36927D01*
X37862Y36828D01*
X37863Y36728D01*
X37863Y36628D01*
X37864Y36528D01*
X37865Y36428D01*
X37865Y36329D01*
X37866Y36229D01*
X37867Y36129D01*
X37867Y36029D01*
X37868Y35929D01*
X37869Y35830D01*
X37869Y35730D01*
X37870Y35630D01*
X37870Y35530D01*
X37871Y35430D01*
X37872Y35331D01*
X37872Y35231D01*
X37873Y35131D01*
X37874Y35031D01*
X37874Y34931D01*
X37875Y34832D01*
X37876Y34732D01*
X37876Y34632D01*
X37877Y34532D01*
X37878Y34432D01*
X37878Y34332D01*
X37879Y34233D01*
X37880Y34133D01*
X37880Y34033D01*
X37881Y33933D01*
X37881Y33833D01*
X37882Y33734D01*
X37883Y33634D01*
X37883Y33534D01*
X37884Y33434D01*
X37885Y33334D01*
X37885Y33235D01*
X37886Y33135D01*
X37887Y33035D01*
X37887Y32935D01*
X37888Y32835D01*
X37889Y32736D01*
X37889Y32636D01*
X37890Y32536D01*
X37890Y32436D01*
X37891Y32336D01*
X37892Y32237D01*
X37892Y32137D01*
X37893Y32037D01*
X37894Y31937D01*
X37894Y31837D01*
X37895Y31738D01*
X37896Y31638D01*
X37896Y31538D01*
X37897Y31438D01*
X37898Y31338D01*
X37898Y31239D01*
X37899Y31139D01*
X37899Y31039D01*
X37900Y30939D01*
X37901Y30839D01*
X37901Y30740D01*
X37902Y30640D01*
X37903Y30540D01*
X37903Y30440D01*
X37904Y30340D01*
X37905Y30241D01*
X37905Y30141D01*
X37906Y30041D01*
X37907Y29941D01*
X37907Y29841D01*
X37908Y29742D01*
X37909Y29642D01*
X37909Y29542D01*
X37910Y29442D01*
X37910Y29342D01*
X37911Y29243D01*
X37912Y29143D01*
X37912Y29043D01*
X37913Y28943D01*
X37914Y28843D01*
X37914Y28744D01*
X37915Y28644D01*
X37916Y28544D01*
X37916Y28444D01*
X37917Y28344D01*
X37918Y28245D01*
X37918Y28145D01*
X37919Y28045D01*
X37919Y27945D01*
X37920Y27845D01*
X37921Y27745D01*
X37921Y27646D01*
X37922Y27546D01*
X37923Y27446D01*
X37923Y27346D01*
X37924Y27246D01*
X37925Y27147D01*
X37925Y27047D01*
X37926Y26947D01*
X37927Y26847D01*
X37927Y26747D01*
X37928Y26648D01*
X37929Y26548D01*
X37929Y26448D01*
X37930Y26348D01*
X37930Y26248D01*
X37931Y26149D01*
X37932Y26049D01*
X37932Y25949D01*
X37933Y25849D01*
X37934Y25749D01*
X37934Y25650D01*
X37935Y25550D01*
X37936Y25450D01*
X37936Y25350D01*
X37937Y25250D01*
X37938Y25151D01*
X37938Y25051D01*
X37939Y24951D01*
X37939Y24851D01*
X37940Y24751D01*
X37941Y24652D01*
X37941Y24552D01*
X37942Y24452D01*
X37943Y24352D01*
X37943Y24252D01*
X37944Y24153D01*
X37945Y24053D01*
X37945Y23953D01*
X37946Y23853D01*
X37947Y23753D01*
X37947Y23654D01*
X37948Y23554D01*
X37948Y23454D01*
X37949Y23354D01*
X37950Y23254D01*
X37950Y23155D01*
X37951Y23055D01*
X37952Y22955D01*
X37952Y22855D01*
X37953Y22755D01*
X37954Y22656D01*
X37954Y22556D01*
X37955Y22456D01*
X37956Y22356D01*
X37956Y22256D01*
X37957Y22157D01*
X37958Y22057D01*
X37958Y21957D01*
X37959Y21857D01*
X37959Y21757D01*
X37960Y21657D01*
X37961Y21558D01*
X37961Y21458D01*
X37962Y21358D01*
X37963Y21258D01*
X37963Y21158D01*
X37964Y21059D01*
X37965Y20959D01*
X37965Y20859D01*
X37966Y20759D01*
X37967Y20659D01*
X37967Y20560D01*
X37968Y20460D01*
X37968Y20360D01*
X37969Y20260D01*
X37970Y20160D01*
X37970Y20061D01*
X37971Y19961D01*
X37972Y19861D01*
X37972Y19761D01*
X37973Y19661D01*
X37974Y19562D01*
X37974Y19462D01*
X37975Y19362D01*
X37976Y19262D01*
X37976Y19162D01*
X37977Y19063D01*
X37978Y18963D01*
X37978Y18863D01*
X37979Y18763D01*
X37979Y18663D01*
X37980Y18564D01*
X37981Y18464D01*
X37981Y18364D01*
X37982Y18264D01*
X37983Y18164D01*
X37983Y18065D01*
X37984Y17965D01*
X37985Y17865D01*
X37985Y17765D01*
X37986Y17665D01*
X37987Y17566D01*
X37987Y17466D01*
X37988Y17366D01*
X37988Y17266D01*
X37989Y17166D01*
X37990Y17067D01*
X37990Y16967D01*
X37991Y16867D01*
X37992Y16767D01*
X37992Y16667D01*
X37993Y16568D01*
X37994Y16468D01*
X37994Y16368D01*
X37995Y16268D01*
X37996Y16168D01*
X37996Y16068D01*
X37997Y15969D01*
X37997Y15869D01*
X37998Y15769D01*
X37999Y15669D01*
X37999Y15569D01*
X38000Y15470D01*
X38001Y15370D01*
X38001Y15270D01*
X38002Y15170D01*
X38003Y15070D01*
X38003Y14971D01*
X38004Y14871D01*
X38005Y14771D01*
X38005Y14671D01*
X38006Y14571D01*
X38007Y14472D01*
X38007Y14372D01*
X38008Y14272D01*
X38008Y14172D01*
X38009Y14072D01*
X38010Y13973D01*
X38010Y13873D01*
X38011Y13773D01*
X38012Y13673D01*
X38012Y13573D01*
X38013Y13474D01*
X38014Y13374D01*
X38014Y13274D01*
X38015Y13174D01*
X38016Y13074D01*
X38016Y12975D01*
X38017Y12875D01*
X38017Y12775D01*
X38018Y12675D01*
X38019Y12575D01*
X38019Y12476D01*
X38020Y12376D01*
X38021Y12276D01*
X38021Y12176D01*
X38022Y12076D01*
X38023Y11977D01*
X38023Y11877D01*
X38024Y11777D01*
X38025Y11677D01*
X38025Y11577D01*
X38026Y11478D01*
X38027Y11378D01*
X38027Y11278D01*
X38028Y11178D01*
X38028Y11078D01*
X38029Y10979D01*
X38030Y10879D01*
X38030Y10779D01*
X38031Y10679D01*
X38032Y10579D01*
X38032Y10479D01*
X38033Y10380D01*
X38034Y10280D01*
X38034Y10180D01*
X38035Y10080D01*
X38036Y9980D01*
X38036Y9881D01*
X38037Y9781D01*
X38037Y9681D01*
X38038Y9581D01*
X38039Y9481D01*
X38039Y9382D01*
X38040Y9282D01*
X38041Y9182D01*
X38041Y9082D01*
X38042Y8982D01*
X38043Y8883D01*
X38043Y8783D01*
X38044Y8683D01*
X38045Y8583D01*
X38045Y8483D01*
X38046Y8384D01*
X38046Y8284D01*
X38047Y8184D01*
X38048Y8084D01*
X38048Y7984D01*
X38049Y7885D01*
X38050Y7785D01*
X38050Y7685D01*
X38051Y7585D01*
X38052Y7485D01*
X38052Y7386D01*
X38053Y7286D01*
X38054Y7186D01*
X38054Y7086D01*
X38055Y6986D01*
X38056Y6887D01*
X38056Y6787D01*
X38057Y6687D01*
X38057Y6587D01*
X38058Y6487D01*
X38059Y6388D01*
X38059Y6288D01*
X38060Y6188D01*
X38061Y6088D01*
X38061Y5988D01*
X38062Y5889D01*
X38063Y5789D01*
X38063Y5689D01*
X38064Y5589D01*
X38065Y5489D01*
X38065Y5389D01*
X38066Y5290D01*
X38066Y5190D01*
X38067Y5090D01*
X38068Y4990D01*
X38068Y4890D01*
X38069Y4791D01*
X38070Y4691D01*
X38070Y4591D01*
X38071Y4491D01*
X38072Y4391D01*
X38072Y4292D01*
X38073Y4192D01*
X38074Y4092D01*
X38074Y3992D01*
X38075Y3892D01*
X38076Y3793D01*
X38076Y3693D01*
X38077Y3593D01*
X38077Y3493D01*
X38078Y3393D01*
X38079Y3294D01*
X38079Y3194D01*
X38080Y3094D01*
X38081Y2994D01*
X38081Y2894D01*
X38082Y2795D01*
X38083Y2695D01*
X38083Y2595D01*
X38084Y2495D01*
X38085Y2395D01*
X38085Y2296D01*
X38086Y2196D01*
X38086Y2096D01*
X38087Y1996D01*
X38088Y1896D01*
X38088Y1797D01*
X38089Y1697D01*
X38090Y1597D01*
X38090Y1497D01*
X38091Y1397D01*
X38092Y1298D01*
X38092Y1198D01*
X38093Y1098D01*
X38094Y998D01*
X38094Y898D01*
X38095Y798D01*
X38095Y699D01*
X38096Y599D01*
X38097Y499D01*
X38097Y399D01*
X38098Y299D01*
X38099Y200D01*
X38099Y100D01*
X38100Y0D01*
X38000Y0D01*
X37900Y0D01*
X37800Y0D01*
X37700Y0D01*
X37600Y0D01*
X37500Y0D01*
X37400Y0D01*
X37300Y0D01*
X37200Y0D01*
X37100Y0D01*
X37000Y0D01*
X36900Y0D01*
X36800Y0D01*
X36700Y0D01*
X36600Y0D01*
X36500Y0D01*
X36400Y0D01*
X36300Y0D01*
X36200Y0D01*
X36100Y0D01*
X36000Y0D01*
X35900Y0D01*
X35800Y0D01*
X35700Y0D01*
X35600Y0D01*
X35500Y0D01*
X35400Y0D01*
X35300Y0D01*
X35200Y0D01*
X35100Y0D01*
X35000Y0D01*
X34900Y0D01*
X34800Y0D01*
X34700Y0D01*
X34600Y0D01*
X34500Y0D01*
X34400Y0D01*
X34300Y0D01*
X34200Y0D01*
X34100Y0D01*
X34000Y0D01*
X33900Y0D01*
X33800Y0D01*
X33700Y0D01*
X33600Y0D01*
X33500Y0D01*
X33400Y0D01*
X33300Y0D01*
X33200Y0D01*
X33100Y0D01*
X33000Y0D01*
X32900Y0D01*
X32800Y0D01*
X32700Y0D01*
X32600Y0D01*
X32500Y0D01*
X32400Y0D01*
X32300Y0D01*
X32200Y0D01*
X32100Y0D01*
X32000Y0D01*
X31900Y0D01*
X31800Y0D01*
X31700Y0D01*
X31600Y0D01*
X31500Y0D01*
X31400Y0D01*
X31300Y0D01*
X31200Y0D01*
X31100Y0D01*
X31000Y0D01*
X30900Y0D01*
X30800Y0D01*
X30700Y0D01*
X30600Y0D01*
X30500Y0D01*
X30400Y0D01*
X30300Y0D01*
X30200Y0D01*
X30100Y0D01*
X30000Y0D01*
X29900Y0D01*
X29800Y0D01*
X29700Y0D01*
X29600Y0D01*
X29500Y0D01*
X29400Y0D01*
X29300Y0D01*
X29200Y0D01*
X29100Y0D01*
X29000Y0D01*
X28900Y0D01*
X28800Y0D01*
X28700Y0D01*
X28600Y0D01*
X28500Y0D01*
X28400Y0D01*
X28300Y0D01*
X28200Y0D01*
X28100Y0D01*
X28000Y0D01*
X27900Y0D01*
X27800Y0D01*
X27700Y0D01*
X27600Y0D01*
X27500Y0D01*
X27400Y0D01*
X27300Y0D01*
X27200Y0D01*
X27100Y0D01*
X27000Y0D01*
X26900Y0D01*
X26800Y0D01*
X26700Y0D01*
X26600Y0D01*
X26500Y0D01*
X26400Y0D01*
X26300Y0D01*
X26200Y0D01*
X26100Y0D01*
X26000Y0D01*
X25900Y0D01*
X25800Y0D01*
X25700Y0D01*
X25600Y0D01*
X25500Y0D01*
X25400Y0D01*
X25300Y0D01*
X25200Y0D01*
X25100Y0D01*
X25000Y0D01*
X24900Y0D01*
X24800Y0D01*
X24700Y0D01*
X24600Y0D01*
X24500Y0D01*
X24400Y0D01*
X24300Y0D01*
X24200Y0D01*
X24100Y0D01*
X24000Y0D01*
X23900Y0D01*
X23800Y0D01*
X23700Y0D01*
X23600Y0D01*
X23500Y0D01*
X23400Y0D01*
X23300Y0D01*
X23200Y0D01*
X23100Y0D01*
X23000Y0D01*
X22900Y0D01*
X22800Y0D01*
X22700Y0D01*
X22600Y0D01*
X22500Y0D01*
X22400Y0D01*
X22300Y0D01*
X22200Y0D01*
X22100Y0D01*
X22000Y0D01*
X21900Y0D01*
X21800Y0D01*
X21700Y0D01*
X21600Y0D01*
X21500Y0D01*
X21400Y0D01*
X21300Y0D01*
X21200Y0D01*
X21100Y0D01*
X21000Y0D01*
X20900Y0D01*
X20800Y0D01*
X20700Y0D01*
X20600Y0D01*
X20500Y0D01*
X20400Y0D01*
X20300Y0D01*
X20200Y0D01*
X20100Y0D01*
X20000Y0D01*
X19900Y0D01*
X19800Y0D01*
X19700Y0D01*
X19600Y0D01*
X19500Y0D01*
X19400Y0D01*
X19300Y0D01*
X19200Y0D01*
X19100Y0D01*
X19000Y0D01*
X18900Y0D01*
X18800Y0D01*
X18700Y0D01*
X18600Y0D01*
X18500Y0D01*
X18400Y0D01*
X18300Y0D01*
X18200Y0D01*
X18100Y0D01*
X18000Y0D01*
X17900Y0D01*
X17800Y0D01*
X17700Y0D01*
X17600Y0D01*
X17500Y0D01*
X17400Y0D01*
X17300Y0D01*
X17200Y0D01*
X17100Y0D01*
X17000Y0D01*
X16900Y0D01*
X16800Y0D01*
X16700Y0D01*
X16600Y0D01*
X16500Y0D01*
X16400Y0D01*
X16300Y0D01*
X16200Y0D01*
X16100Y0D01*
X16000Y0D01*
X15900Y0D01*
X15800Y0D01*
X15700Y0D01*
X15600Y0D01*
X15500Y0D01*
X15400Y0D01*
X15300Y0D01*
X15200Y0D01*
X15100Y0D01*
X15000Y0D01*
X14900Y0D01*
X14800Y0D01*
X14700Y0D01*
X14600Y0D01*
X14500Y0D01*
X14400Y0D01*
X14300Y0D01*
X14200Y0D01*
X14100Y0D01*
X14000Y0D01*
X13900Y0D01*
X13800Y0D01*
X13700Y0D01*
X13600Y0D01*
X13500Y0D01*
X13400Y0D01*
X13300Y0D01*
X13200Y0D01*
X13100Y0D01*
X13000Y0D01*
X12900Y0D01*
X12800Y0D01*
X12700Y0D01*
X12600Y0D01*
X12500Y0D01*
X12400Y0D01*
X12300Y0D01*
X12200Y0D01*
X12100Y0D01*
X12000Y0D01*
X11900Y0D01*
X11800Y0D01*
X11700Y0D01*
X11600Y0D01*
X11500Y0D01*
X11400Y0D01*
X11300Y0D01*
X11200Y0D01*
X11100Y0D01*
X11000Y0D01*
X10900Y0D01*
X10800Y0D01*
X10700Y0D01*
X10600Y0D01*
X10500Y0D01*
X10400Y0D01*
X10300Y0D01*
X10200Y0D01*
X10100Y0D01*
X10000Y0D01*
X9900Y0D01*
X9800Y0D01*
X9700Y0D01*
X9600Y0D01*
X9500Y0D01*
X9400Y0D01*
X9300Y0D01*
X9200Y0D01*
X9100Y0D01*
X9000Y0D01*
X8900Y0D01*
X8800Y0D01*
X8700Y0D01*
X8600Y0D01*
X8500Y0D01*
X8400Y0D01*
X8300Y0D01*
X8200Y0D01*
X8100Y0D01*
X8000Y0D01*
X7900Y0D01*
X7800Y0D01*
X7700Y0D01*
X7600Y0D01*
X7500Y0D01*
X7400Y0D01*
X7300Y0D01*
X7200Y0D01*
X7100Y0D01*
X7000Y0D01*
X6900Y0D01*
X6800Y0D01*
X6700Y0D01*
X6600Y0D01*
X6500Y0D01*
X6400Y0D01*
X6300Y0D01*
X6200Y0D01*
X6100Y0D01*
X6000Y0D01*
X5900Y0D01*
X5800Y0D01*
X5700Y0D01*
X5600Y0D01*
X5500Y0D01*
X5400Y0D01*
X5300Y0D01*
X5200Y0D01*
X5100Y0D01*
X5000Y0D01*
X4900Y0D01*
X4800Y0D01*
X4700Y0D01*
X4600Y0D01*
X4500Y0D01*
X4400Y0D01*
X4300Y0D01*
X4200Y0D01*
X4100Y0D01*
X4000Y0D01*
X3900Y0D01*
X3800Y0D01*
X3700Y0D01*
X3600Y0D01*
X3500Y0D01*
X3400Y0D01*
X3300Y0D01*
X3200Y0D01*
X3100Y0D01*
X3000Y0D01*
X2900Y0D01*
X2800Y0D01*
X2700Y0D01*
X2600Y0D01*
X2500Y0D01*
X2400Y0D01*
X2300Y0D01*
X2200Y0D01*
X2100Y0D01*
X2000Y0D01*
X1900Y0D01*
X1800Y0D01*
X1700Y0D01*
X1600Y0D01*
X1500Y0D01*
X1400Y0D01*
X1300Y0D01*
X1200Y0D01*
X1100Y0D01*
X1000Y0D01*
X900Y0D01*
X800Y0D01*
X700Y0D01*
X600Y0D01*
X500Y0D01*
X400Y0D01*
X300Y0D01*
X200Y0D01*
X100Y0D01*
X0Y0D01*
X0Y0D01*
D11*
X10431Y968D02*
X10431Y1634D01*
X10764Y1634D01*
X10875Y1523D01*
X10875Y1412D01*
X10764Y1301D01*
X10431Y1301D01*
D11*
X11208Y968D02*
X11097Y1079D01*
X11097Y1523D01*
X11208Y1634D01*
X11486Y1634D01*
X11597Y1523D01*
X11597Y1079D01*
X11486Y968D01*
X11208Y968D01*
D11*
X11819Y1634D02*
X11819Y1190D01*
X11986Y968D01*
X12125Y1134D01*
X12264Y968D01*
X12431Y1190D01*
X12431Y1634D01*
D11*
X12125Y1134D02*
X12125Y1301D01*
D11*
X13042Y968D02*
X12653Y968D01*
X12653Y1634D01*
X13042Y1634D01*
D11*
X12986Y1301D02*
X12653Y1301D01*
D11*
X13264Y968D02*
X13264Y1634D01*
X13597Y1634D01*
X13708Y1523D01*
X13708Y1412D01*
X13597Y1301D01*
X13264Y1301D01*
D11*
X13597Y1301D02*
X13708Y1190D01*
X13708Y968D01*
D11*
X14014Y968D02*
X13931Y1051D01*
X13931Y1551D01*
X14014Y1634D01*
X14236Y1634D01*
X14319Y1551D01*
X14319Y1051D01*
X14236Y968D01*
X14014Y968D01*
D11*
X13931Y1134D02*
X14319Y1468D01*
D12*
X4755Y31D02*
X4755Y131D01*
X4755Y231D01*
X4755Y331D01*
X4755Y431D01*
X4755Y530D01*
X4755Y630D01*
X4755Y730D01*
X4755Y830D01*
X4755Y930D01*
X4755Y1030D01*
X4755Y1130D01*
X4755Y1230D01*
X4755Y1330D01*
X4755Y1429D01*
X4755Y1529D01*
X4755Y1629D01*
X4755Y1729D01*
X4755Y1829D01*
X4755Y1929D01*
X4755Y2029D01*
X4755Y2129D01*
X4755Y2229D01*
X4755Y2328D01*
X4755Y2428D01*
X4755Y2528D01*
X4812Y2571D01*
X4912Y2571D01*
X5012Y2571D01*
X5112Y2571D01*
X5212Y2571D01*
X5312Y2571D01*
X5411Y2571D01*
X5511Y2571D01*
X5611Y2571D01*
X5711Y2571D01*
X5811Y2571D01*
X5911Y2571D01*
X6011Y2571D01*
X6111Y2571D01*
X6211Y2571D01*
X6310Y2571D01*
X6410Y2571D01*
X6510Y2571D01*
X6610Y2571D01*
X6710Y2571D01*
X6810Y2571D01*
X6910Y2571D01*
X7010Y2571D01*
X7109Y2571D01*
X7209Y2571D01*
X7309Y2571D01*
X7409Y2571D01*
X7509Y2571D01*
X7609Y2571D01*
X7709Y2571D01*
X7809Y2571D01*
X7909Y2571D01*
X8008Y2571D01*
X8108Y2571D01*
X8208Y2571D01*
X8308Y2571D01*
X8408Y2571D01*
X8508Y2571D01*
X8608Y2571D01*
X8708Y2571D01*
X8808Y2571D01*
X8907Y2571D01*
X9007Y2571D01*
X9107Y2571D01*
X9207Y2571D01*
X9307Y2571D01*
X9407Y2571D01*
X9507Y2571D01*
X9607Y2571D01*
X9707Y2571D01*
X9806Y2571D01*
X9906Y2571D01*
X10006Y2571D01*
X10106Y2571D01*
X10206Y2571D01*
X10306Y2571D01*
X10406Y2571D01*
X10506Y2571D01*
X10606Y2571D01*
X10705Y2571D01*
X10805Y2571D01*
X10905Y2571D01*
X11005Y2571D01*
X11105Y2571D01*
X11205Y2571D01*
X11305Y2571D01*
X11405Y2571D01*
X11505Y2571D01*
X11604Y2571D01*
X11704Y2571D01*
X11804Y2571D01*
X11904Y2571D01*
X12004Y2571D01*
X12104Y2571D01*
X12204Y2571D01*
X12304Y2571D01*
X12404Y2571D01*
X12503Y2571D01*
X12603Y2571D01*
X12703Y2571D01*
X12803Y2571D01*
X12903Y2571D01*
X13003Y2571D01*
X13103Y2571D01*
X13203Y2571D01*
X13303Y2571D01*
X13402Y2571D01*
X13502Y2571D01*
X13602Y2571D01*
X13702Y2571D01*
X13802Y2571D01*
X13902Y2571D01*
X14002Y2571D01*
X14102Y2571D01*
X14201Y2571D01*
X14301Y2571D01*
X14401Y2571D01*
X14501Y2571D01*
X14601Y2571D01*
X14701Y2571D01*
X14801Y2571D01*
X14901Y2571D01*
X15001Y2571D01*
X15100Y2571D01*
X15200Y2571D01*
X15300Y2571D01*
X15400Y2571D01*
X15500Y2571D01*
X15600Y2571D01*
X15700Y2571D01*
X15800Y2571D01*
X15900Y2571D01*
X15999Y2571D01*
X16099Y2571D01*
X16199Y2571D01*
X16299Y2571D01*
X16399Y2571D01*
X16499Y2571D01*
X16599Y2571D01*
X16699Y2571D01*
X16799Y2571D01*
X16898Y2571D01*
X16998Y2571D01*
X17098Y2571D01*
X17198Y2571D01*
X17298Y2571D01*
X17398Y2571D01*
X17498Y2571D01*
X17598Y2571D01*
X17698Y2571D01*
X17797Y2571D01*
X17897Y2571D01*
X17997Y2571D01*
X18097Y2571D01*
X18197Y2571D01*
X18297Y2571D01*
X18397Y2571D01*
X18497Y2571D01*
X18597Y2571D01*
X18696Y2571D01*
X18796Y2571D01*
X18896Y2571D01*
X18996Y2571D01*
X19096Y2571D01*
X19196Y2571D01*
X19296Y2571D01*
X19396Y2571D01*
X19496Y2571D01*
X19595Y2571D01*
X19695Y2571D01*
X19795Y2571D01*
X19895Y2571D01*
X19995Y2571D01*
X19995Y2471D01*
X19995Y2371D01*
X19995Y2271D01*
X19995Y2171D01*
X19995Y2072D01*
X19995Y1972D01*
X19995Y1872D01*
X19995Y1772D01*
X19995Y1672D01*
X19995Y1572D01*
X19995Y1472D01*
X19995Y1372D01*
X19995Y1272D01*
X19995Y1173D01*
X19995Y1073D01*
X19995Y973D01*
X19995Y873D01*
X19995Y773D01*
X19995Y673D01*
X19995Y573D01*
X19995Y473D01*
X19995Y373D01*
X19995Y274D01*
X19995Y174D01*
X19995Y74D01*
X19938Y31D01*
X19838Y31D01*
X19738Y31D01*
X19638Y31D01*
X19538Y31D01*
X19438Y31D01*
X19339Y31D01*
X19239Y31D01*
X19139Y31D01*
X19039Y31D01*
X18939Y31D01*
X18839Y31D01*
X18739Y31D01*
X18639Y31D01*
X18539Y31D01*
X18440Y31D01*
X18340Y31D01*
X18240Y31D01*
X18140Y31D01*
X18040Y31D01*
X17940Y31D01*
X17840Y31D01*
X17740Y31D01*
X17641Y31D01*
X17541Y31D01*
X17441Y31D01*
X17341Y31D01*
X17241Y31D01*
X17141Y31D01*
X17041Y31D01*
X16941Y31D01*
X16841Y31D01*
X16742Y31D01*
X16642Y31D01*
X16542Y31D01*
X16442Y31D01*
X16342Y31D01*
X16242Y31D01*
X16142Y31D01*
X16042Y31D01*
X15942Y31D01*
X15843Y31D01*
X15743Y31D01*
X15643Y31D01*
X15543Y31D01*
X15443Y31D01*
X15343Y31D01*
X15243Y31D01*
X15143Y31D01*
X15043Y31D01*
X14944Y31D01*
X14844Y31D01*
X14744Y31D01*
X14644Y31D01*
X14544Y31D01*
X14444Y31D01*
X14344Y31D01*
X14244Y31D01*
X14144Y31D01*
X14045Y31D01*
X13945Y31D01*
X13845Y31D01*
X13745Y31D01*
X13645Y31D01*
X13545Y31D01*
X13445Y31D01*
X13345Y31D01*
X13245Y31D01*
X13146Y31D01*
X13046Y31D01*
X12946Y31D01*
X12846Y31D01*
X12746Y31D01*
X12646Y31D01*
X12546Y31D01*
X12446Y31D01*
X12346Y31D01*
X12247Y31D01*
X12147Y31D01*
X12047Y31D01*
X11947Y31D01*
X11847Y31D01*
X11747Y31D01*
X11647Y31D01*
X11547Y31D01*
X11447Y31D01*
X11348Y31D01*
X11248Y31D01*
X11148Y31D01*
X11048Y31D01*
X10948Y31D01*
X10848Y31D01*
X10748Y31D01*
X10648Y31D01*
X10549Y31D01*
X10449Y31D01*
X10349Y31D01*
X10249Y31D01*
X10149Y31D01*
X10049Y31D01*
X9949Y31D01*
X9849Y31D01*
X9749Y31D01*
X9650Y31D01*
X9550Y31D01*
X9450Y31D01*
X9350Y31D01*
X9250Y31D01*
X9150Y31D01*
X9050Y31D01*
X8950Y31D01*
X8850Y31D01*
X8751Y31D01*
X8651Y31D01*
X8551Y31D01*
X8451Y31D01*
X8351Y31D01*
X8251Y31D01*
X8151Y31D01*
X8051Y31D01*
X7951Y31D01*
X7852Y31D01*
X7752Y31D01*
X7652Y31D01*
X7552Y31D01*
X7452Y31D01*
X7352Y31D01*
X7252Y31D01*
X7152Y31D01*
X7052Y31D01*
X6953Y31D01*
X6853Y31D01*
X6753Y31D01*
X6653Y31D01*
X6553Y31D01*
X6453Y31D01*
X6353Y31D01*
X6253Y31D01*
X6153Y31D01*
X6054Y31D01*
X5954Y31D01*
X5854Y31D01*
X5754Y31D01*
X5654Y31D01*
X5554Y31D01*
X5454Y31D01*
X5354Y31D01*
X5254Y31D01*
X5155Y31D01*
X5055Y31D01*
X4955Y31D01*
X4855Y31D01*
X4755Y31D01*
D11*
X27516Y968D02*
X27516Y1301D01*
X27738Y1634D01*
X27794Y1634D01*
X28016Y1301D01*
X28016Y968D01*
D11*
X27516Y1134D02*
X28016Y1134D01*
D11*
X28238Y968D02*
X28238Y1634D01*
D11*
X28238Y1579D02*
X28683Y1162D01*
D11*
X28683Y968D02*
X28683Y1634D01*
D11*
X28905Y968D02*
X28905Y1301D01*
X29127Y1634D01*
X29183Y1634D01*
X29405Y1301D01*
X29405Y968D01*
D11*
X28905Y1134D02*
X29405Y1134D01*
D11*
X29738Y968D02*
X29627Y1079D01*
X29627Y1523D01*
X29738Y1634D01*
X30016Y1634D01*
X30127Y1523D01*
X30127Y1079D01*
X30016Y968D01*
X29738Y968D01*
D11*
X30738Y968D02*
X30349Y968D01*
X30349Y1634D01*
D11*
X31072Y968D02*
X30961Y1079D01*
X30961Y1523D01*
X31072Y1634D01*
X31349Y1634D01*
X31461Y1523D01*
X31461Y1079D01*
X31349Y968D01*
X31072Y968D01*
D11*
X31988Y1245D02*
X32183Y1245D01*
X32183Y1079D01*
X32072Y968D01*
X31794Y968D01*
X31683Y1079D01*
X31683Y1523D01*
X31794Y1634D01*
X32072Y1634D01*
X32183Y1523D01*
X32183Y1468D01*
D11*
X32488Y968D02*
X32405Y1051D01*
X32405Y1551D01*
X32488Y1634D01*
X32711Y1634D01*
X32794Y1551D01*
X32794Y1051D01*
X32711Y968D01*
X32488Y968D01*
D11*
X32405Y1134D02*
X32794Y1468D01*
D12*
X22535Y31D02*
X22535Y131D01*
X22535Y231D01*
X22535Y331D01*
X22535Y431D01*
X22535Y530D01*
X22535Y630D01*
X22535Y730D01*
X22535Y830D01*
X22535Y930D01*
X22535Y1030D01*
X22535Y1130D01*
X22535Y1230D01*
X22535Y1330D01*
X22535Y1429D01*
X22535Y1529D01*
X22535Y1629D01*
X22535Y1729D01*
X22535Y1829D01*
X22535Y1929D01*
X22535Y2029D01*
X22535Y2129D01*
X22535Y2229D01*
X22535Y2328D01*
X22535Y2428D01*
X22535Y2528D01*
X22592Y2571D01*
X22692Y2571D01*
X22792Y2571D01*
X22892Y2571D01*
X22992Y2571D01*
X23092Y2571D01*
X23191Y2571D01*
X23291Y2571D01*
X23391Y2571D01*
X23491Y2571D01*
X23591Y2571D01*
X23691Y2571D01*
X23791Y2571D01*
X23891Y2571D01*
X23991Y2571D01*
X24090Y2571D01*
X24190Y2571D01*
X24290Y2571D01*
X24390Y2571D01*
X24490Y2571D01*
X24590Y2571D01*
X24690Y2571D01*
X24790Y2571D01*
X24889Y2571D01*
X24989Y2571D01*
X25089Y2571D01*
X25189Y2571D01*
X25289Y2571D01*
X25389Y2571D01*
X25489Y2571D01*
X25589Y2571D01*
X25689Y2571D01*
X25788Y2571D01*
X25888Y2571D01*
X25988Y2571D01*
X26088Y2571D01*
X26188Y2571D01*
X26288Y2571D01*
X26388Y2571D01*
X26488Y2571D01*
X26588Y2571D01*
X26687Y2571D01*
X26787Y2571D01*
X26887Y2571D01*
X26987Y2571D01*
X27087Y2571D01*
X27187Y2571D01*
X27287Y2571D01*
X27387Y2571D01*
X27487Y2571D01*
X27586Y2571D01*
X27686Y2571D01*
X27786Y2571D01*
X27886Y2571D01*
X27986Y2571D01*
X28086Y2571D01*
X28186Y2571D01*
X28286Y2571D01*
X28386Y2571D01*
X28485Y2571D01*
X28585Y2571D01*
X28685Y2571D01*
X28785Y2571D01*
X28885Y2571D01*
X28985Y2571D01*
X29085Y2571D01*
X29185Y2571D01*
X29285Y2571D01*
X29384Y2571D01*
X29484Y2571D01*
X29584Y2571D01*
X29684Y2571D01*
X29784Y2571D01*
X29884Y2571D01*
X29984Y2571D01*
X30084Y2571D01*
X30184Y2571D01*
X30283Y2571D01*
X30383Y2571D01*
X30483Y2571D01*
X30583Y2571D01*
X30683Y2571D01*
X30783Y2571D01*
X30883Y2571D01*
X30983Y2571D01*
X31083Y2571D01*
X31182Y2571D01*
X31282Y2571D01*
X31382Y2571D01*
X31482Y2571D01*
X31582Y2571D01*
X31682Y2571D01*
X31782Y2571D01*
X31882Y2571D01*
X31981Y2571D01*
X32081Y2571D01*
X32181Y2571D01*
X32281Y2571D01*
X32381Y2571D01*
X32481Y2571D01*
X32581Y2571D01*
X32681Y2571D01*
X32781Y2571D01*
X32880Y2571D01*
X32980Y2571D01*
X33080Y2571D01*
X33180Y2571D01*
X33280Y2571D01*
X33380Y2571D01*
X33480Y2571D01*
X33580Y2571D01*
X33680Y2571D01*
X33779Y2571D01*
X33879Y2571D01*
X33979Y2571D01*
X34079Y2571D01*
X34179Y2571D01*
X34279Y2571D01*
X34379Y2571D01*
X34479Y2571D01*
X34579Y2571D01*
X34678Y2571D01*
X34778Y2571D01*
X34878Y2571D01*
X34978Y2571D01*
X35078Y2571D01*
X35178Y2571D01*
X35278Y2571D01*
X35378Y2571D01*
X35478Y2571D01*
X35577Y2571D01*
X35677Y2571D01*
X35777Y2571D01*
X35877Y2571D01*
X35977Y2571D01*
X36077Y2571D01*
X36177Y2571D01*
X36277Y2571D01*
X36377Y2571D01*
X36476Y2571D01*
X36576Y2571D01*
X36676Y2571D01*
X36776Y2571D01*
X36876Y2571D01*
X36976Y2571D01*
X37076Y2571D01*
X37176Y2571D01*
X37276Y2571D01*
X37375Y2571D01*
X37475Y2571D01*
X37575Y2571D01*
X37675Y2571D01*
X37775Y2571D01*
X37775Y2471D01*
X37775Y2371D01*
X37775Y2271D01*
X37775Y2171D01*
X37775Y2072D01*
X37775Y1972D01*
X37775Y1872D01*
X37775Y1772D01*
X37775Y1672D01*
X37775Y1572D01*
X37775Y1472D01*
X37775Y1372D01*
X37775Y1272D01*
X37775Y1173D01*
X37775Y1073D01*
X37775Y973D01*
X37775Y873D01*
X37775Y773D01*
X37775Y673D01*
X37775Y573D01*
X37775Y473D01*
X37775Y373D01*
X37775Y274D01*
X37775Y174D01*
X37775Y74D01*
X37718Y31D01*
X37618Y31D01*
X37518Y31D01*
X37418Y31D01*
X37318Y31D01*
X37218Y31D01*
X37119Y31D01*
X37019Y31D01*
X36919Y31D01*
X36819Y31D01*
X36719Y31D01*
X36619Y31D01*
X36519Y31D01*
X36419Y31D01*
X36319Y31D01*
X36220Y31D01*
X36120Y31D01*
X36020Y31D01*
X35920Y31D01*
X35820Y31D01*
X35720Y31D01*
X35620Y31D01*
X35520Y31D01*
X35421Y31D01*
X35321Y31D01*
X35221Y31D01*
X35121Y31D01*
X35021Y31D01*
X34921Y31D01*
X34821Y31D01*
X34721Y31D01*
X34621Y31D01*
X34522Y31D01*
X34422Y31D01*
X34322Y31D01*
X34222Y31D01*
X34122Y31D01*
X34022Y31D01*
X33922Y31D01*
X33822Y31D01*
X33722Y31D01*
X33623Y31D01*
X33523Y31D01*
X33423Y31D01*
X33323Y31D01*
X33223Y31D01*
X33123Y31D01*
X33023Y31D01*
X32923Y31D01*
X32823Y31D01*
X32724Y31D01*
X32624Y31D01*
X32524Y31D01*
X32424Y31D01*
X32324Y31D01*
X32224Y31D01*
X32124Y31D01*
X32024Y31D01*
X31924Y31D01*
X31825Y31D01*
X31725Y31D01*
X31625Y31D01*
X31525Y31D01*
X31425Y31D01*
X31325Y31D01*
X31225Y31D01*
X31125Y31D01*
X31025Y31D01*
X30926Y31D01*
X30826Y31D01*
X30726Y31D01*
X30626Y31D01*
X30526Y31D01*
X30426Y31D01*
X30326Y31D01*
X30226Y31D01*
X30126Y31D01*
X30027Y31D01*
X29927Y31D01*
X29827Y31D01*
X29727Y31D01*
X29627Y31D01*
X29527Y31D01*
X29427Y31D01*
X29327Y31D01*
X29227Y31D01*
X29128Y31D01*
X29028Y31D01*
X28928Y31D01*
X28828Y31D01*
X28728Y31D01*
X28628Y31D01*
X28528Y31D01*
X28428Y31D01*
X28329Y31D01*
X28229Y31D01*
X28129Y31D01*
X28029Y31D01*
X27929Y31D01*
X27829Y31D01*
X27729Y31D01*
X27629Y31D01*
X27529Y31D01*
X27430Y31D01*
X27330Y31D01*
X27230Y31D01*
X27130Y31D01*
X27030Y31D01*
X26930Y31D01*
X26830Y31D01*
X26730Y31D01*
X26630Y31D01*
X26531Y31D01*
X26431Y31D01*
X26331Y31D01*
X26231Y31D01*
X26131Y31D01*
X26031Y31D01*
X25931Y31D01*
X25831Y31D01*
X25731Y31D01*
X25632Y31D01*
X25532Y31D01*
X25432Y31D01*
X25332Y31D01*
X25232Y31D01*
X25132Y31D01*
X25032Y31D01*
X24932Y31D01*
X24832Y31D01*
X24733Y31D01*
X24633Y31D01*
X24533Y31D01*
X24433Y31D01*
X24333Y31D01*
X24233Y31D01*
X24133Y31D01*
X24033Y31D01*
X23933Y31D01*
X23834Y31D01*
X23734Y31D01*
X23634Y31D01*
X23534Y31D01*
X23434Y31D01*
X23334Y31D01*
X23234Y31D01*
X23134Y31D01*
X23034Y31D01*
X22935Y31D01*
X22835Y31D01*
X22735Y31D01*
X22635Y31D01*
X22535Y31D01*
D11*
X25073Y49161D02*
X25073Y49827D01*
X25462Y49827D01*
X25573Y49716D01*
X25573Y49272D01*
X25462Y49161D01*
X25073Y49161D01*
D11*
X25879Y49161D02*
X25879Y49827D01*
D11*
X25796Y49161D02*
X25962Y49161D01*
D11*
X25796Y49827D02*
X25962Y49827D01*
D11*
X26490Y49438D02*
X26684Y49438D01*
X26684Y49272D01*
X26573Y49161D01*
X26296Y49161D01*
X26184Y49272D01*
X26184Y49716D01*
X26296Y49827D01*
X26573Y49827D01*
X26684Y49716D01*
X26684Y49661D01*
D11*
X26990Y49161D02*
X26990Y49827D01*
D11*
X26907Y49161D02*
X27073Y49161D01*
D11*
X26907Y49827D02*
X27073Y49827D01*
D11*
X27518Y49161D02*
X27518Y49827D01*
D11*
X27296Y49827D02*
X27740Y49827D01*
D11*
X27962Y49161D02*
X27962Y49494D01*
X28184Y49827D01*
X28240Y49827D01*
X28462Y49494D01*
X28462Y49161D01*
D11*
X27962Y49327D02*
X28462Y49327D01*
D11*
X29073Y49161D02*
X28684Y49161D01*
X28684Y49827D01*
D11*
X29434Y49161D02*
X29434Y49827D01*
X29379Y49827D01*
X29296Y49716D01*
D11*
X29296Y49161D02*
X29546Y49161D01*
D11*
X29851Y49161D02*
X29768Y49244D01*
X29768Y49744D01*
X29851Y49827D01*
X30073Y49827D01*
X30157Y49744D01*
X30157Y49244D01*
X30073Y49161D01*
X29851Y49161D01*
D11*
X29768Y49327D02*
X30157Y49661D01*
D12*
X17455Y48224D02*
X17455Y48324D01*
X17455Y48424D01*
X17455Y48523D01*
X17455Y48623D01*
X17455Y48723D01*
X17455Y48823D01*
X17455Y48923D01*
X17455Y49023D01*
X17455Y49122D01*
X17455Y49222D01*
X17455Y49322D01*
X17455Y49422D01*
X17455Y49522D01*
X17455Y49621D01*
X17455Y49721D01*
X17455Y49821D01*
X17455Y49921D01*
X17455Y50021D01*
X17455Y50121D01*
X17455Y50220D01*
X17455Y50320D01*
X17455Y50420D01*
X17455Y50520D01*
X17455Y50620D01*
X17455Y50720D01*
X17510Y50764D01*
X17610Y50764D01*
X17710Y50764D01*
X17810Y50764D01*
X17910Y50764D01*
X18010Y50764D01*
X18109Y50764D01*
X18209Y50764D01*
X18309Y50764D01*
X18409Y50764D01*
X18509Y50764D01*
X18609Y50764D01*
X18708Y50764D01*
X18808Y50764D01*
X18908Y50764D01*
X19008Y50764D01*
X19108Y50764D01*
X19207Y50764D01*
X19307Y50764D01*
X19407Y50764D01*
X19507Y50764D01*
X19607Y50764D01*
X19707Y50764D01*
X19806Y50764D01*
X19906Y50764D01*
X20006Y50764D01*
X20106Y50764D01*
X20206Y50764D01*
X20306Y50764D01*
X20405Y50764D01*
X20505Y50764D01*
X20605Y50764D01*
X20705Y50764D01*
X20805Y50764D01*
X20905Y50764D01*
X21004Y50764D01*
X21104Y50764D01*
X21204Y50764D01*
X21304Y50764D01*
X21404Y50764D01*
X21503Y50764D01*
X21603Y50764D01*
X21703Y50764D01*
X21803Y50764D01*
X21903Y50764D01*
X22003Y50764D01*
X22102Y50764D01*
X22202Y50764D01*
X22302Y50764D01*
X22402Y50764D01*
X22502Y50764D01*
X22602Y50764D01*
X22701Y50764D01*
X22801Y50764D01*
X22901Y50764D01*
X23001Y50764D01*
X23101Y50764D01*
X23200Y50764D01*
X23300Y50764D01*
X23400Y50764D01*
X23500Y50764D01*
X23600Y50764D01*
X23700Y50764D01*
X23799Y50764D01*
X23899Y50764D01*
X23999Y50764D01*
X24099Y50764D01*
X24199Y50764D01*
X24299Y50764D01*
X24398Y50764D01*
X24498Y50764D01*
X24598Y50764D01*
X24698Y50764D01*
X24798Y50764D01*
X24897Y50764D01*
X24997Y50764D01*
X25097Y50764D01*
X25197Y50764D01*
X25297Y50764D01*
X25397Y50764D01*
X25496Y50764D01*
X25596Y50764D01*
X25696Y50764D01*
X25796Y50764D01*
X25896Y50764D01*
X25996Y50764D01*
X26095Y50764D01*
X26195Y50764D01*
X26295Y50764D01*
X26395Y50764D01*
X26495Y50764D01*
X26595Y50764D01*
X26694Y50764D01*
X26794Y50764D01*
X26894Y50764D01*
X26994Y50764D01*
X27094Y50764D01*
X27193Y50764D01*
X27293Y50764D01*
X27393Y50764D01*
X27493Y50764D01*
X27593Y50764D01*
X27693Y50764D01*
X27792Y50764D01*
X27892Y50764D01*
X27992Y50764D01*
X28092Y50764D01*
X28192Y50764D01*
X28292Y50764D01*
X28391Y50764D01*
X28491Y50764D01*
X28591Y50764D01*
X28691Y50764D01*
X28791Y50764D01*
X28890Y50764D01*
X28990Y50764D01*
X29090Y50764D01*
X29190Y50764D01*
X29290Y50764D01*
X29390Y50764D01*
X29489Y50764D01*
X29589Y50764D01*
X29689Y50764D01*
X29789Y50764D01*
X29889Y50764D01*
X29989Y50764D01*
X30088Y50764D01*
X30188Y50764D01*
X30288Y50764D01*
X30388Y50764D01*
X30488Y50764D01*
X30588Y50764D01*
X30687Y50764D01*
X30787Y50764D01*
X30887Y50764D01*
X30987Y50764D01*
X31087Y50764D01*
X31186Y50764D01*
X31286Y50764D01*
X31386Y50764D01*
X31486Y50764D01*
X31586Y50764D01*
X31686Y50764D01*
X31785Y50764D01*
X31885Y50764D01*
X31985Y50764D01*
X32085Y50764D01*
X32185Y50764D01*
X32285Y50764D01*
X32384Y50764D01*
X32484Y50764D01*
X32584Y50764D01*
X32684Y50764D01*
X32784Y50764D01*
X32884Y50764D01*
X32983Y50764D01*
X33083Y50764D01*
X33183Y50764D01*
X33283Y50764D01*
X33383Y50764D01*
X33482Y50764D01*
X33582Y50764D01*
X33682Y50764D01*
X33782Y50764D01*
X33882Y50764D01*
X33982Y50764D01*
X34081Y50764D01*
X34181Y50764D01*
X34281Y50764D01*
X34381Y50764D01*
X34481Y50764D01*
X34581Y50764D01*
X34680Y50764D01*
X34780Y50764D01*
X34880Y50764D01*
X34980Y50764D01*
X35080Y50764D01*
X35179Y50764D01*
X35279Y50764D01*
X35379Y50764D01*
X35479Y50764D01*
X35579Y50764D01*
X35679Y50764D01*
X35778Y50764D01*
X35878Y50764D01*
X35978Y50764D01*
X36078Y50764D01*
X36178Y50764D01*
X36278Y50764D01*
X36377Y50764D01*
X36477Y50764D01*
X36577Y50764D01*
X36677Y50764D01*
X36777Y50764D01*
X36877Y50764D01*
X36976Y50764D01*
X37076Y50764D01*
X37176Y50764D01*
X37276Y50764D01*
X37376Y50764D01*
X37475Y50764D01*
X37575Y50764D01*
X37675Y50764D01*
X37775Y50764D01*
X37775Y50664D01*
X37775Y50564D01*
X37775Y50464D01*
X37775Y50365D01*
X37775Y50265D01*
X37775Y50165D01*
X37775Y50065D01*
X37775Y49965D01*
X37775Y49865D01*
X37775Y49766D01*
X37775Y49666D01*
X37775Y49566D01*
X37775Y49466D01*
X37775Y49366D01*
X37775Y49267D01*
X37775Y49167D01*
X37775Y49067D01*
X37775Y48967D01*
X37775Y48867D01*
X37775Y48767D01*
X37775Y48668D01*
X37775Y48568D01*
X37775Y48468D01*
X37775Y48368D01*
X37775Y48268D01*
X37720Y48224D01*
X37620Y48224D01*
X37520Y48224D01*
X37420Y48224D01*
X37320Y48224D01*
X37220Y48224D01*
X37121Y48224D01*
X37021Y48224D01*
X36921Y48224D01*
X36821Y48224D01*
X36721Y48224D01*
X36621Y48224D01*
X36522Y48224D01*
X36422Y48224D01*
X36322Y48224D01*
X36222Y48224D01*
X36122Y48224D01*
X36023Y48224D01*
X35923Y48224D01*
X35823Y48224D01*
X35723Y48224D01*
X35623Y48224D01*
X35523Y48224D01*
X35424Y48224D01*
X35324Y48224D01*
X35224Y48224D01*
X35124Y48224D01*
X35024Y48224D01*
X34924Y48224D01*
X34825Y48224D01*
X34725Y48224D01*
X34625Y48224D01*
X34525Y48224D01*
X34425Y48224D01*
X34325Y48224D01*
X34226Y48224D01*
X34126Y48224D01*
X34026Y48224D01*
X33926Y48224D01*
X33826Y48224D01*
X33727Y48224D01*
X33627Y48224D01*
X33527Y48224D01*
X33427Y48224D01*
X33327Y48224D01*
X33227Y48224D01*
X33128Y48224D01*
X33028Y48224D01*
X32928Y48224D01*
X32828Y48224D01*
X32728Y48224D01*
X32628Y48224D01*
X32529Y48224D01*
X32429Y48224D01*
X32329Y48224D01*
X32229Y48224D01*
X32129Y48224D01*
X32030Y48224D01*
X31930Y48224D01*
X31830Y48224D01*
X31730Y48224D01*
X31630Y48224D01*
X31530Y48224D01*
X31431Y48224D01*
X31331Y48224D01*
X31231Y48224D01*
X31131Y48224D01*
X31031Y48224D01*
X30931Y48224D01*
X30832Y48224D01*
X30732Y48224D01*
X30632Y48224D01*
X30532Y48224D01*
X30432Y48224D01*
X30333Y48224D01*
X30233Y48224D01*
X30133Y48224D01*
X30033Y48224D01*
X29933Y48224D01*
X29833Y48224D01*
X29734Y48224D01*
X29634Y48224D01*
X29534Y48224D01*
X29434Y48224D01*
X29334Y48224D01*
X29234Y48224D01*
X29135Y48224D01*
X29035Y48224D01*
X28935Y48224D01*
X28835Y48224D01*
X28735Y48224D01*
X28635Y48224D01*
X28536Y48224D01*
X28436Y48224D01*
X28336Y48224D01*
X28236Y48224D01*
X28136Y48224D01*
X28037Y48224D01*
X27937Y48224D01*
X27837Y48224D01*
X27737Y48224D01*
X27637Y48224D01*
X27537Y48224D01*
X27438Y48224D01*
X27338Y48224D01*
X27238Y48224D01*
X27138Y48224D01*
X27038Y48224D01*
X26938Y48224D01*
X26839Y48224D01*
X26739Y48224D01*
X26639Y48224D01*
X26539Y48224D01*
X26439Y48224D01*
X26340Y48224D01*
X26240Y48224D01*
X26140Y48224D01*
X26040Y48224D01*
X25940Y48224D01*
X25840Y48224D01*
X25741Y48224D01*
X25641Y48224D01*
X25541Y48224D01*
X25441Y48224D01*
X25341Y48224D01*
X25241Y48224D01*
X25142Y48224D01*
X25042Y48224D01*
X24942Y48224D01*
X24842Y48224D01*
X24742Y48224D01*
X24642Y48224D01*
X24543Y48224D01*
X24443Y48224D01*
X24343Y48224D01*
X24243Y48224D01*
X24143Y48224D01*
X24044Y48224D01*
X23944Y48224D01*
X23844Y48224D01*
X23744Y48224D01*
X23644Y48224D01*
X23544Y48224D01*
X23445Y48224D01*
X23345Y48224D01*
X23245Y48224D01*
X23145Y48224D01*
X23045Y48224D01*
X22945Y48224D01*
X22846Y48224D01*
X22746Y48224D01*
X22646Y48224D01*
X22546Y48224D01*
X22446Y48224D01*
X22346Y48224D01*
X22247Y48224D01*
X22147Y48224D01*
X22047Y48224D01*
X21947Y48224D01*
X21847Y48224D01*
X21748Y48224D01*
X21648Y48224D01*
X21548Y48224D01*
X21448Y48224D01*
X21348Y48224D01*
X21248Y48224D01*
X21149Y48224D01*
X21049Y48224D01*
X20949Y48224D01*
X20849Y48224D01*
X20749Y48224D01*
X20649Y48224D01*
X20550Y48224D01*
X20450Y48224D01*
X20350Y48224D01*
X20250Y48224D01*
X20150Y48224D01*
X20051Y48224D01*
X19951Y48224D01*
X19851Y48224D01*
X19751Y48224D01*
X19651Y48224D01*
X19551Y48224D01*
X19452Y48224D01*
X19352Y48224D01*
X19252Y48224D01*
X19152Y48224D01*
X19052Y48224D01*
X18952Y48224D01*
X18853Y48224D01*
X18753Y48224D01*
X18653Y48224D01*
X18553Y48224D01*
X18453Y48224D01*
X18353Y48224D01*
X18254Y48224D01*
X18154Y48224D01*
X18054Y48224D01*
X17954Y48224D01*
X17854Y48224D01*
X17755Y48224D01*
X17655Y48224D01*
X17555Y48224D01*
X17455Y48224D01*
D11*
X10393Y34687D02*
X10393Y35353D01*
X10726Y35353D01*
X10837Y35242D01*
X10837Y35131D01*
X10726Y35020D01*
X10393Y35020D01*
D11*
X10726Y35020D02*
X10837Y34909D01*
X10837Y34687D01*
D11*
X11060Y34687D02*
X11060Y35353D01*
X11393Y35353D01*
X11504Y35242D01*
X11504Y35131D01*
X11393Y35020D01*
X11060Y35020D01*
D13*
X12948Y36020D02*
X12948Y34020D01*
D13*
X8948Y34020D02*
X8948Y36020D01*
D13*
X12948Y36020D02*
X12939Y36115D01*
X12923Y36210D01*
X12900Y36303D01*
X12872Y36395D01*
X12837Y36484D01*
X12797Y36571D01*
X12751Y36655D01*
X12699Y36736D01*
X12642Y36813D01*
X12580Y36886D01*
X12513Y36955D01*
X12442Y37020D01*
X12367Y37079D01*
X12288Y37133D01*
X12205Y37182D01*
X12120Y37226D01*
X12032Y37263D01*
X11941Y37295D01*
X11848Y37320D01*
D13*
X8948Y34020D02*
X8958Y33925D01*
X8974Y33830D01*
X8997Y33737D01*
X9025Y33645D01*
X9060Y33556D01*
X9100Y33469D01*
X9146Y33385D01*
X9198Y33304D01*
X9255Y33227D01*
X9317Y33154D01*
X9384Y33085D01*
X9455Y33020D01*
X9530Y32961D01*
X9609Y32907D01*
X9692Y32858D01*
X9777Y32814D01*
X9865Y32777D01*
X9956Y32745D01*
X10048Y32720D01*
D13*
X12948Y34020D02*
X12939Y33925D01*
X12923Y33830D01*
X12900Y33737D01*
X12872Y33645D01*
X12837Y33556D01*
X12797Y33469D01*
X12751Y33385D01*
X12699Y33304D01*
X12642Y33227D01*
X12580Y33154D01*
X12513Y33085D01*
X12442Y33020D01*
X12367Y32961D01*
X12288Y32907D01*
X12205Y32858D01*
X12120Y32814D01*
X12032Y32777D01*
X11941Y32745D01*
X11848Y32720D01*
D13*
X8948Y36020D02*
X8958Y36115D01*
X8974Y36210D01*
X8997Y36303D01*
X9025Y36395D01*
X9060Y36484D01*
X9100Y36571D01*
X9146Y36655D01*
X9198Y36736D01*
X9255Y36813D01*
X9317Y36886D01*
X9384Y36955D01*
X9455Y37020D01*
X9530Y37079D01*
X9609Y37133D01*
X9692Y37182D01*
X9777Y37226D01*
X9865Y37263D01*
X9956Y37295D01*
X10048Y37320D01*
D11*
X25634Y40345D02*
X25634Y40289D01*
X25746Y40178D01*
X25912Y40178D01*
X26023Y40289D01*
X26023Y40845D01*
D11*
X25912Y40845D02*
X26079Y40845D01*
D11*
X26301Y40178D02*
X26301Y40845D01*
X26634Y40845D01*
X26746Y40733D01*
X26746Y40622D01*
X26634Y40511D01*
X26301Y40511D01*
D11*
X29857Y40733D02*
X29857Y40761D01*
X29940Y40845D01*
X30162Y40845D01*
X30246Y40761D01*
X30246Y40650D01*
X30107Y40511D01*
X30246Y40372D01*
X30246Y40261D01*
X30162Y40178D01*
X29940Y40178D01*
X29857Y40261D01*
X29857Y40289D01*
D11*
X30023Y40511D02*
X30107Y40511D01*
D11*
X25704Y14945D02*
X25704Y14889D01*
X25815Y14778D01*
X25982Y14778D01*
X26093Y14889D01*
X26093Y15445D01*
D11*
X25982Y15445D02*
X26148Y15445D01*
D11*
X26371Y14778D02*
X26371Y15445D01*
X26704Y15445D01*
X26815Y15333D01*
X26815Y15222D01*
X26704Y15111D01*
X26371Y15111D01*
D11*
X30065Y14778D02*
X30065Y15445D01*
X30009Y15445D01*
X29926Y15333D01*
D11*
X29926Y14778D02*
X30176Y14778D01*
D11*
X26107Y27880D02*
X26107Y28547D01*
D11*
X25884Y28547D02*
X26329Y28547D01*
D11*
X26551Y28380D02*
X26551Y27880D01*
D11*
X26551Y28242D02*
X26690Y28380D01*
X26801Y28380D01*
X26884Y28297D01*
X26884Y27880D01*
D11*
X26884Y28297D02*
X26940Y28380D01*
X27079Y28380D01*
X27218Y28242D01*
X27218Y27880D01*
D11*
X27440Y27714D02*
X27440Y28380D01*
D11*
X27440Y28242D02*
X27579Y28380D01*
X27801Y28380D01*
X27940Y28242D01*
X27940Y28103D01*
X27801Y27964D01*
X27579Y27964D01*
X27440Y28103D01*
D11*
X29607Y28436D02*
X29607Y28464D01*
X29690Y28547D01*
X29912Y28547D01*
X29996Y28464D01*
X29996Y28269D01*
X29607Y27880D01*
X29996Y27880D01*
D12*
X26670Y32024D02*
X26770Y32024D01*
X26869Y32024D01*
X26969Y32024D01*
X27068Y32024D01*
X27168Y32024D01*
X27268Y32024D01*
X27367Y32024D01*
X27467Y32024D01*
X27566Y32024D01*
X27666Y32024D01*
X27766Y32024D01*
X27865Y32024D01*
X27965Y32024D01*
X28064Y32024D01*
X28164Y32024D01*
X28264Y32024D01*
X28363Y32024D01*
X28463Y32024D01*
X28563Y32024D01*
X28662Y32024D01*
X28762Y32024D01*
X28861Y32024D01*
X28961Y32024D01*
X29061Y32024D01*
X29160Y32024D01*
X29210Y31974D01*
X29210Y31874D01*
X29210Y31775D01*
X29210Y31675D01*
X29210Y31575D01*
X29210Y31476D01*
X29210Y31376D01*
X29210Y31277D01*
X29210Y31177D01*
X29210Y31077D01*
X29210Y30978D01*
X29210Y30878D01*
X29210Y30779D01*
X29210Y30679D01*
X29210Y30579D01*
X29210Y30480D01*
X29210Y30380D01*
X29210Y30281D01*
X29210Y30181D01*
X29210Y30081D01*
X29210Y29982D01*
X29210Y29882D01*
X29210Y29783D01*
X29210Y29683D01*
X29210Y29583D01*
X29210Y29484D01*
X29210Y29384D01*
X29210Y29285D01*
X29210Y29185D01*
X29210Y29085D01*
X29210Y28986D01*
X29210Y28886D01*
X29210Y28786D01*
X29210Y28687D01*
X29210Y28587D01*
X29210Y28488D01*
X29210Y28388D01*
X29210Y28288D01*
X29210Y28189D01*
X29210Y28089D01*
X29210Y27990D01*
X29210Y27890D01*
X29210Y27790D01*
X29210Y27691D01*
X29210Y27591D01*
X29210Y27492D01*
X29210Y27392D01*
X29210Y27292D01*
X29210Y27193D01*
X29210Y27093D01*
X29210Y26994D01*
X29210Y26894D01*
X29210Y26794D01*
X29210Y26695D01*
X29210Y26595D01*
X29210Y26496D01*
X29210Y26396D01*
X29210Y26296D01*
X29210Y26197D01*
X29210Y26097D01*
X29210Y25997D01*
X29210Y25898D01*
X29210Y25798D01*
X29210Y25699D01*
X29210Y25599D01*
X29210Y25499D01*
X29210Y25400D01*
X29210Y25300D01*
X29210Y25201D01*
X29210Y25101D01*
X29210Y25001D01*
X29210Y24902D01*
X29210Y24802D01*
X29210Y24703D01*
X29210Y24603D01*
X29210Y24503D01*
X29210Y24404D01*
X29110Y24404D01*
X29011Y24404D01*
X28911Y24404D01*
X28812Y24404D01*
X28712Y24404D01*
X28612Y24404D01*
X28513Y24404D01*
X28413Y24404D01*
X28314Y24404D01*
X28214Y24404D01*
X28114Y24404D01*
X28015Y24404D01*
X27915Y24404D01*
X27816Y24404D01*
X27716Y24404D01*
X27616Y24404D01*
X27517Y24404D01*
X27417Y24404D01*
X27317Y24404D01*
X27218Y24404D01*
X27118Y24404D01*
X27019Y24404D01*
X26919Y24404D01*
X26819Y24404D01*
X26720Y24404D01*
X26670Y24454D01*
X26670Y24553D01*
X26670Y24653D01*
X26670Y24752D01*
X26670Y24852D01*
X26670Y24952D01*
X26670Y25051D01*
X26670Y25151D01*
X26670Y25250D01*
X26670Y25350D01*
X26670Y25450D01*
X26670Y25549D01*
X26670Y25649D01*
X26670Y25748D01*
X26670Y25848D01*
X26670Y25948D01*
X26670Y26047D01*
X26670Y26147D01*
X26670Y26246D01*
X26670Y26346D01*
X26670Y26446D01*
X26670Y26545D01*
X26670Y26645D01*
X26670Y26744D01*
X26670Y26844D01*
X26670Y26944D01*
X26670Y27043D01*
X26670Y27143D01*
X26670Y27243D01*
X26670Y27342D01*
X26670Y27442D01*
X26670Y27541D01*
X26670Y27641D01*
X26670Y27741D01*
X26670Y27840D01*
X26670Y27940D01*
X26670Y28039D01*
X26670Y28139D01*
X26670Y28239D01*
X26670Y28338D01*
X26670Y28438D01*
X26670Y28537D01*
X26670Y28637D01*
X26670Y28737D01*
X26670Y28836D01*
X26670Y28936D01*
X26670Y29035D01*
X26670Y29135D01*
X26670Y29235D01*
X26670Y29334D01*
X26670Y29434D01*
X26670Y29534D01*
X26670Y29633D01*
X26670Y29733D01*
X26670Y29832D01*
X26670Y29932D01*
X26670Y30032D01*
X26670Y30131D01*
X26670Y30231D01*
X26670Y30330D01*
X26670Y30430D01*
X26670Y30530D01*
X26670Y30629D01*
X26670Y30729D01*
X26670Y30828D01*
X26670Y30928D01*
X26670Y31028D01*
X26670Y31127D01*
X26670Y31227D01*
X26670Y31326D01*
X26670Y31426D01*
X26670Y31526D01*
X26670Y31625D01*
X26670Y31725D01*
X26670Y31824D01*
X26670Y31924D01*
X26670Y32024D01*
D11*
X14723Y40307D02*
X14723Y40973D01*
X15056Y40973D01*
X15168Y40862D01*
X15168Y40751D01*
X15056Y40640D01*
X14723Y40640D01*
D11*
X15056Y40640D02*
X15168Y40529D01*
X15168Y40307D01*
D11*
X17890Y40307D02*
X17890Y40973D01*
X17834Y40973D01*
X17556Y40557D01*
X17556Y40446D01*
X17945Y40446D01*
D11*
X18168Y40307D02*
X18187Y40307D01*
X18187Y40326D01*
X18168Y40307D01*
D11*
X18576Y40307D02*
X18576Y40529D01*
X18798Y40862D01*
X18798Y40973D01*
X18409Y40973D01*
D11*
X19743Y40307D02*
X19743Y40973D01*
D11*
X19743Y40529D02*
X20187Y40946D01*
X20187Y40973D01*
D11*
X20187Y40307D02*
X20187Y40334D01*
X19909Y40668D01*
D14*
X13645Y40640D02*
X14026Y40640D01*
D15*
X14280Y41529D02*
X14299Y41626D01*
X14354Y41709D01*
X14437Y41764D01*
X14534Y41783D01*
D15*
X14280Y39751D02*
X14299Y39654D01*
X14354Y39571D01*
X14437Y39516D01*
X14534Y39497D01*
D15*
X20376Y39497D02*
X20473Y39516D01*
X20556Y39571D01*
X20611Y39654D01*
X20630Y39751D01*
D15*
X20376Y41783D02*
X20473Y41764D01*
X20556Y41709D01*
X20611Y41626D01*
X20630Y41529D01*
D15*
X14280Y39751D02*
X14280Y41529D01*
D15*
X14534Y41783D02*
X14915Y41783D01*
D15*
X15042Y41656D02*
X14915Y41783D01*
D15*
X14534Y39497D02*
X14915Y39497D01*
D15*
X15042Y39624D02*
X14915Y39497D01*
D15*
X19868Y41656D02*
X19995Y41783D01*
D15*
X19868Y41656D02*
X15042Y41656D01*
D15*
X19868Y39624D02*
X19995Y39497D01*
D15*
X19868Y39624D02*
X15042Y39624D01*
D15*
X20376Y41783D02*
X19995Y41783D01*
D15*
X20376Y39497D02*
X19995Y39497D01*
D15*
X20630Y39751D02*
X20630Y41529D01*
D14*
X20884Y40640D02*
X21265Y40640D01*
D16*
X14026Y40945D02*
X14280Y40945D01*
X14280Y40335D01*
X14026Y40335D01*
X14026Y40945D01*
G36*
X14026Y40945D02*
X14280Y40945D01*
X14280Y40335D01*
X14026Y40335D01*
X14026Y40945D01*
G37*
D16*
X20630Y40945D02*
X20884Y40945D01*
X20884Y40335D01*
X20630Y40335D01*
X20630Y40945D01*
G36*
X20630Y40945D02*
X20884Y40945D01*
X20884Y40335D01*
X20630Y40335D01*
X20630Y40945D01*
G37*
D11*
X15084Y27880D02*
X15084Y28547D01*
X15418Y28547D01*
X15529Y28436D01*
X15529Y28325D01*
X15418Y28214D01*
X15084Y28214D01*
D11*
X15418Y28214D02*
X15529Y28103D01*
X15529Y27880D01*
D11*
X17529Y27880D02*
X17529Y28547D01*
X17473Y28547D01*
X17195Y28130D01*
X17195Y28019D01*
X17584Y28019D01*
D11*
X17806Y27880D02*
X17826Y27880D01*
X17826Y27900D01*
X17806Y27880D01*
D11*
X18215Y27880D02*
X18215Y28103D01*
X18437Y28436D01*
X18437Y28547D01*
X18048Y28547D01*
D11*
X19381Y27880D02*
X19381Y28547D01*
D11*
X19381Y28103D02*
X19826Y28519D01*
X19826Y28547D01*
D11*
X19826Y27880D02*
X19826Y27908D01*
X19548Y28242D01*
D14*
X13645Y28214D02*
X14026Y28214D01*
D15*
X14280Y29103D02*
X14299Y29200D01*
X14354Y29282D01*
X14437Y29337D01*
X14534Y29357D01*
D15*
X14280Y27325D02*
X14299Y27228D01*
X14354Y27145D01*
X14437Y27090D01*
X14534Y27071D01*
D15*
X20376Y27071D02*
X20473Y27090D01*
X20556Y27145D01*
X20611Y27228D01*
X20630Y27325D01*
D15*
X20376Y29357D02*
X20473Y29337D01*
X20556Y29282D01*
X20611Y29200D01*
X20630Y29103D01*
D15*
X14280Y27325D02*
X14280Y29103D01*
D15*
X14534Y29357D02*
X14915Y29357D01*
D15*
X15042Y29230D02*
X14915Y29357D01*
D15*
X14534Y27071D02*
X14915Y27071D01*
D15*
X15042Y27198D02*
X14915Y27071D01*
D15*
X19868Y29230D02*
X19995Y29357D01*
D15*
X19868Y29230D02*
X15042Y29230D01*
D15*
X19868Y27198D02*
X19995Y27071D01*
D15*
X19868Y27198D02*
X15042Y27198D01*
D15*
X20376Y29357D02*
X19995Y29357D01*
D15*
X20376Y27071D02*
X19995Y27071D01*
D15*
X20630Y27325D02*
X20630Y29103D01*
D14*
X20884Y28214D02*
X21265Y28214D01*
D16*
X14026Y28519D02*
X14280Y28519D01*
X14280Y27909D01*
X14026Y27909D01*
X14026Y28519D01*
G36*
X14026Y28519D02*
X14280Y28519D01*
X14280Y27909D01*
X14026Y27909D01*
X14026Y28519D01*
G37*
D16*
X20630Y28519D02*
X20884Y28519D01*
X20884Y27909D01*
X20630Y27909D01*
X20630Y28519D01*
G36*
X20630Y28519D02*
X20884Y28519D01*
X20884Y27909D01*
X20630Y27909D01*
X20630Y28519D01*
G37*
D11*
X14723Y15055D02*
X14723Y15722D01*
X15056Y15722D01*
X15168Y15610D01*
X15168Y15499D01*
X15056Y15388D01*
X14723Y15388D01*
D11*
X15056Y15388D02*
X15168Y15277D01*
X15168Y15055D01*
D11*
X17890Y15055D02*
X17890Y15722D01*
X17834Y15722D01*
X17556Y15305D01*
X17556Y15194D01*
X17945Y15194D01*
D11*
X18168Y15055D02*
X18187Y15055D01*
X18187Y15074D01*
X18168Y15055D01*
D11*
X18576Y15055D02*
X18576Y15277D01*
X18798Y15610D01*
X18798Y15722D01*
X18409Y15722D01*
D11*
X19743Y15055D02*
X19743Y15722D01*
D11*
X19743Y15138D02*
X20187Y15527D01*
X20187Y15555D01*
D11*
X19965Y15333D02*
X20187Y15083D01*
X20187Y15055D01*
D14*
X13645Y15388D02*
X14026Y15388D01*
D15*
X14280Y16277D02*
X14299Y16374D01*
X14354Y16457D01*
X14437Y16512D01*
X14534Y16531D01*
D15*
X14280Y14499D02*
X14299Y14402D01*
X14354Y14320D01*
X14437Y14265D01*
X14534Y14245D01*
D15*
X20376Y14245D02*
X20473Y14265D01*
X20556Y14320D01*
X20611Y14402D01*
X20630Y14499D01*
D15*
X20376Y16531D02*
X20473Y16512D01*
X20556Y16457D01*
X20611Y16374D01*
X20630Y16277D01*
D15*
X14280Y14499D02*
X14280Y16277D01*
D15*
X14534Y16531D02*
X14915Y16531D01*
D15*
X15042Y16404D02*
X14915Y16531D01*
D15*
X14534Y14245D02*
X14915Y14245D01*
D15*
X15042Y14372D02*
X14915Y14245D01*
D15*
X19868Y16404D02*
X19995Y16531D01*
D15*
X19868Y16404D02*
X15042Y16404D01*
D15*
X19868Y14372D02*
X19995Y14245D01*
D15*
X19868Y14372D02*
X15042Y14372D01*
D15*
X20376Y16531D02*
X19995Y16531D01*
D15*
X20376Y14245D02*
X19995Y14245D01*
D15*
X20630Y14499D02*
X20630Y16277D01*
D14*
X20884Y15388D02*
X21265Y15388D01*
D16*
X14026Y15693D02*
X14280Y15693D01*
X14280Y15083D01*
X14026Y15083D01*
X14026Y15693D01*
G36*
X14026Y15693D02*
X14280Y15693D01*
X14280Y15083D01*
X14026Y15083D01*
X14026Y15693D01*
G37*
D16*
X20630Y15693D02*
X20884Y15693D01*
X20884Y15083D01*
X20630Y15083D01*
X20630Y15693D01*
G36*
X20630Y15693D02*
X20884Y15693D01*
X20884Y15083D01*
X20630Y15083D01*
X20630Y15693D01*
G37*
D11*
X9165Y21128D02*
X9165Y21795D01*
X9498Y21795D01*
X9609Y21683D01*
X9609Y21572D01*
X9498Y21461D01*
X9165Y21461D01*
D11*
X9498Y21461D02*
X9609Y21350D01*
X9609Y21128D01*
D11*
X10693Y21128D02*
X10693Y21795D01*
X10637Y21795D01*
X10554Y21683D01*
D11*
X10554Y21128D02*
X10804Y21128D01*
D11*
X11026Y21128D02*
X11045Y21128D01*
X11045Y21147D01*
X11026Y21128D01*
D11*
X11351Y21128D02*
X11268Y21211D01*
X11268Y21711D01*
X11351Y21795D01*
X11573Y21795D01*
X11656Y21711D01*
X11656Y21211D01*
X11573Y21128D01*
X11351Y21128D01*
D11*
X11268Y21295D02*
X11656Y21628D01*
D11*
X12601Y21128D02*
X12601Y21795D01*
D11*
X12601Y21211D02*
X13045Y21600D01*
X13045Y21628D01*
D11*
X12823Y21406D02*
X13045Y21156D01*
X13045Y21128D01*
D14*
X11105Y25271D02*
X11105Y24890D01*
D15*
X11994Y24636D02*
X12091Y24617D01*
X12174Y24562D01*
X12229Y24479D01*
X12248Y24382D01*
D15*
X10216Y24636D02*
X10119Y24617D01*
X10036Y24562D01*
X9981Y24479D01*
X9962Y24382D01*
D15*
X9962Y18540D02*
X9981Y18443D01*
X10036Y18361D01*
X10119Y18306D01*
X10216Y18286D01*
D15*
X12248Y18540D02*
X12229Y18443D01*
X12174Y18361D01*
X12091Y18306D01*
X11994Y18286D01*
D15*
X10216Y24636D02*
X11994Y24636D01*
D15*
X12248Y24382D02*
X12248Y24001D01*
D15*
X12121Y23874D02*
X12248Y24001D01*
D15*
X9962Y24382D02*
X9962Y24001D01*
D15*
X10089Y23874D02*
X9962Y24001D01*
D15*
X12121Y19048D02*
X12248Y18921D01*
D15*
X12121Y19048D02*
X12121Y23874D01*
D15*
X10089Y19048D02*
X9962Y18921D01*
D15*
X10089Y19048D02*
X10089Y23874D01*
D15*
X12248Y18540D02*
X12248Y18921D01*
D15*
X9962Y18540D02*
X9962Y18921D01*
D15*
X10216Y18286D02*
X11994Y18286D01*
D14*
X11105Y18032D02*
X11105Y17651D01*
D16*
X11410Y24890D02*
X11410Y24636D01*
X10800Y24636D01*
X10800Y24890D01*
X11410Y24890D01*
G36*
X11410Y24890D02*
X11410Y24636D01*
X10800Y24636D01*
X10800Y24890D01*
X11410Y24890D01*
G37*
D16*
X11410Y18286D02*
X11410Y18032D01*
X10800Y18032D01*
X10800Y18286D01*
X11410Y18286D01*
G36*
X11410Y18286D02*
X11410Y18032D01*
X10800Y18032D01*
X10800Y18286D01*
X11410Y18286D01*
G37*
D17*
X3931Y44462D02*
X7458Y44462D01*
X7458Y42405D01*
X6870Y41817D01*
X6282Y41817D01*
X5694Y42405D01*
X5694Y44462D01*
D17*
X5694Y42405D02*
X5107Y41817D01*
X4519Y41817D01*
X3931Y42405D01*
X3931Y44462D01*
D17*
X3931Y40054D02*
X4519Y40641D01*
X6870Y40641D01*
X7458Y40054D01*
X7458Y38584D01*
X6870Y37996D01*
X4519Y37996D01*
X3931Y38584D01*
X3931Y40054D01*
D17*
X3931Y36821D02*
X7458Y36821D01*
X7458Y34763D01*
X6870Y34175D01*
X6282Y34175D01*
X5694Y34763D01*
X5694Y36821D01*
D17*
X5694Y34763D02*
X5107Y34175D01*
X4519Y34175D01*
X3931Y34763D01*
X3931Y36821D01*
D17*
X7458Y32706D02*
X7458Y32706D01*
D17*
X6576Y33000D02*
X6576Y32706D01*
X3931Y32706D01*
D17*
X3931Y33000D02*
X3931Y32412D01*
D17*
X3931Y31236D02*
X6576Y31236D01*
D17*
X5694Y31236D02*
X6576Y30354D01*
X6576Y29326D01*
X5841Y28591D01*
X3931Y28591D01*
D17*
X4666Y27415D02*
X5841Y27415D01*
X6576Y26680D01*
X6576Y25505D01*
X5841Y24770D01*
X4666Y24770D01*
X3931Y25505D01*
X3931Y26680D01*
X4666Y27415D01*
D17*
X7458Y19773D02*
X5401Y19773D01*
X3931Y18598D01*
X5401Y17422D01*
X7458Y17422D01*
D17*
X3931Y15512D02*
X7458Y15512D01*
X7458Y15805D01*
X6870Y16246D01*
D17*
X3931Y16246D02*
X3931Y14924D01*
D17*
X3931Y13748D02*
X3931Y13645D01*
X4034Y13645D01*
X3931Y13748D01*
D17*
X6870Y10412D02*
X7017Y10412D01*
X7458Y10853D01*
X7458Y12029D01*
X7017Y12470D01*
X4372Y12470D01*
X3931Y12029D01*
X3931Y10853D01*
X4372Y10412D01*
X5254Y10412D01*
X5694Y10853D01*
X5694Y12470D01*
D17*
X3931Y9236D02*
X7458Y9236D01*
D17*
X5694Y9236D02*
X5694Y6885D01*
D17*
X3931Y6885D02*
X7458Y6885D01*
D18*
X34533Y31779D02*
X34533Y32396D01*
X35591Y32396D01*
X35591Y31779D01*
D18*
X35062Y31867D02*
X35062Y32396D01*
D18*
X34533Y31427D02*
X35327Y31427D01*
D18*
X35062Y31427D02*
X35327Y31162D01*
X35327Y30854D01*
X35106Y30633D01*
X34533Y30633D01*
D18*
X35327Y30280D02*
X34886Y30280D01*
X34533Y29928D01*
X34533Y29840D01*
X34886Y29487D01*
X35327Y29487D01*
D18*
X35591Y29046D02*
X35591Y29046D01*
D18*
X35327Y29134D02*
X35327Y29046D01*
X34533Y29046D01*
D18*
X34533Y29134D02*
X34533Y28958D01*
D18*
X34533Y28605D02*
X35327Y28605D01*
D18*
X34974Y28605D02*
X35327Y28297D01*
X35327Y27944D01*
X35194Y27812D01*
X35150Y27812D01*
D18*
X34754Y27459D02*
X35106Y27459D01*
X35327Y27239D01*
X35327Y26886D01*
X35106Y26666D01*
X34754Y26666D01*
X34533Y26886D01*
X34533Y27239D01*
X34754Y27459D01*
D18*
X34533Y26313D02*
X35327Y26313D01*
D18*
X35062Y26313D02*
X35327Y26048D01*
X35327Y25740D01*
X35106Y25519D01*
X34533Y25519D01*
D18*
X35327Y25167D02*
X34533Y25167D01*
D18*
X35106Y25167D02*
X35327Y24946D01*
X35327Y24770D01*
X35194Y24638D01*
X34533Y24638D01*
D18*
X35194Y24638D02*
X35327Y24550D01*
X35327Y24329D01*
X35106Y24109D01*
X34533Y24109D01*
D18*
X34533Y23051D02*
X34533Y23536D01*
X34754Y23756D01*
X35106Y23756D01*
X35327Y23536D01*
X35327Y23183D01*
X35106Y22963D01*
X34930Y22963D01*
X34930Y23756D01*
D18*
X34533Y22610D02*
X35327Y22610D01*
D18*
X35062Y22610D02*
X35327Y22345D01*
X35327Y22037D01*
X35106Y21816D01*
X34533Y21816D01*
D18*
X35591Y21332D02*
X34709Y21332D01*
X34533Y21155D01*
X34533Y20891D01*
X34665Y20758D01*
X34709Y20758D01*
D18*
X35327Y21464D02*
X35327Y21111D01*
D18*
X35327Y20274D02*
X35327Y19877D01*
X35150Y19656D01*
X34533Y19656D01*
X34533Y20229D01*
X34754Y20406D01*
X34974Y20229D01*
X34974Y19656D01*
D18*
X35591Y19304D02*
X35591Y19127D01*
X34533Y19127D01*
D18*
X34533Y19304D02*
X34533Y18951D01*
D19*
X23100Y43627D02*
X24511Y43627D01*
D19*
X24511Y44098D02*
X24511Y43157D01*
D19*
X23100Y41746D02*
X23100Y42393D01*
X23393Y42687D01*
X23864Y42687D01*
X24158Y42393D01*
X24158Y41922D01*
X23864Y41628D01*
X23629Y41628D01*
X23629Y42687D01*
D19*
X24158Y41158D02*
X23100Y41158D01*
D19*
X23864Y41158D02*
X24158Y40864D01*
X24158Y40629D01*
X23981Y40452D01*
X23100Y40452D01*
D19*
X23981Y40452D02*
X24158Y40335D01*
X24158Y40041D01*
X23864Y39747D01*
X23100Y39747D01*
D19*
X22747Y39277D02*
X24158Y39277D01*
D19*
X23864Y39277D02*
X24158Y38983D01*
X24158Y38512D01*
X23864Y38218D01*
X23570Y38218D01*
X23276Y38512D01*
X23276Y38983D01*
X23570Y39277D01*
D19*
X24275Y37748D02*
X24334Y37748D01*
X24511Y37572D01*
X24511Y37101D01*
X24334Y36925D01*
X24099Y36925D01*
X23805Y37219D01*
X23511Y36925D01*
X23276Y36925D01*
X23100Y37101D01*
X23100Y37572D01*
X23276Y37748D01*
X23335Y37748D01*
D19*
X23805Y37395D02*
X23805Y37219D01*
D19*
X23100Y31056D02*
X24511Y31056D01*
D19*
X24511Y31526D02*
X24511Y30586D01*
D19*
X23100Y29175D02*
X23100Y29821D01*
X23393Y30115D01*
X23864Y30115D01*
X24158Y29821D01*
X24158Y29351D01*
X23864Y29057D01*
X23629Y29057D01*
X23629Y30115D01*
D19*
X24158Y28587D02*
X23100Y28587D01*
D19*
X23864Y28587D02*
X24158Y28293D01*
X24158Y28058D01*
X23981Y27881D01*
X23100Y27881D01*
D19*
X23981Y27881D02*
X24158Y27764D01*
X24158Y27470D01*
X23864Y27176D01*
X23100Y27176D01*
D19*
X22747Y26705D02*
X24158Y26705D01*
D19*
X23864Y26705D02*
X24158Y26411D01*
X24158Y25941D01*
X23864Y25647D01*
X23570Y25647D01*
X23276Y25941D01*
X23276Y26411D01*
X23570Y26705D01*
D19*
X24275Y25177D02*
X24334Y25177D01*
X24511Y25000D01*
X24511Y24530D01*
X24334Y24354D01*
X23923Y24354D01*
X23100Y25177D01*
X23100Y24354D01*
D19*
X23100Y18080D02*
X24511Y18080D01*
D19*
X24511Y18551D02*
X24511Y17610D01*
D19*
X23100Y16199D02*
X23100Y16846D01*
X23393Y17140D01*
X23864Y17140D01*
X24158Y16846D01*
X24158Y16375D01*
X23864Y16081D01*
X23629Y16081D01*
X23629Y17140D01*
D19*
X24158Y15611D02*
X23100Y15611D01*
D19*
X23864Y15611D02*
X24158Y15317D01*
X24158Y15082D01*
X23981Y14905D01*
X23100Y14905D01*
D19*
X23981Y14905D02*
X24158Y14788D01*
X24158Y14494D01*
X23864Y14200D01*
X23100Y14200D01*
D19*
X22747Y13730D02*
X24158Y13730D01*
D19*
X23864Y13730D02*
X24158Y13436D01*
X24158Y12965D01*
X23864Y12671D01*
X23570Y12671D01*
X23276Y12965D01*
X23276Y13436D01*
X23570Y13730D01*
D19*
X23100Y11907D02*
X24511Y11907D01*
X24511Y12025D01*
X24275Y12201D01*
D19*
X23100Y12201D02*
X23100Y11672D01*
D19*
X2083Y42097D02*
X848Y42097D01*
X672Y42274D01*
X672Y42861D01*
D19*
X1142Y42097D02*
X1142Y42920D01*
X1377Y43155D01*
X1789Y43155D01*
X2083Y42861D01*
X2083Y42450D01*
X1730Y42097D01*
D19*
X2436Y41509D02*
X2436Y41509D01*
D19*
X2083Y41627D02*
X2083Y41509D01*
X1025Y41509D01*
D19*
X1025Y41627D02*
X1025Y41392D01*
D19*
X2436Y40745D02*
X1260Y40745D01*
X1025Y40510D01*
X1025Y40157D01*
X1201Y39981D01*
X1260Y39981D01*
D19*
X2083Y40921D02*
X2083Y40451D01*
D19*
X1025Y39510D02*
X2436Y39510D01*
D19*
X1025Y38570D02*
X1789Y38570D01*
X2083Y38864D01*
X2083Y39158D01*
X1789Y39510D01*
D19*
X2083Y37041D02*
X1025Y37041D01*
D19*
X2083Y38099D02*
X1319Y38099D01*
X1025Y37805D01*
X1025Y37335D01*
X1319Y37041D01*
D19*
X2436Y36571D02*
X1025Y36571D01*
X1025Y35806D01*
X1260Y35513D01*
X1789Y35513D01*
X2083Y35806D01*
X2083Y36218D01*
X1730Y36571D01*
D19*
X1025Y35042D02*
X1025Y35001D01*
X1066Y35001D01*
X1025Y35042D01*
D19*
X1789Y33472D02*
X1848Y33472D01*
X2083Y33766D01*
X2083Y34237D01*
X1789Y34531D01*
X1319Y34531D01*
X1025Y34237D01*
X1025Y33766D01*
X1260Y33472D01*
X1319Y33472D01*
D19*
X1319Y33002D02*
X1789Y33002D01*
X2083Y32708D01*
X2083Y32238D01*
X1789Y31944D01*
X1319Y31944D01*
X1025Y32238D01*
X1025Y32708D01*
X1319Y33002D01*
D19*
X2083Y31474D02*
X1025Y31474D01*
D19*
X1789Y31474D02*
X2083Y31180D01*
X2083Y30944D01*
X1907Y30768D01*
X1025Y30768D01*
D19*
X1907Y30768D02*
X2083Y30650D01*
X2083Y30356D01*
X1789Y30063D01*
X1025Y30063D01*
D19*
X1025Y28064D02*
X2083Y28064D01*
D19*
X1730Y28064D02*
X2083Y27711D01*
X2083Y27299D01*
X1789Y27005D01*
X1025Y27005D01*
D19*
X2436Y26359D02*
X1260Y26359D01*
X1025Y26123D01*
X1025Y25771D01*
X1201Y25594D01*
X1260Y25594D01*
D19*
X2083Y26535D02*
X2083Y26065D01*
D19*
X2436Y25124D02*
X1025Y25124D01*
X1025Y24360D01*
X1260Y24066D01*
X1789Y24066D01*
X2083Y24360D01*
X2083Y24771D01*
X1730Y25124D01*
D19*
X1025Y23595D02*
X2083Y23595D01*
D19*
X1613Y23595D02*
X2083Y23184D01*
X2083Y22714D01*
X1907Y22537D01*
X1848Y22537D01*
D19*
X1319Y22067D02*
X1789Y22067D01*
X2083Y21773D01*
X2083Y21303D01*
X1789Y21009D01*
X1319Y21009D01*
X1025Y21303D01*
X1025Y21773D01*
X1319Y22067D01*
D19*
X1789Y19480D02*
X1848Y19480D01*
X2083Y19774D01*
X2083Y20244D01*
X1789Y20538D01*
X1319Y20538D01*
X1025Y20244D01*
X1025Y19774D01*
X1260Y19480D01*
X1319Y19480D01*
D19*
X1025Y19010D02*
X2436Y19010D01*
D19*
X1201Y19010D02*
X2024Y18069D01*
X2083Y18069D01*
D19*
X1613Y18539D02*
X1083Y18069D01*
X1025Y18069D01*
D19*
X2436Y16070D02*
X1025Y16070D01*
X1025Y15306D01*
X1260Y15012D01*
X1789Y15012D01*
X2083Y15306D01*
X2083Y15717D01*
X1730Y16070D01*
D19*
X1319Y14542D02*
X1789Y14542D01*
X2083Y14248D01*
X2083Y13777D01*
X1789Y13483D01*
X1319Y13483D01*
X1025Y13777D01*
X1025Y14248D01*
X1319Y14542D01*
D19*
X2436Y13013D02*
X1025Y13013D01*
X1025Y12249D01*
X1260Y11955D01*
X1789Y11955D01*
X2083Y12249D01*
X2083Y12660D01*
X1730Y13013D01*
D19*
X2436Y11367D02*
X2436Y11367D01*
D19*
X2083Y11484D02*
X2083Y11367D01*
X1025Y11367D01*
D19*
X1025Y11484D02*
X1025Y11249D01*
D19*
X1025Y10779D02*
X2083Y10779D01*
D19*
X1730Y10779D02*
X2083Y10426D01*
X2083Y10015D01*
X1789Y9721D01*
X1025Y9721D01*
D19*
X1319Y9250D02*
X1789Y9250D01*
X2083Y8956D01*
X2083Y8486D01*
X1789Y8192D01*
X1319Y8192D01*
X1025Y8486D01*
X1025Y8956D01*
X1319Y9250D01*
D20*
X342Y31850D02*
X439Y31830D01*
X536Y31810D01*
X632Y31789D01*
X729Y31769D01*
X826Y31749D01*
X923Y31729D01*
X1020Y31709D01*
X1116Y31689D01*
X1213Y31669D01*
X1310Y31648D01*
X1407Y31628D01*
X1503Y31608D01*
X1600Y31588D01*
X1697Y31568D01*
X1794Y31548D01*
X1890Y31527D01*
X1987Y31507D01*
X2084Y31487D01*
X2181Y31467D01*
X2278Y31447D01*
X2374Y31427D01*
X2471Y31406D01*
X2568Y31386D01*
X2665Y31366D01*
X2761Y31346D01*
X2858Y31326D01*
X2955Y31306D01*
X3052Y31285D01*
D20*
X307Y19818D02*
X404Y19798D01*
X501Y19778D01*
X598Y19758D01*
X694Y19738D01*
X791Y19718D01*
X888Y19697D01*
X985Y19677D01*
X1081Y19657D01*
X1178Y19637D01*
X1275Y19617D01*
X1372Y19597D01*
X1469Y19576D01*
X1565Y19556D01*
X1662Y19536D01*
X1759Y19516D01*
X1856Y19496D01*
X1952Y19476D01*
X2049Y19455D01*
X2146Y19435D01*
X2243Y19415D01*
X2339Y19395D01*
X2436Y19375D01*
X2533Y19355D01*
X2630Y19334D01*
X2727Y19314D01*
X2823Y19294D01*
X2920Y19274D01*
X3017Y19254D01*
D20*
X29201Y31504D02*
X29294Y31471D01*
X29387Y31437D01*
X29480Y31403D01*
X29573Y31370D01*
X29666Y31336D01*
X29760Y31303D01*
X29853Y31269D01*
X29946Y31236D01*
X30039Y31202D01*
X30132Y31169D01*
X30225Y31135D01*
X30312Y31091D01*
X30385Y31024D01*
X30457Y30956D01*
X30529Y30889D01*
X30602Y30821D01*
X30674Y30754D01*
X30747Y30686D01*
X30819Y30619D01*
X30891Y30551D01*
X30964Y30484D01*
X31036Y30416D01*
X31101Y30342D01*
X31154Y30258D01*
X31207Y30175D01*
X31260Y30091D01*
X31313Y30008D01*
X31366Y29924D01*
X31419Y29840D01*
X31472Y29757D01*
X31525Y29673D01*
X31578Y29590D01*
X31609Y29496D01*
X31638Y29401D01*
X31666Y29306D01*
X31695Y29212D01*
X31723Y29117D01*
X31752Y29022D01*
X31781Y28927D01*
X31809Y28833D01*
X31834Y28737D01*
X31834Y28638D01*
X31834Y28539D01*
X31833Y28440D01*
X31833Y28341D01*
X31833Y28242D01*
X31833Y28143D01*
X31833Y28044D01*
X31833Y27945D01*
X31833Y27846D01*
X31832Y27747D01*
X31815Y27651D01*
X31780Y27559D01*
X31745Y27466D01*
X31710Y27373D01*
X31675Y27281D01*
X31640Y27188D01*
X31605Y27096D01*
X31570Y27003D01*
X31535Y26910D01*
X31500Y26818D01*
X31452Y26732D01*
X31399Y26648D01*
X31346Y26564D01*
X31293Y26481D01*
X31240Y26397D01*
X31187Y26314D01*
X31134Y26230D01*
X31081Y26146D01*
X31028Y26063D01*
X30960Y25992D01*
X30888Y25924D01*
X30816Y25856D01*
X30744Y25788D01*
X30671Y25721D01*
X30599Y25653D01*
X30527Y25585D01*
X30455Y25517D01*
X30383Y25450D01*
X30310Y25382D01*
X30230Y25327D01*
X30138Y25289D01*
X30047Y25251D01*
X29956Y25212D01*
X29865Y25174D01*
X29773Y25136D01*
X29682Y25097D01*
X29591Y25059D01*
X29499Y25021D01*
X29408Y24982D01*
X29317Y24944D01*
X29226Y24906D01*
D21*
X14460Y3798D02*
X14460Y3181D01*
X14372Y3093D01*
X14078Y3093D01*
D21*
X14460Y3328D02*
X14049Y3328D01*
X13931Y3446D01*
X13931Y3651D01*
X14078Y3798D01*
X14284Y3798D01*
X14460Y3622D01*
D21*
X14695Y3269D02*
X14695Y3798D01*
D21*
X14695Y3622D02*
X14871Y3798D01*
X15077Y3798D01*
X15224Y3651D01*
X15224Y3269D01*
D21*
X15987Y3974D02*
X15987Y3269D01*
X15605Y3269D01*
X15459Y3416D01*
X15459Y3651D01*
X15605Y3798D01*
X15811Y3798D01*
X15987Y3622D01*
D21*
X10547Y3281D02*
X10547Y3252D01*
X10635Y3164D01*
X10870Y3164D01*
X10958Y3252D01*
X10958Y3457D01*
X10870Y3546D01*
X10547Y3546D01*
X10547Y3869D01*
X10899Y3869D01*
D21*
X11193Y3869D02*
X11193Y3457D01*
X11428Y3164D01*
X11663Y3457D01*
X11663Y3869D01*
D21*
X7556Y3693D02*
X7556Y3722D01*
X7644Y3810D01*
X7879Y3810D01*
X7967Y3722D01*
X7967Y3605D01*
X7820Y3458D01*
X7967Y3311D01*
X7967Y3193D01*
X7879Y3105D01*
X7644Y3105D01*
X7556Y3193D01*
X7556Y3223D01*
D21*
X7732Y3458D02*
X7820Y3458D01*
D21*
X8202Y3105D02*
X8223Y3105D01*
X8223Y3126D01*
X8202Y3105D01*
D21*
X8458Y3693D02*
X8458Y3722D01*
X8546Y3810D01*
X8781Y3810D01*
X8869Y3722D01*
X8869Y3605D01*
X8722Y3458D01*
X8869Y3311D01*
X8869Y3193D01*
X8781Y3105D01*
X8546Y3105D01*
X8458Y3193D01*
X8458Y3223D01*
D21*
X8634Y3458D02*
X8722Y3458D01*
D21*
X9104Y3810D02*
X9104Y3399D01*
X9339Y3105D01*
X9574Y3399D01*
X9574Y3810D01*
D18*
X32965Y31625D02*
X34023Y31625D01*
X34023Y31008D01*
X33847Y30831D01*
X33142Y30831D01*
X32965Y31008D01*
X32965Y31625D01*
D18*
X33759Y30347D02*
X33759Y29950D01*
X33582Y29729D01*
X32965Y29729D01*
X32965Y30302D01*
X33186Y30479D01*
X33406Y30302D01*
X33406Y29729D01*
D18*
X34023Y29244D02*
X33142Y29244D01*
X32965Y29068D01*
X32965Y28804D01*
X33097Y28671D01*
X33142Y28671D01*
D18*
X33759Y29377D02*
X33759Y29024D01*
D18*
X33759Y28186D02*
X33759Y27790D01*
X33582Y27569D01*
X32965Y27569D01*
X32965Y28142D01*
X33186Y28319D01*
X33406Y28142D01*
X33406Y27569D01*
D18*
X32965Y25453D02*
X32965Y26070D01*
X34023Y26070D01*
D18*
X33186Y25101D02*
X33538Y25101D01*
X33759Y24880D01*
X33759Y24528D01*
X33538Y24307D01*
X33186Y24307D01*
X32965Y24528D01*
X32965Y24880D01*
X33186Y25101D01*
D18*
X33759Y23161D02*
X32833Y23161D01*
X32701Y23293D01*
X32701Y23734D01*
D18*
X33053Y23161D02*
X33053Y23778D01*
X33230Y23954D01*
X33538Y23954D01*
X33759Y23734D01*
X33759Y23425D01*
X33494Y23161D01*
D18*
X33759Y22015D02*
X32833Y22015D01*
X32701Y22147D01*
X32701Y22588D01*
D18*
X33053Y22015D02*
X33053Y22632D01*
X33230Y22808D01*
X33538Y22808D01*
X33759Y22588D01*
X33759Y22279D01*
X33494Y22015D01*
D18*
X32965Y20957D02*
X32965Y21442D01*
X33186Y21662D01*
X33538Y21662D01*
X33759Y21442D01*
X33759Y21089D01*
X33538Y20869D01*
X33362Y20869D01*
X33362Y21662D01*
D18*
X32965Y20516D02*
X33759Y20516D01*
D18*
X33406Y20516D02*
X33759Y20207D01*
X33759Y19855D01*
X33626Y19722D01*
X33582Y19722D01*
D18*
X36183Y31625D02*
X36360Y31801D01*
X37065Y31801D01*
X37241Y31625D01*
X37241Y31184D01*
X37065Y31008D01*
X36360Y31008D01*
X36183Y31184D01*
X36183Y31625D01*
D18*
X35919Y30655D02*
X36977Y30655D01*
D18*
X36757Y30655D02*
X36977Y30435D01*
X36977Y30082D01*
X36757Y29862D01*
X36536Y29862D01*
X36316Y30082D01*
X36316Y30435D01*
X36536Y30655D01*
D18*
X36183Y28804D02*
X36183Y29289D01*
X36404Y29509D01*
X36757Y29509D01*
X36977Y29289D01*
X36977Y28936D01*
X36757Y28715D01*
X36580Y28715D01*
X36580Y29509D01*
D18*
X36183Y28363D02*
X36977Y28363D01*
D18*
X36712Y28363D02*
X36977Y28098D01*
X36977Y27790D01*
X36757Y27569D01*
X36183Y27569D01*
D18*
X36360Y26070D02*
X36183Y25894D01*
X36183Y25453D01*
X36360Y25277D01*
X36536Y25277D01*
X36712Y25453D01*
X36712Y25894D01*
X36889Y26070D01*
X37065Y26070D01*
X37241Y25894D01*
X37241Y25453D01*
X37065Y25277D01*
D18*
X36404Y24924D02*
X36757Y24924D01*
X36977Y24704D01*
X36977Y24351D01*
X36757Y24131D01*
X36404Y24131D01*
X36183Y24351D01*
X36183Y24704D01*
X36404Y24924D01*
D18*
X36977Y22985D02*
X36183Y22985D01*
D18*
X36977Y23778D02*
X36404Y23778D01*
X36183Y23558D01*
X36183Y23205D01*
X36404Y22985D01*
D18*
X36183Y22632D02*
X36977Y22632D01*
D18*
X36624Y22632D02*
X36977Y22323D01*
X36977Y21971D01*
X36845Y21838D01*
X36801Y21838D01*
D18*
X36757Y20692D02*
X36801Y20692D01*
X36977Y20913D01*
X36977Y21265D01*
X36757Y21486D01*
X36404Y21486D01*
X36183Y21265D01*
X36183Y20913D01*
X36360Y20692D01*
X36404Y20692D01*
D18*
X36183Y19634D02*
X36183Y20119D01*
X36404Y20340D01*
X36757Y20340D01*
X36977Y20119D01*
X36977Y19767D01*
X36757Y19546D01*
X36580Y19546D01*
X36580Y20340D01*
D21*
X23688Y3100D02*
X23599Y3188D01*
X23599Y3717D01*
X23688Y3805D01*
X23923Y3805D01*
X24011Y3717D01*
X24011Y3188D01*
X23923Y3100D01*
X23688Y3100D01*
D21*
X23599Y3276D02*
X24011Y3629D01*
D21*
X26492Y47116D02*
X26492Y47821D01*
X26433Y47821D01*
X26139Y47381D01*
X26139Y47263D01*
X26551Y47263D01*
D21*
X28679Y47697D02*
X28679Y47726D01*
X28768Y47814D01*
X29003Y47814D01*
X29091Y47726D01*
X29091Y47609D01*
X28944Y47462D01*
X29091Y47315D01*
X29091Y47198D01*
X29003Y47109D01*
X28768Y47109D01*
X28679Y47198D01*
X28679Y47227D01*
D21*
X28856Y47462D02*
X28944Y47462D01*
D21*
X31219Y47697D02*
X31219Y47726D01*
X31308Y47814D01*
X31543Y47814D01*
X31631Y47726D01*
X31631Y47521D01*
X31219Y47109D01*
X31631Y47109D01*
D21*
X33980Y47081D02*
X33980Y47786D01*
X33921Y47786D01*
X33833Y47668D01*
D21*
X33833Y47081D02*
X34097Y47081D01*
D21*
X36388Y47052D02*
X36299Y47140D01*
X36299Y47669D01*
X36388Y47757D01*
X36623Y47757D01*
X36711Y47669D01*
X36711Y47140D01*
X36623Y47052D01*
X36388Y47052D01*
D21*
X36299Y47228D02*
X36711Y47581D01*
D21*
X23572Y47285D02*
X23572Y47255D01*
X23660Y47167D01*
X23895Y47167D01*
X23983Y47255D01*
X23983Y47461D01*
X23895Y47549D01*
X23572Y47549D01*
X23572Y47872D01*
X23924Y47872D01*
D21*
X21534Y47697D02*
X21534Y47726D01*
X21446Y47814D01*
X21211Y47814D01*
X21123Y47726D01*
X21123Y47198D01*
X21211Y47109D01*
X21446Y47109D01*
X21534Y47198D01*
X21534Y47374D01*
X21446Y47462D01*
X21123Y47462D01*
D21*
X18764Y47138D02*
X18764Y47373D01*
X18999Y47726D01*
X18999Y47843D01*
X18588Y47843D01*
D21*
X26250Y3072D02*
X26250Y3777D01*
X26191Y3777D01*
X26103Y3660D01*
D21*
X26103Y3072D02*
X26367Y3072D01*
D21*
X28679Y3660D02*
X28679Y3689D01*
X28768Y3777D01*
X29003Y3777D01*
X29091Y3689D01*
X29091Y3484D01*
X28679Y3072D01*
X29091Y3072D01*
D21*
X31219Y3648D02*
X31219Y3678D01*
X31308Y3766D01*
X31543Y3766D01*
X31631Y3678D01*
X31631Y3560D01*
X31484Y3413D01*
X31631Y3266D01*
X31631Y3149D01*
X31543Y3061D01*
X31308Y3061D01*
X31219Y3149D01*
X31219Y3178D01*
D21*
X31396Y3413D02*
X31484Y3413D01*
D21*
X34112Y3032D02*
X34112Y3737D01*
X34053Y3737D01*
X33759Y3296D01*
X33759Y3179D01*
X34171Y3179D01*
D21*
X36299Y3117D02*
X36299Y3088D01*
X36388Y3000D01*
X36623Y3000D01*
X36711Y3088D01*
X36711Y3293D01*
X36623Y3381D01*
X36299Y3381D01*
X36299Y3705D01*
X36652Y3705D01*
D21*
X18020Y3853D02*
X18020Y3442D01*
X18255Y3148D01*
X18490Y3442D01*
X18490Y3853D01*
D21*
X18784Y3853D02*
X18784Y3853D01*
D21*
X18725Y3677D02*
X18784Y3677D01*
X18784Y3148D01*
D21*
X18725Y3148D02*
X18842Y3148D01*
D21*
X19077Y3148D02*
X19077Y3677D01*
D21*
X19077Y3501D02*
X19254Y3677D01*
X19459Y3677D01*
X19606Y3530D01*
X19606Y3148D01*
D19*
X14535Y36806D02*
X14535Y37629D01*
X15946Y37629D01*
D19*
X15946Y36218D02*
X15946Y36218D01*
D19*
X15593Y36336D02*
X15593Y36218D01*
X14535Y36218D01*
D19*
X14535Y36336D02*
X14535Y36101D01*
D19*
X15593Y34572D02*
X14358Y34572D01*
X14182Y34748D01*
X14182Y35336D01*
D19*
X14652Y34572D02*
X14652Y35395D01*
X14887Y35630D01*
X15299Y35630D01*
X15593Y35336D01*
X15593Y34925D01*
X15240Y34572D01*
D19*
X14535Y34102D02*
X15946Y34102D01*
D19*
X14535Y33161D02*
X15299Y33161D01*
X15593Y33455D01*
X15593Y33749D01*
X15299Y34102D01*
D19*
X15946Y32514D02*
X14770Y32514D01*
X14535Y32279D01*
X14535Y31926D01*
X14711Y31750D01*
X14770Y31750D01*
D19*
X15593Y32691D02*
X15593Y32220D01*
D20*
X9045Y46228D02*
X9047Y46129D01*
X9051Y46029D01*
X9059Y45930D01*
X9070Y45831D01*
X9084Y45732D01*
X9102Y45634D01*
X9123Y45537D01*
X9147Y45440D01*
X9174Y45344D01*
X9204Y45249D01*
X9238Y45156D01*
X9275Y45063D01*
X9315Y44972D01*
X9358Y44882D01*
X9404Y44793D01*
X9453Y44707D01*
X9504Y44622D01*
X9559Y44538D01*
X9617Y44457D01*
X9677Y44378D01*
X9739Y44300D01*
X9805Y44225D01*
X9872Y44152D01*
X9943Y44081D01*
X10015Y44013D01*
X10090Y43947D01*
X10166Y43883D01*
X10245Y43822D01*
X10326Y43764D01*
X10408Y43708D01*
X10493Y43655D01*
X10579Y43605D01*
X10666Y43557D01*
X10755Y43512D01*
X10846Y43471D01*
X10938Y43432D01*
X11031Y43396D01*
X11125Y43364D01*
X11220Y43334D01*
X11316Y43308D01*
X11413Y43284D01*
X11510Y43264D01*
X11608Y43247D01*
X11707Y43234D01*
X11806Y43224D01*
X11906Y43217D01*
X12005Y43213D01*
X12105Y43213D01*
X12204Y43216D01*
X12304Y43223D01*
X12403Y43233D01*
X12502Y43246D01*
X12600Y43263D01*
X12697Y43282D01*
X12794Y43306D01*
X12890Y43332D01*
X12985Y43362D01*
X13080Y43395D01*
X13173Y43430D01*
X13264Y43469D01*
X13355Y43511D01*
X13444Y43556D01*
X13531Y43603D01*
X13617Y43654D01*
X13702Y43707D01*
X13784Y43762D01*
X13865Y43821D01*
X13943Y43882D01*
X14020Y43946D01*
X14094Y44012D01*
X14167Y44081D01*
X14236Y44152D01*
X14304Y44225D01*
X14369Y44300D01*
X14431Y44378D01*
X14491Y44458D01*
X14549Y44539D01*
X14603Y44623D01*
X14655Y44708D01*
X14704Y44794D01*
X14750Y44883D01*
X14793Y44973D01*
X14833Y45064D01*
X14870Y45156D01*
X14904Y45250D01*
X14935Y45345D01*
X14962Y45440D01*
X14987Y45537D01*
X15008Y45634D01*
X15026Y45732D01*
X15041Y45831D01*
X15052Y45930D01*
X15060Y46029D01*
X15065Y46129D01*
X15067Y46228D01*
X15065Y46328D01*
X15061Y46427D01*
X15053Y46527D01*
X15042Y46626D01*
X15028Y46724D01*
X15010Y46822D01*
X14989Y46920D01*
X14965Y47016D01*
X14938Y47112D01*
X14908Y47207D01*
X14874Y47301D01*
X14837Y47393D01*
X14797Y47485D01*
X14754Y47575D01*
X14708Y47663D01*
X14659Y47750D01*
X14608Y47835D01*
X14553Y47918D01*
X14495Y48000D01*
X14435Y48079D01*
X14373Y48156D01*
X14307Y48232D01*
X14240Y48305D01*
X14169Y48375D01*
X14097Y48444D01*
X14022Y48510D01*
X13946Y48573D01*
X13867Y48634D01*
X13786Y48693D01*
X13704Y48749D01*
X13619Y48802D01*
X13533Y48852D01*
X13446Y48899D01*
X13357Y48944D01*
X13266Y48986D01*
X13174Y49024D01*
X13081Y49060D01*
X12987Y49093D01*
X12892Y49122D01*
X12796Y49149D01*
X12699Y49172D01*
X12602Y49192D01*
X12504Y49209D01*
X12405Y49223D01*
X12306Y49233D01*
X12206Y49240D01*
X12107Y49243D01*
X12007Y49243D01*
X11908Y49240D01*
X11808Y49234D01*
X11709Y49224D01*
X11610Y49210D01*
X11512Y49194D01*
X11415Y49174D01*
X11318Y49151D01*
X11222Y49124D01*
X11127Y49095D01*
X11032Y49062D01*
X10939Y49026D01*
X10848Y48987D01*
X10757Y48945D01*
X10668Y48901D01*
X10581Y48853D01*
X10495Y48803D01*
X10410Y48750D01*
X10328Y48694D01*
X10247Y48635D01*
X10169Y48574D01*
X10092Y48511D01*
X10018Y48444D01*
X9945Y48376D01*
X9876Y48305D01*
X9808Y48232D01*
X9743Y48156D01*
X9681Y48078D01*
X9621Y47999D01*
X9563Y47917D01*
X9509Y47834D01*
X9457Y47749D01*
X9408Y47662D01*
X9362Y47574D01*
X9319Y47484D01*
X9279Y47393D01*
X9242Y47300D01*
X9208Y47206D01*
X9177Y47112D01*
X9150Y47016D01*
X9125Y46919D01*
X9104Y46822D01*
X9086Y46724D01*
X9071Y46626D01*
X9060Y46527D01*
X9052Y46427D01*
X9047Y46328D01*
X9045Y46228D01*
X9045Y46228D01*
D20*
X11592Y43280D02*
X11616Y43377D01*
X11640Y43474D01*
X11664Y43570D01*
X11688Y43667D01*
X11712Y43764D01*
X11736Y43861D01*
X11760Y43957D01*
X11784Y44054D01*
X11808Y44151D01*
X11832Y44247D01*
X11856Y44344D01*
X11880Y44441D01*
X11904Y44538D01*
X11928Y44634D01*
X11952Y44731D01*
X11976Y44828D01*
X12000Y44924D01*
X12024Y45021D01*
X12048Y45118D01*
X12072Y45214D01*
X12096Y45311D01*
X12120Y45408D01*
X12144Y45505D01*
X12168Y45601D01*
X12192Y45698D01*
X12215Y45795D01*
X12239Y45891D01*
X12263Y45988D01*
X12287Y46085D01*
X12311Y46182D01*
X12335Y46278D01*
X12359Y46375D01*
X12383Y46472D01*
X12407Y46568D01*
X12431Y46665D01*
X12455Y46762D01*
X12479Y46859D01*
X12503Y46955D01*
X12527Y47052D01*
X12551Y47149D01*
X12575Y47245D01*
X12599Y47342D01*
X12623Y47439D01*
X12647Y47535D01*
X12671Y47632D01*
X12695Y47729D01*
X12719Y47826D01*
X12743Y47922D01*
X12767Y48019D01*
X12791Y48116D01*
X12815Y48212D01*
X12839Y48309D01*
X12863Y48406D01*
X12887Y48503D01*
X12911Y48599D01*
X12935Y48696D01*
X12958Y48793D01*
X12982Y48889D01*
X13006Y48986D01*
D20*
X15043Y46430D02*
X15140Y46406D01*
X15237Y46382D01*
X15334Y46358D01*
X15431Y46334D01*
X15528Y46311D01*
X15625Y46287D01*
X15722Y46263D01*
X15819Y46239D01*
X15916Y46215D01*
X16014Y46192D01*
X16111Y46168D01*
X16208Y46144D01*
X16305Y46120D01*
X16402Y46096D01*
X16499Y46072D01*
X16596Y46049D01*
X16574Y45954D01*
X16549Y45857D01*
X16524Y45761D01*
X16499Y45664D01*
X16474Y45567D01*
X16449Y45470D01*
X16424Y45374D01*
X16399Y45277D01*
X16374Y45180D01*
X16349Y45083D01*
X16324Y44987D01*
X16299Y44890D01*
X16274Y44793D01*
X16249Y44696D01*
X16224Y44599D01*
X16199Y44503D01*
X16174Y44406D01*
X16098Y44391D01*
X16000Y44410D01*
X15902Y44430D01*
X15804Y44449D01*
X15706Y44469D01*
X15608Y44489D01*
X15510Y44508D01*
X15412Y44528D01*
X15314Y44547D01*
X15216Y44567D01*
X15118Y44587D01*
X15020Y44606D01*
X14922Y44626D01*
X14824Y44645D01*
X14726Y44665D01*
D20*
X10955Y43450D02*
X10979Y43547D01*
X11003Y43644D01*
X11027Y43741D01*
X11051Y43838D01*
X11075Y43935D01*
X11099Y44032D01*
X11123Y44129D01*
X11147Y44226D01*
X11171Y44323D01*
X11195Y44420D01*
X11219Y44517D01*
X11243Y44614D01*
X11267Y44711D01*
X11291Y44808D01*
X11315Y44905D01*
X11339Y45002D01*
X11363Y45099D01*
X11386Y45196D01*
X11410Y45292D01*
X11434Y45389D01*
X11458Y45486D01*
X11482Y45583D01*
X11506Y45680D01*
X11530Y45777D01*
X11554Y45874D01*
X11578Y45971D01*
X11602Y46068D01*
X11626Y46165D01*
X11650Y46262D01*
X11674Y46359D01*
X11698Y46456D01*
X11722Y46553D01*
X11746Y46650D01*
X11770Y46747D01*
X11794Y46844D01*
X11818Y46941D01*
X11842Y47038D01*
X11866Y47135D01*
X11890Y47232D01*
X11914Y47329D01*
X11938Y47426D01*
X11962Y47523D01*
X11986Y47620D01*
X12010Y47717D01*
X12034Y47814D01*
X12058Y47911D01*
X12082Y48008D01*
X12105Y48105D01*
X12129Y48202D01*
X12153Y48299D01*
X12177Y48396D01*
X12201Y48492D01*
X12225Y48589D01*
X12249Y48686D01*
X12273Y48783D01*
X12297Y48880D01*
X12321Y48977D01*
X12345Y49074D01*
X12369Y49171D01*
M02*
